<?xml version="1.0" encoding="utf-8"?>
<svg id="Layer_2" width="1606.03" height="447.53" viewBox="0 0 1577.2900390625 447.5299987792969" xmlns="http://www.w3.org/2000/svg">
  <path d="M 201.491 334.31 L 201.491 334.31 L 191.061 368.05 L 225.911 368.05 L 215.481 334.31 L 215.481 334.31 C 214.888 332.977 214.258 332.013 213.591 331.42 L 213.591 331.42 L 213.591 331.42 C 212.924 330.833 212.148 330.54 211.261 330.54 L 211.261 330.54 L 205.711 330.54 L 205.711 330.54 C 204.824 330.54 204.048 330.833 203.381 331.42 L 203.381 331.42 L 203.381 331.42 C 202.714 332.013 202.084 332.977 201.491 334.31 Z M 188.841 408.46 L 188.841 439.54 L 188.841 439.54 C 188.841 442.353 188.211 444.387 186.951 445.64 L 186.951 445.64 L 186.951 445.64 C 185.691 446.9 183.654 447.53 180.841 447.53 L 180.841 447.53 L 148.211 447.53 L 148.211 447.53 C 145.398 447.53 143.364 446.9 142.111 445.64 L 142.111 445.64 L 142.111 445.64 C 140.851 444.387 140.221 442.353 140.221 439.54 L 140.221 439.54 L 140.221 380.93 L 140.221 380.93 C 140.221 376.49 140.924 371.383 142.331 365.61 L 142.331 365.61 L 142.331 365.61 C 143.738 359.837 145.921 353.103 148.881 345.41 L 148.881 345.41 L 168.191 295.02 L 168.191 295.02 C 169.078 292.5 170.448 290.65 172.301 289.47 L 172.301 289.47 L 172.301 289.47 C 174.148 288.283 176.551 287.69 179.511 287.69 L 179.511 287.69 L 239.231 287.69 L 239.231 287.69 C 242.044 287.69 244.374 288.283 246.221 289.47 L 246.221 289.47 L 246.221 289.47 C 248.074 290.65 249.444 292.5 250.331 295.02 L 250.331 295.02 L 269.641 345.41 L 269.641 345.41 C 272.601 353.103 274.784 359.837 276.191 365.61 L 276.191 365.61 L 276.191 365.61 C 277.598 371.383 278.301 376.49 278.301 380.93 L 278.301 380.93 L 278.301 439.54 L 278.301 439.54 C 278.301 442.353 277.674 444.387 276.421 445.64 L 276.421 445.64 L 276.421 445.64 C 275.161 446.9 273.124 447.53 270.311 447.53 L 270.311 447.53 L 236.791 447.53 L 236.791 447.53 C 233.831 447.53 231.648 446.9 230.241 445.64 L 230.241 445.64 L 230.241 445.64 C 228.834 444.387 228.131 442.353 228.131 439.54 L 228.131 439.54 L 228.131 408.46 L 188.841 408.46 Z M 426.591 447.53 L 426.591 447.53 L 313.591 447.53 L 313.591 447.53 C 310.778 447.53 308.744 446.9 307.491 445.64 L 307.491 445.64 L 307.491 445.64 C 306.231 444.387 305.601 442.353 305.601 439.54 L 305.601 439.54 L 305.601 295.68 L 305.601 295.68 C 305.601 292.867 306.231 290.833 307.491 289.58 L 307.491 289.58 L 307.491 289.58 C 308.744 288.32 310.778 287.69 313.591 287.69 L 313.591 287.69 L 348.001 287.69 L 348.001 287.69 C 350.814 287.69 352.851 288.32 354.111 289.58 L 354.111 289.58 L 354.111 289.58 C 355.364 290.833 355.991 292.867 355.991 295.68 L 355.991 295.68 L 355.991 405.57 L 386.411 405.57 L 386.411 369.61 L 386.411 369.61 C 386.411 366.797 387.038 364.76 388.291 363.5 L 388.291 363.5 L 388.291 363.5 C 389.551 362.247 391.588 361.62 394.401 361.62 L 394.401 361.62 L 426.591 361.62 L 426.591 361.62 C 429.404 361.62 431.438 362.247 432.691 363.5 L 432.691 363.5 L 432.691 363.5 C 433.951 364.76 434.581 366.797 434.581 369.61 L 434.581 369.61 L 434.581 439.54 L 434.581 439.54 C 434.581 442.353 433.951 444.387 432.691 445.64 L 432.691 445.64 L 432.691 445.64 C 431.438 446.9 429.404 447.53 426.591 447.53 Z M 580.871 447.53 L 580.871 447.53 L 467.871 447.53 L 467.871 447.53 C 465.058 447.53 463.025 446.9 461.771 445.64 L 461.771 445.64 L 461.771 445.64 C 460.511 444.387 459.881 442.353 459.881 439.54 L 459.881 439.54 L 459.881 295.68 L 459.881 295.68 C 459.881 292.867 460.511 290.833 461.771 289.58 L 461.771 289.58 L 461.771 289.58 C 463.025 288.32 465.058 287.69 467.871 287.69 L 467.871 287.69 L 502.281 287.69 L 502.281 287.69 C 505.095 287.69 507.131 288.32 508.391 289.58 L 508.391 289.58 L 508.391 289.58 C 509.645 290.833 510.271 292.867 510.271 295.68 L 510.271 295.68 L 510.271 405.57 L 540.691 405.57 L 540.691 369.61 L 540.691 369.61 C 540.691 366.797 541.318 364.76 542.571 363.5 L 542.571 363.5 L 542.571 363.5 C 543.831 362.247 545.868 361.62 548.681 361.62 L 548.681 361.62 L 580.871 361.62 L 580.871 361.62 C 583.685 361.62 585.718 362.247 586.971 363.5 L 586.971 363.5 L 586.971 363.5 C 588.231 364.76 588.861 366.797 588.861 369.61 L 588.861 369.61 L 588.861 439.54 L 588.861 439.54 C 588.861 442.353 588.231 444.387 586.971 445.64 L 586.971 445.64 L 586.971 445.64 C 585.718 446.9 583.685 447.53 580.871 447.53 Z M 786.209 447.53 L 786.209 447.53 L 716.279 447.53 L 716.279 447.53 C 697.779 447.53 684.052 443.83 675.099 436.43 L 675.099 436.43 L 675.099 436.43 C 666.145 429.03 661.669 417.633 661.669 402.24 L 661.669 402.24 L 661.669 332.98 L 661.669 332.98 C 661.669 317.587 666.145 306.19 675.099 298.79 L 675.099 298.79 L 675.099 298.79 C 684.052 291.39 697.779 287.69 716.279 287.69 L 716.279 287.69 L 771.779 287.69 L 771.779 287.69 C 774.592 287.69 776.625 288.32 777.879 289.58 L 777.879 289.58 L 777.879 289.58 C 779.139 290.833 779.769 292.867 779.769 295.68 L 779.769 295.68 L 779.769 322.54 L 779.769 322.54 C 779.769 325.353 779.139 327.39 777.879 328.65 L 777.879 328.65 L 777.879 328.65 C 776.625 329.91 774.592 330.54 771.779 330.54 L 771.779 330.54 L 725.599 330.54 L 725.599 330.54 C 721.012 330.54 717.609 331.463 715.389 333.31 L 715.389 333.31 L 715.389 333.31 C 713.169 335.163 712.059 337.94 712.059 341.64 L 712.059 341.64 L 712.059 394.69 L 712.059 394.69 C 712.059 398.39 712.909 401.13 714.609 402.91 L 714.609 402.91 L 714.609 402.91 C 716.315 404.683 718.869 405.57 722.269 405.57 L 722.269 405.57 L 743.809 405.57 L 743.809 370.94 L 743.809 370.94 C 743.809 368.127 744.435 366.09 745.689 364.83 L 745.689 364.83 L 745.689 364.83 C 746.949 363.577 748.985 362.95 751.799 362.95 L 751.799 362.95 L 786.209 362.95 L 786.209 362.95 C 789.022 362.95 791.055 363.577 792.309 364.83 L 792.309 364.83 L 792.309 364.83 C 793.569 366.09 794.199 368.127 794.199 370.94 L 794.199 370.94 L 794.199 439.54 L 794.199 439.54 C 794.199 442.353 793.569 444.387 792.309 445.64 L 792.309 445.64 L 792.309 445.64 C 791.055 446.9 789.022 447.53 786.209 447.53 Z M 879.215 334.31 L 879.215 334.31 L 868.785 368.05 L 903.635 368.05 L 893.205 334.31 L 893.205 334.31 C 892.612 332.977 891.982 332.013 891.315 331.42 L 891.315 331.42 L 891.315 331.42 C 890.648 330.833 889.872 330.54 888.985 330.54 L 888.985 330.54 L 883.435 330.54 L 883.435 330.54 C 882.548 330.54 881.772 330.833 881.105 331.42 L 881.105 331.42 L 881.105 331.42 C 880.438 332.013 879.808 332.977 879.215 334.31 Z M 866.565 408.46 L 866.565 439.54 L 866.565 439.54 C 866.565 442.353 865.935 444.387 864.675 445.64 L 864.675 445.64 L 864.675 445.64 C 863.415 446.9 861.378 447.53 858.565 447.53 L 858.565 447.53 L 825.935 447.53 L 825.935 447.53 C 823.122 447.53 821.088 446.9 819.835 445.64 L 819.835 445.64 L 819.835 445.64 C 818.575 444.387 817.945 442.353 817.945 439.54 L 817.945 439.54 L 817.945 380.93 L 817.945 380.93 C 817.945 376.49 818.648 371.383 820.055 365.61 L 820.055 365.61 L 820.055 365.61 C 821.462 359.837 823.645 353.103 826.605 345.41 L 826.605 345.41 L 845.915 295.02 L 845.915 295.02 C 846.802 292.5 848.172 290.65 850.025 289.47 L 850.025 289.47 L 850.025 289.47 C 851.872 288.283 854.275 287.69 857.235 287.69 L 857.235 287.69 L 916.955 287.69 L 916.955 287.69 C 919.768 287.69 922.098 288.283 923.945 289.47 L 923.945 289.47 L 923.945 289.47 C 925.798 290.65 927.168 292.5 928.055 295.02 L 928.055 295.02 L 947.365 345.41 L 947.365 345.41 C 950.325 353.103 952.508 359.837 953.915 365.61 L 953.915 365.61 L 953.915 365.61 C 955.322 371.383 956.025 376.49 956.025 380.93 L 956.025 380.93 L 956.025 439.54 L 956.025 439.54 C 956.025 442.353 955.398 444.387 954.145 445.64 L 954.145 445.64 L 954.145 445.64 C 952.885 446.9 950.848 447.53 948.035 447.53 L 948.035 447.53 L 914.515 447.53 L 914.515 447.53 C 911.555 447.53 909.372 446.9 907.965 445.64 L 907.965 445.64 L 907.965 445.64 C 906.558 444.387 905.855 442.353 905.855 439.54 L 905.855 439.54 L 905.855 408.46 L 866.565 408.46 Z M 1024.395 447.53 L 1024.395 447.53 L 991.315 447.53 L 991.315 447.53 C 988.502 447.53 986.468 446.9 985.215 445.64 L 985.215 445.64 L 985.215 445.64 C 983.955 444.387 983.325 442.353 983.325 439.54 L 983.325 439.54 L 983.325 295.68 L 983.325 295.68 C 983.325 292.867 983.955 290.833 985.215 289.58 L 985.215 289.58 L 985.215 289.58 C 986.468 288.32 988.502 287.69 991.315 287.69 L 991.315 287.69 L 1027.055 287.69 L 1027.055 287.69 C 1029.422 287.69 1031.385 288.207 1032.945 289.24 L 1032.945 289.24 L 1032.945 289.24 C 1034.498 290.28 1035.938 291.983 1037.265 294.35 L 1037.265 294.35 L 1057.245 330.54 L 1057.245 330.54 C 1057.985 331.867 1058.615 332.827 1059.135 333.42 L 1059.135 333.42 L 1059.135 333.42 C 1059.655 334.013 1060.358 334.31 1061.245 334.31 L 1061.245 334.31 L 1063.245 334.31 L 1063.245 334.31 C 1064.132 334.31 1064.834 334.013 1065.354 333.42 L 1065.354 333.42 L 1065.354 333.42 C 1065.868 332.827 1066.495 331.867 1067.235 330.54 L 1067.235 330.54 L 1086.995 294.35 L 1086.995 294.35 C 1088.328 291.983 1089.771 290.28 1091.324 289.24 L 1091.324 289.24 L 1091.324 289.24 C 1092.878 288.207 1094.838 287.69 1097.205 287.69 L 1097.205 287.69 L 1133.175 287.69 L 1133.175 287.69 C 1135.988 287.69 1138.021 288.32 1139.275 289.58 L 1139.275 289.58 L 1139.275 289.58 C 1140.535 290.833 1141.165 292.867 1141.165 295.68 L 1141.165 295.68 L 1141.165 439.54 L 1141.165 439.54 C 1141.165 442.353 1140.535 444.387 1139.275 445.64 L 1139.275 445.64 L 1139.275 445.64 C 1138.021 446.9 1135.988 447.53 1133.175 447.53 L 1133.175 447.53 L 1098.985 447.53 L 1098.985 447.53 C 1096.172 447.53 1094.138 446.9 1092.885 445.64 L 1092.885 445.64 L 1092.885 445.64 C 1091.625 444.387 1090.995 442.353 1090.995 439.54 L 1090.995 439.54 L 1090.995 361.39 L 1077.895 385.59 L 1077.895 385.59 C 1076.562 388.11 1074.972 389.923 1073.125 391.03 L 1073.125 391.03 L 1073.125 391.03 C 1071.271 392.143 1068.938 392.7 1066.125 392.7 L 1066.125 392.7 L 1057.245 392.7 L 1057.245 392.7 C 1054.438 392.7 1052.108 392.143 1050.255 391.03 L 1050.255 391.03 L 1050.255 391.03 C 1048.407 389.923 1046.818 388.11 1045.485 385.59 L 1045.485 385.59 L 1032.385 361.39 L 1032.385 439.54 L 1032.385 439.54 C 1032.385 442.353 1031.755 444.387 1030.495 445.64 L 1030.495 445.64 L 1030.495 445.64 C 1029.241 446.9 1027.208 447.53 1024.395 447.53 Z M 1282.791 447.53 L 1282.791 447.53 L 1179.781 447.53 L 1179.781 447.53 C 1176.968 447.53 1174.935 446.9 1173.681 445.64 L 1173.681 445.64 L 1173.681 445.64 C 1172.421 444.387 1171.791 442.353 1171.791 439.54 L 1171.791 439.54 L 1171.791 295.68 L 1171.791 295.68 C 1171.791 292.867 1172.421 290.833 1173.681 289.58 L 1173.681 289.58 L 1173.681 289.58 C 1174.935 288.32 1176.968 287.69 1179.781 287.69 L 1179.781 287.69 L 1282.791 287.69 L 1282.791 287.69 C 1285.604 287.69 1287.638 288.32 1288.891 289.58 L 1288.891 289.58 L 1288.891 289.58 C 1290.151 290.833 1290.781 292.867 1290.781 295.68 L 1290.781 295.68 L 1290.781 321.66 L 1290.781 321.66 C 1290.781 324.467 1290.151 326.5 1288.891 327.76 L 1288.891 327.76 L 1288.891 327.76 C 1287.638 329.02 1285.604 329.65 1282.791 329.65 L 1282.791 329.65 L 1221.521 329.65 L 1221.521 346.74 L 1264.811 346.74 L 1264.811 346.74 C 1267.618 346.74 1269.651 347.37 1270.911 348.63 L 1270.911 348.63 L 1270.911 348.63 C 1272.171 349.89 1272.801 351.923 1272.801 354.73 L 1272.801 354.73 L 1272.801 378.49 L 1272.801 378.49 C 1272.801 381.303 1272.171 383.337 1270.911 384.59 L 1270.911 384.59 L 1270.911 384.59 C 1269.651 385.85 1267.618 386.48 1264.811 386.48 L 1264.811 386.48 L 1221.521 386.48 L 1221.521 405.57 L 1282.791 405.57 L 1282.791 405.57 C 1285.604 405.57 1287.638 406.2 1288.891 407.46 L 1288.891 407.46 L 1288.891 407.46 C 1290.151 408.72 1290.781 410.753 1290.781 413.56 L 1290.781 413.56 L 1290.781 439.54 L 1290.781 439.54 C 1290.781 442.353 1290.151 444.387 1288.891 445.64 L 1288.891 445.64 L 1288.891 445.64 C 1287.638 446.9 1285.604 447.53 1282.791 447.53 Z M 1391.12 447.53 L 1391.12 447.53 L 1320.959 447.53 L 1320.959 447.53 C 1318.153 447.53 1316.12 446.9 1314.86 445.64 L 1314.86 445.64 L 1314.86 445.64 C 1313.6 444.387 1312.969 442.353 1312.969 439.54 L 1312.969 439.54 L 1312.969 413.56 L 1312.969 413.56 C 1312.969 410.753 1313.6 408.72 1314.86 407.46 L 1314.86 407.46 L 1314.86 407.46 C 1316.12 406.2 1318.153 405.57 1320.959 405.57 L 1320.959 405.57 L 1380.68 405.57 L 1380.68 405.57 C 1382.607 405.57 1384.05 404.943 1385.01 403.69 L 1385.01 403.69 L 1385.01 403.69 C 1385.969 402.43 1386.449 400.91 1386.449 399.13 L 1386.449 399.13 L 1386.449 399.13 C 1386.449 396.617 1385.969 394.767 1385.01 393.58 L 1385.01 393.58 L 1385.01 393.58 C 1384.05 392.4 1382.607 391.737 1380.68 391.59 L 1380.68 391.59 L 1347.38 386.92 L 1347.38 386.92 C 1337.02 385.44 1328.697 382.037 1322.41 376.71 L 1322.41 376.71 L 1322.41 376.71 C 1316.116 371.383 1312.969 362.503 1312.969 350.07 L 1312.969 350.07 L 1312.969 326.76 L 1312.969 326.76 C 1312.969 314.18 1317.04 304.523 1325.18 297.79 L 1325.18 297.79 L 1325.18 297.79 C 1333.32 291.057 1344.57 287.69 1358.93 287.69 L 1358.93 287.69 L 1421.09 287.69 L 1421.09 287.69 C 1423.896 287.69 1425.93 288.32 1427.189 289.58 L 1427.189 289.58 L 1427.189 289.58 C 1428.449 290.833 1429.08 292.867 1429.08 295.68 L 1429.08 295.68 L 1429.08 322.1 L 1429.08 322.1 C 1429.08 324.913 1428.449 326.947 1427.189 328.2 L 1427.189 328.2 L 1427.189 328.2 C 1425.93 329.46 1423.896 330.09 1421.09 330.09 L 1421.09 330.09 L 1369.36 330.09 L 1369.36 330.09 C 1367.433 330.09 1365.953 330.72 1364.92 331.98 L 1364.92 331.98 L 1364.92 331.98 C 1363.886 333.24 1363.37 334.83 1363.37 336.75 L 1363.37 336.75 L 1363.37 336.75 C 1363.37 338.677 1363.886 340.307 1364.92 341.64 L 1364.92 341.64 L 1364.92 341.64 C 1365.953 342.967 1367.433 343.707 1369.36 343.86 L 1369.36 343.86 L 1402.439 348.3 L 1402.439 348.3 C 1412.8 349.78 1421.16 353.183 1427.52 358.51 L 1427.52 358.51 L 1427.52 358.51 C 1433.886 363.837 1437.07 372.717 1437.07 385.15 L 1437.07 385.15 L 1437.07 408.46 L 1437.07 408.46 C 1437.07 421.04 1432.964 430.697 1424.75 437.43 L 1424.75 437.43 L 1424.75 437.43 C 1416.537 444.163 1405.327 447.53 1391.12 447.53 Z" style="white-space: pre; fill: rgb(187, 187, 187);"/>
  <g transform="matrix(0.719488, 0, 0, 0.719488, 1.479346, -2.709701)">
    <g id="g236">
      <path d="m 1873.1,447.11 c -0,-0.005 -36,-44.438 -56.767,-70.271 -6.948,-8.647 -12.102,-15.091 -13.915,-17.459 -2.52,-3.319 -4.314,-5.711 -5.493,-6.885 -1.24,-1.194 -1.428,-1.258 -2.363,-1.588 -0.648,-0.195 -1.811,-0.406 -3.803,-0.406 h -85.001 c -2.765,0 -5.47,-1.118 -7.423,-3.074 -1.955,-1.955 -3.076,-4.66 -3.076,-7.425 v -12.501 h -73.999 c -2.767,0 -5.47,-1.121 -7.425,-3.074 -1.955,-1.955 -3.076,-4.66 -3.076,-7.425 v -57.001 c 0,-2.765 1.121,-5.47 3.076,-7.425 1.955,-1.955 4.658,-3.074 7.425,-3.074 l 74.999,-0.002 v -1.999 h -77 c -2.765,0 -5.47,-1.119 -7.425,-3.074 -1.953,-1.955 -3.074,-4.66 -3.074,-7.425 v -54 c 0,-2.765 1.121,-5.47 3.074,-7.425 1.955,-1.956 4.66,-3.074 7.425,-3.074 l 74.998,-0.002 v -1.999 h -90 v 169.5 c 0,2.765 -1.118,5.467 -3.074,7.423 -1.955,1.955 -4.658,3.076 -7.423,3.076 h -64.501 c -2.765,0 -5.47,-1.118 -7.425,-3.074 -1.953,-1.955 -3.074,-4.66 -3.074,-7.425 l -0,-189.5 h -4.5 v 189.5 c 0,2.765 -1.118,5.467 -3.074,7.423 -1.955,1.955 -4.658,3.076 -7.423,3.076 h -157.5 c -2.767,0 -5.47,-1.118 -7.425,-3.074 -1.955,-1.955 -3.076,-4.66 -3.076,-7.425 v -135.5 c 0,-2.765 1.121,-5.47 3.076,-7.425 1.955,-1.956 4.658,-3.076 7.425,-3.076 h 81.998 v -99.5 h -101.5 v 246.5 c 0,2.765 -1.121,5.47 -3.076,7.426 -1.953,1.953 -4.658,3.074 -7.423,3.074 h -122.5 c -2.767,0 -5.47,-1.119 -7.425,-3.074 -1.956,-1.956 -3.076,-4.661 -3.076,-7.426 v -36 c 0,-2.765 1.12,-5.47 3.076,-7.425 1.955,-1.955 4.658,-3.074 7.425,-3.074 l 47.499,-0.002 V 169 h -124 v 125.5 h 45.502 c 2.765,0 5.47,1.119 7.425,3.074 1.956,1.955 3.074,4.66 3.074,7.425 v 36 c 0,2.765 -1.121,5.47 -3.076,7.426 -1.956,1.953 -4.658,3.074 -7.423,3.074 h -111.5 c -3.131,-0.015 -6.659,-0.019 -10.691,-0.915 -4.014,-0.871 -8.395,-2.879 -12.111,-6.086 -0.648,-0.564 -0.848,-0.787 -1.191,-1.128 -0.312,-0.321 -0.642,-0.668 -1.022,-1.073 -0.752,-0.805 -1.694,-1.829 -2.824,-3.076 -2.258,-2.49 -5.264,-5.846 -8.773,-9.793 -7.02,-7.889 -16.051,-18.124 -24.98,-28.272 -17.86,-20.297 -35.305,-40.239 -35.308,-40.243 -2.712,-3.098 -3.36,-7.504 -1.659,-11.252 1.7,-3.75 5.444,-6.161 9.562,-6.161 h 68.999 V 170 h -87.999 v 170 c 0,2.765 -1.121,5.467 -3.076,7.423 -1.953,1.955 -4.658,3.076 -7.423,3.076 h -64 c -2.767,0 -5.47,-1.121 -7.425,-3.076 -1.956,-1.956 -3.076,-4.658 -3.076,-7.423 V 107.96 c 0,-2.765 1.121,-5.47 3.076,-7.425 1.956,-1.953 4.658,-3.074 7.425,-3.074 h 85.497 v -4.5 h -195.42 v 4.5 h 84.001 c 2.765,0 5.47,1.121 7.423,3.074 1.955,1.956 3.076,4.661 3.076,7.425 v 232 c 0,2.765 -1.121,5.467 -3.076,7.423 -1.953,1.958 -4.658,3.076 -7.423,3.076 H 778.34 c -2.765,0 -5.467,-1.118 -7.422,-3.074 -1.956,-1.955 -3.077,-4.66 -3.077,-7.425 v -13.503 h -76 c -2.765,0 -5.469,-1.118 -7.422,-3.073 -1.956,-1.953 -3.077,-4.658 -3.077,-7.423 V 258.96 c 0,-2.768 1.121,-5.47 3.074,-7.425 1.956,-1.956 4.66,-3.074 7.425,-3.074 l 76,-0.003 v -2.498 h -76.5 c -2.765,0 -5.47,-1.121 -7.425,-3.074 -1.955,-1.956 -3.074,-4.661 -3.074,-7.426 v -53.5 c 0,-2.765 1.119,-5.47 3.074,-7.425 1.956,-1.956 4.661,-3.076 7.425,-3.076 h 77 v -3.001 h -91.5 v 171.5 c 0,2.765 -1.121,5.467 -3.076,7.423 -1.956,1.958 -4.658,3.076 -7.423,3.076 h -67 c -1.116,-0.005 -2.322,-0.027 -3.769,-0.247 -1.435,-0.209 -3.058,-0.686 -4.372,-1.282 -2.675,-1.247 -3.996,-2.313 -6.185,-3.734 -1.142,-0.783 -1.568,-1.258 -1.983,-1.666 -0.39,-0.403 -0.665,-0.729 -0.929,-1.046 -0.513,-0.628 -0.951,-1.222 -1.435,-1.897 -0.951,-1.335 -2.036,-2.962 -3.314,-4.942 -2.549,-3.95 -5.839,-9.267 -9.653,-15.548 -7.623,-12.553 -17.31,-28.923 -26.856,-45.199 -19.089,-32.545 -37.595,-64.685 -37.604,-64.696 -1.873,-3.253 -1.868,-7.249 0.009,-10.497 1.877,-3.246 5.339,-5.243 9.089,-5.243 l 81.5,-0.002 v -100 h -99.58 l -1.438,245.56 c -0.034,5.735 -4.702,10.403 -10.437,10.439 -0.03,0 -82.435,0.5 -86.062,0.5 -6.281,0.014 -11.354,-2.072 -14.664,-4.182 -3.172,-2.012 -4.93,-4.003 -5.549,-4.748 l -0.001,0.001 -76.876,-92.877 v 0.002 c -3.698,-4.468 -3.074,-11.089 1.394,-14.784 4.468,-3.697 11.086,-3.074 14.784,1.395 l 76.744,92.714 c 0.099,0.093 0.351,0.313 0.708,0.536 0.752,0.452 1.74,0.931 3.461,0.944 1.632,0 23.213,-0.126 44.249,-0.25 11.746,-0.07 23.342,-0.14 31.311,-0.188 l 1.44,-245.62 c 0.032,-5.768 4.731,-10.438 10.499,-10.438 h 120.5 c 2.765,0 5.469,1.119 7.422,3.074 1.956,1.956 3.077,4.661 3.077,7.425 v 121 c 0,2.765 -1.121,5.47 -3.077,7.425 -1.953,1.953 -4.658,3.074 -7.422,3.074 h -73.809 c 3.11,5.373 6.855,11.833 10.976,18.918 11.49,19.761 25.895,44.396 37.511,63.808 7.721,12.91 14.289,23.618 17.663,28.632 0.464,0.697 0.882,1.293 1.182,1.709 0.615,0.409 1.095,0.723 1.425,0.934 0.017,10e-4 0.034,10e-4 0.052,10e-4 2.599,-0.002 38.303,-0.003 56.499,-0.002 v -171.5 c 0,-2.765 1.121,-5.47 3.077,-7.423 1.956,-1.956 4.658,-3.077 7.425,-3.077 h 112.5 c 2.765,0 5.467,1.121 7.423,3.077 1.955,1.953 3.076,4.658 3.076,7.423 v 24.001 c 0,2.765 -1.121,5.47 -3.076,7.423 -1.956,1.955 -4.658,3.076 -7.423,3.076 h -77.002 v 32.5 h 76.5 c 2.765,0 5.47,1.121 7.425,3.076 1.956,1.955 3.077,4.658 3.077,7.425 v 23.5 c 0,2.765 -1.121,5.467 -3.077,7.423 -1.956,1.958 -4.661,3.076 -7.425,3.076 l -76,-0.002 v 36.002 h 76 c 2.765,0 5.47,1.121 7.425,3.076 1.956,1.956 3.077,4.658 3.077,7.426 v 13.497 h 43.498 v -211 h -83.998 c -2.765,0 -5.47,-1.119 -7.425,-3.074 -1.956,-1.956 -3.077,-4.661 -3.077,-7.425 V 82.445 c 0,-2.767 1.121,-5.47 3.077,-7.425 1.956,-1.956 4.661,-3.077 7.425,-3.077 h 216.5 c 2.765,0 5.47,1.121 7.425,3.077 1.956,1.955 3.074,4.658 3.074,7.425 v 25.499 c 0,2.765 -1.118,5.47 -3.074,7.425 -1.955,1.955 -4.66,3.076 -7.425,3.076 h -85.5 v 211 h 43.001 v -170 c 0,-2.765 1.121,-5.47 3.076,-7.425 1.956,-1.956 4.661,-3.076 7.425,-3.076 h 109 c 2.765,0 5.47,1.121 7.425,3.076 1.955,1.956 3.074,4.661 3.074,7.425 v 94.5 c 0,2.765 -1.121,5.468 -3.076,7.423 -1.953,1.955 -4.658,3.076 -7.423,3.076 h -56.342 c 4.75,5.417 10.236,11.667 15.898,18.108 16.278,18.516 34.146,38.746 39.771,44.816 0.504,0.547 0.932,0.995 1.141,1.211 1.172,0.931 1.792,1.164 2.972,1.467 1.218,0.291 3.188,0.41 6.059,0.398 4.831,-0.002 74.167,-0.002 101,-0.001 v -15 h -45.502 c -2.765,0 -5.47,-1.121 -7.423,-3.074 -1.956,-1.956 -3.077,-4.661 -3.077,-7.426 v -146.5 c 0,-2.767 1.121,-5.47 3.077,-7.425 1.953,-1.956 4.658,-3.076 7.423,-3.076 h 145 c 2.765,0 5.47,1.121 7.423,3.076 1.956,1.956 3.077,4.658 3.077,7.425 v 146.5 c 0,2.765 -1.121,5.47 -3.077,7.426 -1.955,1.953 -4.658,3.074 -7.423,3.074 h -47.503 v 14.999 h 101.5 v -246.5 c 0,-2.765 1.119,-5.47 3.074,-7.425 1.956,-1.956 4.661,-3.074 7.426,-3.074 h 122.5 c 2.765,0 5.47,1.119 7.425,3.074 1.956,1.956 3.074,4.661 3.074,7.425 v 120.5 c 0,2.765 -1.118,5.47 -3.074,7.423 -1.955,1.955 -4.66,3.076 -7.425,3.076 h -82.002 v 114.5 h 136.5 v -189.5 c 0,-2.765 1.121,-5.47 3.076,-7.423 1.955,-1.956 4.658,-3.077 7.425,-3.077 h 25.499 c 2.765,0 5.47,1.121 7.425,3.077 1.956,1.955 3.074,4.658 3.074,7.423 v 189.5 h 43.501 v -169.5 c 0,-2.765 1.121,-5.47 3.076,-7.425 1.956,-1.955 4.658,-3.074 7.425,-3.074 h 111 c 2.765,0 5.47,1.119 7.425,3.074 1.956,1.956 3.074,4.661 3.074,7.425 v 23 c 0,2.765 -1.118,5.47 -3.074,7.425 -1.955,1.953 -4.66,3.074 -7.425,3.074 h -75.001 v 33.001 h 77.002 c 2.765,0 5.47,1.119 7.426,3.074 1.953,1.956 3.073,4.661 3.073,7.426 v 22.999 c 0,2.765 -1.12,5.47 -3.076,7.426 -1.955,1.953 -4.658,3.074 -7.423,3.074 h -75.003 v 36 h 74.001 c 2.765,0 5.47,1.12 7.426,3.076 1.955,1.955 3.074,4.658 3.074,7.425 v 12.499 c 21.961,-10e-4 71.016,-10e-4 74.501,-10e-4 3.425,0.003 6.657,0.351 9.761,1.268 3.093,0.901 5.967,2.431 8.28,4.234 4.663,3.705 7.15,7.597 10.3,11.62 1.059,1.39 4.34,5.514 8.773,11.043 4.449,5.552 10.125,12.605 16.223,20.166 12.196,15.123 26.074,32.282 35.224,43.588 6.1,7.537 10.089,12.459 10.1,12.473 3.649,4.507 2.955,11.118 -1.55,14.769 -1.945,1.575 -4.282,2.341 -6.604,2.341 -3.2,0 -6.2,-1.32 -8.3,-3.89 z" id="path238" style="fill:#fee600"/>
      <path d="m 1881.3,456.5 c -4.638,0.008 -9.288,-2.034 -12.439,-5.928 l 10e-4,-0.002 c -0.194,-0.238 -36.054,-44.505 -56.78,-70.286 -6.963,-8.667 -12.089,-15.072 -14.009,-17.579 -2.411,-3.199 -4.271,-5.596 -4.935,-6.256 -0.133,-0.127 -0.245,-0.232 -0.335,-0.315 -0.081,-0.015 -0.188,-0.031 -0.322,-0.048 -0.353,-0.044 -0.898,-0.087 -1.686,-0.085 h -85.002 c -4.248,-0.009 -8.301,-1.684 -11.312,-4.686 -3,-3.012 -4.677,-7.062 -4.688,-11.313 v -7 h -68.498 c -4.253,-0.012 -8.301,-1.69 -11.314,-4.686 -0.063,-0.063 -0.125,-0.128 -0.188,-0.192 v 11.878 c -0.01,4.247 -1.686,8.3 -4.686,11.312 -3.012,2.997 -7.06,4.679 -11.312,4.688 h -64.501 c -4.248,-0.009 -8.301,-1.684 -11.316,-4.688 -0.519,-0.521 -0.997,-1.074 -1.435,-1.652 -0.438,0.579 -0.918,1.131 -1.437,1.652 -3.012,2.997 -7.06,4.679 -11.312,4.688 h -157.5 c -4.248,-0.009 -8.301,-1.684 -11.314,-4.686 -1.523,-1.53 -2.706,-3.328 -3.503,-5.285 -0.776,2.344 -2.091,4.497 -3.87,6.285 -3.012,2.997 -7.06,4.676 -11.312,4.686 h -122.5 c -4.249,-0.01 -8.302,-1.686 -11.313,-4.686 -2.05,-2.06 -3.482,-4.603 -4.188,-7.362 -0.705,2.761 -2.139,5.304 -4.19,7.367 -3.009,2.99 -7.057,4.671 -11.309,4.681 h -111.53 c -3.114,-0.019 -7.164,-0.002 -11.831,-1.041 -4.904,-1.071 -10.051,-3.438 -14.557,-7.312 -0.76,-0.654 -1.236,-1.156 -1.452,-1.369 l -0.039,-0.039 -0.037,-0.039 c -0.337,-0.347 -0.688,-0.716 -1.091,-1.147 -0.778,-0.83 -1.739,-1.873 -2.884,-3.137 -2.277,-2.512 -5.291,-5.876 -8.807,-9.832 -7.031,-7.901 -16.067,-18.142 -25.001,-28.295 -17.866,-20.304 -35.312,-40.248 -35.317,-40.252 -0.54,-0.618 -1.026,-1.27 -1.458,-1.949 v 77.413 c -0.009,4.252 -1.69,8.3 -4.686,11.312 -3.011,2.999 -7.062,4.679 -11.311,4.688 h -64.001 c -4.252,-0.009 -8.303,-1.69 -11.314,-4.688 -0.62,-0.623 -1.183,-1.29 -1.687,-1.993 -0.502,0.702 -1.064,1.367 -1.682,1.988 -3.016,3.009 -7.07,4.684 -11.316,4.692 h -64.74 c -4.248,-0.009 -8.3,-1.686 -11.312,-4.686 -2.998,-3.012 -4.679,-7.062 -4.688,-11.313 v -8.002 h -70.499 c -3.447,-0.008 -6.764,-1.111 -9.5,-3.129 v 11.131 c -0.009,4.252 -1.69,8.3 -4.686,11.309 -3.014,3.005 -7.066,4.682 -11.313,4.69 h -67.024 c -1.172,-0.005 -2.731,-0.03 -4.539,-0.305 -2.023,-0.303 -3.991,-0.884 -5.901,-1.739 -3.181,-1.481 -4.949,-2.876 -6.857,-4.107 l -0.06,-0.036 -0.057,-0.042 c -1.434,-0.956 -2.479,-2.024 -2.727,-2.279 l -0.05,-0.048 -0.048,-0.051 c -0.521,-0.537 -0.922,-1.014 -1.231,-1.388 -0.619,-0.759 -1.14,-1.466 -1.656,-2.186 -1.029,-1.447 -2.153,-3.133 -3.456,-5.153 -2.599,-4.025 -5.906,-9.369 -9.733,-15.674 -7.649,-12.598 -17.346,-28.982 -26.9,-45.272 -17.089,-29.136 -33.719,-57.958 -37.024,-63.69 l -0.738,126.06 c -0.066,8.758 -7.131,15.83 -15.919,15.907 h -0.046 c -0.039,0 -0.098,0 -0.176,0.002 -0.158,0 -0.39,0.003 -0.693,0.003 -0.605,0.004 -1.495,0.009 -2.626,0.016 -2.264,0.014 -5.5,0.034 -9.392,0.058 -7.786,0.046 -18.203,0.11 -28.732,0.172 -21.072,0.124 -42.539,0.25 -44.413,0.25 h -0.062 c -7.495,-0.009 -13.52,-2.477 -17.547,-5.036 -0.919,-0.583 -1.746,-1.169 -2.483,-1.738 l -0.507,0.506 -70.992,-85.766 -9.736,-11.761 c -2.46,-2.971 -3.681,-6.617 -3.676,-10.199 -0.004,-2.942 0.816,-5.892 2.413,-8.46 v -0.12 l 0.043,0.052 c 0.884,-1.404 2.001,-2.693 3.345,-3.802 2.968,-2.461 6.614,-3.681 10.197,-3.676 4.58,-0.008 9.176,1.985 12.332,5.8 l 76.291,92.168 c 0.047,0.004 0.149,0.009 0.384,0.034 1.571,0 23.194,-0.127 44.216,-0.25 9.292,-0.057 18.491,-0.111 25.875,-0.156 l 1.409,-240.19 c 0.06,-8.802 7.199,-15.898 15.999,-15.907 h 120.5 c 4.25,0.011 8.302,1.686 11.311,4.686 3,3.014 4.679,7.064 4.688,11.316 v 121 c -0.009,4.252 -1.688,8.302 -4.688,11.316 -3.011,2.998 -7.059,4.674 -11.311,4.686 h -64.264 c 1.931,3.33 4.006,6.904 6.187,10.653 11.483,19.749 25.882,44.374 37.475,63.749 7.692,12.861 14.277,23.591 17.522,28.407 0.042,0.063 0.085,0.127 0.127,0.189 5.819,-0.002 22.178,-0.004 37.027,-0.004 4.185,0 8.25,0 11.926,10e-4 v -165.95 c 0.009,-4.252 1.688,-8.302 4.688,-11.312 3.009,-3 7.06,-4.679 11.314,-4.688 h 112.5 c 4.252,0.009 8.302,1.69 11.311,4.686 3,3.011 4.679,7.062 4.688,11.313 v 24.001 c -0.009,4.252 -1.688,8.302 -4.688,11.312 -3.009,2.998 -7.059,4.679 -11.311,4.688 H 707.06 v 21.499 h 70.999 c 4.252,0.009 8.302,1.688 11.313,4.688 3,3.009 4.679,7.06 4.688,11.313 l 0.002,23.502 c -0.012,4.249 -1.693,8.3 -4.686,11.307 -3.016,3.007 -7.071,4.681 -11.318,4.689 h -70.5 v 25.003 h 70.499 c 4.252,0.01 8.302,1.688 11.316,4.688 2.995,3.009 4.679,7.06 4.688,11.313 v 8 h 32.496 v -200 h -78.496 c -4.25,-0.012 -8.3,-1.686 -11.316,-4.686 -2.998,-3.014 -4.679,-7.062 -4.688,-11.314 V 82.545 c 0.009,-4.254 1.69,-8.305 4.688,-11.313 3.013,-3 7.062,-4.679 11.316,-4.688 h 216.5 c 4.253,0.009 8.303,1.688 11.314,4.686 2.999,3.014 4.676,7.066 4.686,11.316 v 25.499 c -0.01,4.248 -1.684,8.3 -4.686,11.314 -3.014,3 -7.062,4.676 -11.314,4.688 h -80.002 v 200 h 32.001 v -164.49 c 0.011,-4.252 1.688,-8.302 4.688,-11.316 3.014,-3 7.064,-4.676 11.316,-4.686 l 109,-0.002 c 4.25,0.011 8.3,1.688 11.313,4.688 3,3.016 4.675,7.066 4.686,11.316 v 94.497 c -0.011,4.253 -1.69,8.303 -4.686,11.312 -3.014,3 -7.063,4.679 -11.313,4.688 h -44.201 c 2.55,2.903 5.198,5.919 7.887,8.977 16.256,18.489 34.173,38.773 39.686,44.723 0.298,0.322 0.57,0.611 0.773,0.825 0.069,0.05 0.116,0.081 0.142,0.097 l 0.01,0.009 c 0,-0.002 0,0 0.053,0.017 0.066,0.022 0.218,0.066 0.461,0.128 0.448,0.094 2.034,0.239 4.312,0.228 0.063,0 0.237,-0.005 0.499,-10e-4 3.367,-0.002 28.007,-0.004 53.264,-0.004 15.365,0 30.956,0 42.117,10e-4 v -3.999 h -40 c -4.254,-0.009 -8.302,-1.688 -11.313,-4.686 -2.998,-3.011 -4.679,-7.062 -4.688,-11.313 v -146.52 c 0.01,-4.254 1.689,-8.305 4.686,-11.314 3.014,-3.002 7.063,-4.679 11.315,-4.688 h 145 c 4.252,0.009 8.302,1.686 11.312,4.686 2.999,3.012 4.679,7.062 4.689,11.316 v 146.5 c -0.011,4.252 -1.69,8.303 -4.689,11.316 -3.012,2.995 -7.06,4.674 -11.312,4.683 h -42.003 v 4 h 90.503 v -241 c 0.01,-4.25 1.686,-8.3 4.686,-11.316 3.016,-3 7.065,-4.674 11.315,-4.684 l 122.5,-0.002 c 4.247,0.011 8.3,1.686 11.311,4.686 3.005,3.016 4.679,7.066 4.686,11.316 l 0,120.5 c -0.01,4.245 -1.684,8.3 -4.686,11.311 -3.014,2.998 -7.062,4.676 -11.313,4.686 h -76.504 v 103.5 h 125.5 v -184 c 0.01,-4.252 1.688,-8.302 4.686,-11.314 3.012,-2.998 7.062,-4.679 11.316,-4.688 h 25.499 c 4.252,0.009 8.302,1.69 11.311,4.688 3.003,3.014 4.679,7.064 4.688,11.314 v 184 h 32.5 v -164 c 0.01,-4.252 1.688,-8.3 4.688,-11.314 3.011,-3 7.063,-4.676 11.313,-4.686 h 111 c 4.247,0.012 8.298,1.686 11.312,4.686 3.004,3.014 4.676,7.066 4.686,11.314 l 0,23.001 c -0.012,4.248 -1.684,8.3 -4.688,11.316 -3.014,2.995 -7.06,4.672 -11.312,4.683 h -69.503 v 22.001 h 71.503 c 4.25,0.009 8.3,1.683 11.318,4.688 2.995,3.013 4.669,7.062 4.681,11.311 v 22.999 c -0.01,4.25 -1.688,8.3 -4.69,11.316 -3.009,2.995 -7.057,4.674 -11.309,4.683 h -69.504 v 25.001 h 68.502 c 4.249,0.01 8.302,1.687 11.315,4.686 2.998,3.014 4.674,7.064 4.686,11.316 v 6.997 h 69.004 c 3.791,0.003 7.572,0.388 11.295,1.486 3.818,1.119 7.257,2.949 10.165,5.209 5.417,4.313 8.274,8.82 11.251,12.596 0.964,1.264 4.275,5.428 8.69,10.935 4.444,5.544 10.119,12.596 16.212,20.153 12.194,15.118 26.07,32.275 35.219,43.58 6.055,7.481 10.016,12.368 10.105,12.479 0,0.007 0,0 -0,-0.005 -0,-0.004 -0.01,-0.009 -0,-0.002 2.39,2.947 3.568,6.539 3.566,10.063 0.01,4.64 -2.042,9.282 -5.929,12.44 -2.944,2.385 -6.527,3.566 -10.046,3.565 h -0.3 z M 1746.6,345 h 44.188 c 2.379,0.002 4.048,0.24 5.388,0.64 l 0.128,0.039 0.115,0.039 c 0.392,0.14 1.282,0.426 2.227,1.041 0.911,0.601 1.443,1.128 2.122,1.772 l 0.066,0.064 c 1.75,1.779 3.44,4.117 5.979,7.438 1.721,2.248 6.903,8.729 13.835,17.357 20.756,25.817 56.754,70.255 56.754,70.255 l -4.273,3.464 4.273,-3.464 c 0.997,1.229 2.412,1.847 3.892,1.854 1.119,-0.005 2.202,-0.355 3.135,-1.11 1.234,-1.004 1.852,-2.424 1.858,-3.896 -0.01,-1.121 -0.355,-2.199 -1.163,-3.204 -0.031,-0.036 -0.077,-0.093 -0.135,-0.167 -0.124,-0.151 -0.303,-0.374 -0.539,-0.663 -0.471,-0.582 -1.161,-1.434 -2.042,-2.522 -1.764,-2.174 -4.284,-5.289 -7.334,-9.06 -9.151,-11.307 -23.031,-28.466 -35.229,-43.594 -6.102,-7.563 -11.779,-14.621 -16.233,-20.178 -4.452,-5.553 -7.701,-9.635 -8.814,-11.094 -3.364,-4.332 -5.48,-7.607 -9.35,-10.674 -1.76,-1.378 -4.069,-2.607 -6.456,-3.296 -2.466,-0.729 -5.146,-1.041 -8.202,-1.043 -3.485,0 -52.541,0 -74.501,0.002 h -5.502 v -17.999 c 0.01,-1.284 -0.553,-2.64 -1.463,-3.536 -0.899,-0.913 -2.257,-1.476 -3.536,-1.466 h -79.501 v -47 h 80.503 c 1.277,0.009 2.635,-0.553 3.534,-1.463 0.91,-0.899 1.475,-2.257 1.466,-3.537 V 237 c 0.01,-1.279 -0.556,-2.642 -1.461,-3.536 -0.899,-0.91 -2.26,-1.473 -3.539,-1.463 h -82.503 v -44.002 h 80.503 c 1.275,0.011 2.64,-0.553 3.536,-1.463 0.908,-0.895 1.471,-2.252 1.461,-3.534 v -23.001 c 0.01,-1.28 -0.553,-2.64 -1.463,-3.537 -0.895,-0.908 -2.255,-1.473 -3.534,-1.461 h -111 c -1.284,-0.009 -2.638,0.55 -3.536,1.461 -0.911,0.899 -1.475,2.259 -1.466,3.537 v 175 h -54.502 v -195 c 0.01,-1.282 -0.551,-2.638 -1.463,-3.537 -0.897,-0.911 -2.26,-1.475 -3.534,-1.463 h -25.499 c -1.28,-0.011 -2.638,0.551 -3.539,1.466 -0.908,0.894 -1.473,2.254 -1.463,3.534 v 195 h -147.5 v -125.51 h 87.503 c 1.274,0.012 2.637,-0.553 3.538,-1.468 0.906,-0.892 1.468,-2.25 1.461,-3.529 l -0,-120.5 c 0.01,-1.282 -0.553,-2.64 -1.463,-3.539 -0.897,-0.908 -2.255,-1.47 -3.534,-1.461 h -122.5 c -1.282,-0.009 -2.642,0.553 -3.539,1.461 -0.908,0.899 -1.472,2.259 -1.463,3.539 v 252 h -112.5 v -25.999 h 53.005 c 1.277,0.009 2.638,-0.553 3.534,-1.463 0.913,-0.899 1.475,-2.26 1.465,-3.537 v -146.5 c 0.01,-1.282 -0.552,-2.635 -1.468,-3.539 -0.894,-0.911 -2.254,-1.472 -3.531,-1.463 h -145 c -1.279,-0.009 -2.638,0.553 -3.536,1.466 -0.913,0.901 -1.475,2.254 -1.464,3.537 v 146.5 c -0.011,1.277 0.553,2.638 1.466,3.537 0.895,0.908 2.257,1.472 3.534,1.463 h 51 v 26.001 h -5.5 c -11.116,-0.002 -29.523,-0.002 -47.617,-0.002 -25.59,0 -50.557,0 -53.38,0.002 h -0.066 l -0.063,-0.002 h -0.254 c -2.855,-0.014 -4.896,-0.081 -6.956,-0.546 l -0.051,-0.014 -0.039,-0.01 c -1.325,-0.254 -3.585,-1.223 -5.024,-2.486 l -0.278,-0.22 -0.254,-0.262 c -0.243,-0.252 -0.693,-0.723 -1.223,-1.298 -5.747,-6.204 -23.567,-26.384 -39.869,-44.925 -5.663,-6.442 -11.151,-12.694 -15.903,-18.113 l -8.002,-9.126 h 68.48 c 1.277,0.01 2.636,-0.555 3.532,-1.465 0.913,-0.899 1.475,-2.257 1.466,-3.535 v -94.497 c 0.01,-1.282 -0.553,-2.642 -1.464,-3.539 -0.896,-0.911 -2.257,-1.473 -3.534,-1.463 h -108.92 c -1.28,-0.009 -2.64,0.553 -3.537,1.466 -0.913,0.896 -1.475,2.257 -1.466,3.536 v 175.5 h -54 v -222.03 h 91.002 c 1.277,0.011 2.638,-0.553 3.537,-1.466 0.908,-0.894 1.473,-2.254 1.461,-3.534 V 82.463 c 0.012,-1.284 -0.551,-2.638 -1.464,-3.537 -0.896,-0.913 -2.257,-1.475 -3.534,-1.465 h -216.51 c -1.278,-0.009 -2.64,0.553 -3.539,1.465 -0.913,0.901 -1.472,2.254 -1.463,3.537 v 25.499 c -0.011,1.278 0.553,2.638 1.463,3.534 0.897,0.911 2.257,1.475 3.539,1.463 h 89.495 v 222 h -54.497 v -18.997 c 0.009,-1.282 -0.55,-2.635 -1.465,-3.536 -0.899,-0.911 -2.259,-1.475 -3.537,-1.466 h -81.5 v -47.002 l 81.5,0.002 c 1.282,0.009 2.637,-0.553 3.537,-1.463 0.915,-0.904 1.475,-2.26 1.465,-3.534 v -23.502 c 0.009,-1.279 -0.553,-2.637 -1.465,-3.536 -0.899,-0.91 -2.259,-1.475 -3.537,-1.466 h -82 v -43.497 h 82.503 c 1.277,0.009 2.635,-0.553 3.536,-1.468 0.908,-0.895 1.473,-2.255 1.463,-3.532 v -24.001 c 0.009,-1.277 -0.555,-2.638 -1.465,-3.534 -0.899,-0.913 -2.257,-1.475 -3.534,-1.466 h -112.51 c -1.28,-0.009 -2.635,0.553 -3.539,1.468 -0.911,0.895 -1.472,2.255 -1.463,3.532 v 177 l -5.504,-0.004 h -17.421 c -17.526,0 -37.175,0 -39.074,0.002 -0.016,0 -0.138,0.002 -0.365,-0.009 l -1.438,-0.083 -1.211,-0.772 c -0.372,-0.239 -0.874,-0.566 -1.511,-0.991 l -0.828,-0.553 -0.583,-0.808 c -0.342,-0.47 -0.796,-1.116 -1.287,-1.855 -3.521,-5.235 -10.07,-15.923 -17.82,-28.879 -11.637,-19.451 -26.049,-44.097 -37.544,-63.866 -4.124,-7.089 -7.871,-13.554 -10.983,-18.927 l -4.777,-8.257 h 83.347 c 1.277,0.012 2.64,-0.555 3.534,-1.463 0.913,-0.899 1.475,-2.259 1.465,-3.537 V 83.979 c 0.009,-1.277 -0.553,-2.64 -1.468,-3.539 -0.895,-0.908 -2.25,-1.47 -3.532,-1.461 h -120.5 c -2.734,-0.009 -4.993,2.236 -5,4.97 l -1.47,251.06 -5.436,0.031 c -7.97,0.049 -19.566,0.117 -31.313,0.188 -21.049,0.124 -42.587,0.25 -44.323,0.25 -2.704,0.044 -5.151,-1.007 -6.252,-1.731 l -0.037,-0.023 -0.051,-0.029 c -0.745,-0.471 -1.222,-0.881 -1.555,-1.19 l -0.25,-0.234 -76.962,-92.979 c -1.002,-1.207 -2.399,-1.806 -3.857,-1.813 -1.135,0.003 -2.234,0.365 -3.188,1.151 -1.202,0.996 -1.8,2.39 -1.81,3.854 0.004,1.112 0.353,2.19 1.103,3.127 l 76.378,92.274 0.538,0.646 c 0.399,0.475 1.697,1.986 4.275,3.623 2.562,1.636 6.64,3.331 11.648,3.323 h 0.062 c 3.578,0 85.975,-0.499 86.028,-0.499 2.708,-0.003 4.97,-2.264 4.97,-4.973 l 1.47,-251.03 h 110.54 v 111 l -86.998,0.002 c -1.792,0 -3.434,0.947 -4.33,2.5 -0.45,0.773 -0.672,1.63 -0.672,2.498 0,0.835 0.207,1.664 0.626,2.424 0.014,0.022 0.018,0.03 0.023,0.037 0.007,0.011 0.009,0.016 0.011,0.023 0.007,0.009 0.012,0.018 0.016,0.027 0.012,0.019 0.025,0.042 0.043,0.073 0.037,0.064 0.09,0.158 0.161,0.28 0.142,0.243 0.351,0.605 0.622,1.076 0.543,0.945 1.342,2.328 2.358,4.087 2.034,3.523 4.944,8.555 8.449,14.605 7.011,12.098 16.405,28.262 25.941,44.522 9.539,16.264 19.217,32.618 26.813,45.126 3.8,6.26 7.073,11.546 9.573,15.419 1.255,1.943 2.3,3.512 3.167,4.725 0.458,0.641 0.814,1.122 1.188,1.578 0.236,0.281 0.382,0.457 0.615,0.701 0.515,0.5 0.362,0.406 1.183,0.996 v 0.001 c 2.381,1.56 3.261,2.288 5.349,3.263 0.764,0.357 2.041,0.734 2.922,0.851 1.053,0.161 1.906,0.182 2.942,0.187 h 67.001 c 1.282,0.009 2.633,-0.553 3.532,-1.466 0.915,-0.901 1.477,-2.257 1.468,-3.534 v -177.02 h 102.51 v 14.001 h -82.498 c -1.28,-0.009 -2.637,0.555 -3.537,1.465 -0.91,0.897 -1.472,2.254 -1.463,3.537 v 53.499 c -0.009,1.28 0.553,2.641 1.461,3.534 0.899,0.911 2.261,1.476 3.539,1.466 h 81.998 v 13.499 l -81.498,0.003 c -1.282,-0.01 -2.64,0.55 -3.534,1.461 -0.913,0.898 -1.475,2.254 -1.465,3.539 v 56.999 c -0.009,1.277 0.553,2.638 1.468,3.536 0.892,0.906 2.25,1.468 3.532,1.459 h 81.5 v 19.004 c -0.011,1.277 0.553,2.638 1.465,3.536 0.897,0.911 2.25,1.473 3.532,1.464 h 64.503 c 1.28,0.009 2.635,-0.553 3.532,-1.466 0.913,-0.901 1.475,-2.257 1.465,-3.534 v -232 c 0.009,-1.277 -0.553,-2.637 -1.465,-3.536 -0.895,-0.908 -2.254,-1.473 -3.532,-1.463 h -89.502 v -15.5 h 206.51 v 15.5 h -90.997 c -1.28,-0.009 -2.638,0.553 -3.537,1.463 -0.911,0.899 -1.475,2.256 -1.463,3.536 v 232 c -0.009,1.277 0.55,2.633 1.463,3.534 0.901,0.913 2.257,1.475 3.537,1.466 h 64.001 c 1.277,0.009 2.635,-0.556 3.532,-1.466 0.913,-0.901 1.475,-2.257 1.465,-3.534 v -175.5 h 99 v 84.5 l -74.499,-0.003 c -1.958,0 -3.749,1.154 -4.559,2.945 -0.296,0.651 -0.443,1.346 -0.443,2.053 0.003,1.178 0.413,2.333 1.244,3.304 l 0.002,-0.001 0.007,0.009 c 0.007,0.009 0.021,0.023 0.036,0.044 0.034,0.039 0.085,0.094 0.149,0.169 0.133,0.151 0.328,0.377 0.585,0.668 0.512,0.585 1.264,1.444 2.22,2.539 1.915,2.186 4.653,5.312 7.949,9.072 6.592,7.521 15.417,17.58 24.343,27.724 8.926,10.145 17.953,20.375 24.962,28.251 3.502,3.938 6.5,7.284 8.738,9.754 1.114,1.229 2.041,2.236 2.757,3.002 0.361,0.384 0.667,0.705 0.949,0.997 0.402,0.4 0.354,0.371 0.852,0.809 2.944,2.555 6.559,4.203 9.71,4.88 3.369,0.748 6.376,0.773 9.5,0.784 h 111.5 c 1.277,0.01 2.635,-0.553 3.534,-1.463 0.912,-0.899 1.475,-2.262 1.465,-3.536 v -36.001 c 0.01,-1.282 -0.553,-2.64 -1.463,-3.536 -0.896,-0.911 -2.257,-1.473 -3.536,-1.464 h -51.002 v -136.48 h 135 v 136.5 h -53 c -1.281,-0.009 -2.637,0.553 -3.536,1.466 -0.91,0.896 -1.475,2.255 -1.466,3.534 l 0,36.001 c -0.012,1.277 0.553,2.637 1.463,3.536 0.899,0.91 2.255,1.473 3.536,1.463 h 122.5 c 1.275,0.01 2.638,-0.555 3.532,-1.463 0.913,-0.899 1.475,-2.262 1.466,-3.536 v -252 h 112.5 v 110.5 h -87.497 c -1.28,-0.009 -2.636,0.553 -3.534,1.463 -0.913,0.899 -1.476,2.261 -1.466,3.539 v 135.5 c -0.012,1.277 0.553,2.638 1.466,3.536 0.896,0.911 2.249,1.473 3.534,1.464 h 157.5 c 1.275,0.009 2.633,-0.553 3.532,-1.466 0.912,-0.899 1.472,-2.252 1.463,-3.534 v -195 h 15.502 l 0,195 c -0.01,1.277 0.555,2.64 1.466,3.536 0.894,0.911 2.252,1.473 3.534,1.464 h 64.501 c 1.275,0.009 2.633,-0.553 3.532,-1.466 0.912,-0.899 1.472,-2.252 1.463,-3.534 v -175 h 101 v 13 l -80.496,0.002 c -1.282,-0.009 -2.64,0.553 -3.534,1.461 -0.911,0.899 -1.475,2.261 -1.466,3.539 v 53.999 c -0.01,1.277 0.555,2.64 1.463,3.534 0.897,0.911 2.257,1.475 3.537,1.466 h 82.498 v 12.999 h -80.498 c -1.282,-0.009 -2.638,0.553 -3.534,1.464 -0.913,0.898 -1.478,2.259 -1.466,3.536 v 57.002 c -0.012,1.275 0.553,2.638 1.463,3.532 0.899,0.912 2.257,1.475 3.537,1.465 h 79.5 v 18.002 c -0.012,1.277 0.553,2.638 1.468,3.539 0.89,0.908 2.248,1.47 3.53,1.461 h 40.8 z m -623.8,-56 h 40.003 c 4.249,0.009 8.3,1.686 11.313,4.684 2.051,2.06 3.481,4.604 4.186,7.363 0.705,-2.761 2.138,-5.304 4.188,-7.361 3.012,-3 7.064,-4.677 11.313,-4.686 l 41.998,-0.002 v -114.49 h -113 v 114.5 -0.004 z M 958.56,257.34 c -0.01,-0.014 -0.017,-0.019 -0.019,-0.022 l -0.012,-0.014 -0.004,-0.005 -10e-4,0.001 c 0.01,0.02 0.02,0.03 0.03,0.04 z m -9.78,-11.92 c 2.908,-4.575 7.979,-7.409 13.501,-7.413 h 63.497 V 175.51 H 948.78 v 69.905 l -0.02,0.005 z m 383.52,-48.65 c 0.718,-1.299 1.618,-2.503 2.687,-3.577 3.012,-2.998 7.062,-4.678 11.314,-4.686 l 76.498,-0.002 v -88.498 h -90.5 v 96.77 z M 499.12,195.9 c 2.97,-4.296 7.878,-6.896 13.157,-6.896 l 75.999,-0.002 v -89 h -88.594 l -0.57,95.9 z M 855.78,98.683 c 0.042,-0.06 0.086,-0.119 0.129,-0.178 h -0.259 c 0.05,0.058 0.09,0.118 0.13,0.178 z" id="path240"/>
    </g>
    <g id="g242">
      <path d="m 1507.4,102.43 -35.499,-35.501 c -1.986,-1.983 -3.097,-4.694 -3.075,-7.5 0.021,-2.805 1.169,-5.5 3.182,-7.456 l 35.501,-34.5 c 4.135,-4.019 10.746,-3.948 14.793,0.159 l 34.501,35.002 c 4.026,4.083 4.026,10.656 0,14.741 l -34.501,35 c -1.968,2 -4.634,3.119 -7.439,3.13 h -0.033 c -2.9,-0.01 -5.6,-1.11 -7.5,-3.08 z m -13.2,-42.82 20.49,20.491 19.809,-20.098 -19.914,-20.203 -20.4,19.81 z" id="path244" style="fill:#fee600"/>
      <path d="m 1514.8,111 c -4.241,0.002 -8.318,-1.684 -11.318,-4.686 l 3.888,-3.89 -3.888,3.888 -35.5,-35.49 c -2.999,-3 -4.683,-7.06 -4.689,-11.296 -0,-0.013 -0,-0.051 0,-0.106 0,-0.051 0,-0.118 0.01,-0.202 0.077,-4.219 1.813,-8.238 4.844,-11.187 l 35.502,-34.5 c 3.094,-3.01 7.146,-4.531 11.147,-4.524 4.115,-0.006 8.277,1.6 11.396,4.765 l 34.501,35.002 c 3.061,3.101 4.607,7.192 4.602,11.232 0.01,4.04 -1.543,8.129 -4.602,11.232 l -34.498,34.996 c -2.99,3.043 -7.082,4.761 -11.358,4.774 h 0.1 z m 0,-11 h 0.012 c 1.353,-0.011 2.595,-0.533 3.542,-1.492 l 34.501,-34.998 c 0.966,-0.986 1.432,-2.226 1.437,-3.512 -0,-1.291 -0.471,-2.528 -1.437,-3.51 l -34.498,-35 c -0.992,-1.003 -2.252,-1.483 -3.563,-1.49 -1.272,0.004 -2.499,0.46 -3.48,1.412 l -35.502,34.5 c -0.952,0.921 -1.507,2.224 -1.516,3.552 l -10e-4,0.141 c 0.026,1.275 0.556,2.524 1.466,3.428 l 35.497,35.5 c 1,0.955 2.2,1.469 3.6,1.469 z m -24.5,-36.502 -3.945,-3.945 28.301,-27.503 27.555,27.952 -27.503,27.905 -24.5,-24.409 z m 24.4,8.796 12.115,-12.292 -12.274,-12.452 -12.468,12.116 12.7,12.628 z" id="path246"/>
    </g>
  </g>
</svg>