<?xml version="1.0" encoding="utf-8"?>
<svg id="Layer_2" width="1606.03" height="447.53" viewBox="0 0 1577.2900390625 447.5299987792969" xmlns="http://www.w3.org/2000/svg">
  <path d="M 74.52 309.83 L 74.52 309.83 L 61.83 350.87 L 104.22 350.87 L 91.53 309.83 L 91.53 309.83 C 90.81 308.21 90.047 307.04 89.24 306.32 L 89.24 306.32 L 89.24 306.32 C 88.427 305.6 87.48 305.24 86.4 305.24 L 86.4 305.24 L 79.65 305.24 L 79.65 305.24 C 78.57 305.24 77.627 305.6 76.82 306.32 L 76.82 306.32 L 76.82 306.32 C 76.007 307.04 75.24 308.21 74.52 309.83 Z M 59.13 400.01 L 59.13 437.81 L 59.13 437.81 C 59.13 441.23 58.367 443.707 56.84 445.24 L 56.84 445.24 L 56.84 445.24 C 55.307 446.767 52.83 447.53 49.41 447.53 L 49.41 447.53 L 9.72 447.53 L 9.72 447.53 C 6.3 447.53 3.827 446.767 2.3 445.24 L 2.3 445.24 L 2.3 445.24 C 0.767 443.707 0 441.23 0 437.81 L 0 437.81 L 0 366.53 L 0 366.53 C 0 361.13 0.853 354.92 2.56 347.9 L 2.56 347.9 L 2.56 347.9 C 4.273 340.88 6.93 332.69 10.53 323.33 L 10.53 323.33 L 34.02 262.04 L 34.02 262.04 C 35.1 258.98 36.767 256.73 39.02 255.29 L 39.02 255.29 L 39.02 255.29 C 41.267 253.85 44.19 253.13 47.79 253.13 L 47.79 253.13 L 120.42 253.13 L 120.42 253.13 C 123.84 253.13 126.673 253.85 128.92 255.29 L 128.92 255.29 L 128.92 255.29 C 131.173 256.73 132.84 258.98 133.92 262.04 L 133.92 262.04 L 157.41 323.33 L 157.41 323.33 C 161.01 332.69 163.667 340.88 165.38 347.9 L 165.38 347.9 L 165.38 347.9 C 167.087 354.92 167.94 361.13 167.94 366.53 L 167.94 366.53 L 167.94 437.81 L 167.94 437.81 C 167.94 441.23 167.177 443.707 165.65 445.24 L 165.65 445.24 L 165.65 445.24 C 164.117 446.767 161.64 447.53 158.22 447.53 L 158.22 447.53 L 117.45 447.53 L 117.45 447.53 C 113.85 447.53 111.197 446.767 109.49 445.24 L 109.49 445.24 L 109.49 445.24 C 107.777 443.707 106.92 441.23 106.92 437.81 L 106.92 437.81 L 106.92 400.01 L 59.13 400.01 Z M 348.293 447.53 L 348.293 447.53 L 210.863 447.53 L 210.863 447.53 C 207.443 447.53 204.969 446.767 203.443 445.24 L 203.443 445.24 L 203.443 445.24 C 201.909 443.707 201.143 441.23 201.143 437.81 L 201.143 437.81 L 201.143 262.85 L 201.143 262.85 C 201.143 259.43 201.909 256.953 203.443 255.42 L 203.443 255.42 L 203.443 255.42 C 204.969 253.893 207.443 253.13 210.863 253.13 L 210.863 253.13 L 252.713 253.13 L 252.713 253.13 C 256.133 253.13 258.609 253.893 260.143 255.42 L 260.143 255.42 L 260.143 255.42 C 261.669 256.953 262.433 259.43 262.433 262.85 L 262.433 262.85 L 262.433 396.5 L 299.423 396.5 L 299.423 352.76 L 299.423 352.76 C 299.423 349.34 300.189 346.863 301.723 345.33 L 301.723 345.33 L 301.723 345.33 C 303.249 343.803 305.723 343.04 309.143 343.04 L 309.143 343.04 L 348.293 343.04 L 348.293 343.04 C 351.713 343.04 354.189 343.803 355.723 345.33 L 355.723 345.33 L 355.723 345.33 C 357.249 346.863 358.013 349.34 358.013 352.76 L 358.013 352.76 L 358.013 437.81 L 358.013 437.81 C 358.013 441.23 357.249 443.707 355.723 445.24 L 355.723 445.24 L 355.723 445.24 C 354.189 446.767 351.713 447.53 348.293 447.53 Z M 535.936 447.53 L 535.936 447.53 L 398.506 447.53 L 398.506 447.53 C 395.086 447.53 392.612 446.767 391.086 445.24 L 391.086 445.24 L 391.086 445.24 C 389.552 443.707 388.786 441.23 388.786 437.81 L 388.786 437.81 L 388.786 262.85 L 388.786 262.85 C 388.786 259.43 389.552 256.953 391.086 255.42 L 391.086 255.42 L 391.086 255.42 C 392.612 253.893 395.086 253.13 398.506 253.13 L 398.506 253.13 L 440.356 253.13 L 440.356 253.13 C 443.776 253.13 446.252 253.893 447.786 255.42 L 447.786 255.42 L 447.786 255.42 C 449.312 256.953 450.076 259.43 450.076 262.85 L 450.076 262.85 L 450.076 396.5 L 487.066 396.5 L 487.066 352.76 L 487.066 352.76 C 487.066 349.34 487.832 346.863 489.366 345.33 L 489.366 345.33 L 489.366 345.33 C 490.892 343.803 493.366 343.04 496.786 343.04 L 496.786 343.04 L 535.936 343.04 L 535.936 343.04 C 539.356 343.04 541.832 343.803 543.366 345.33 L 543.366 345.33 L 543.366 345.33 C 544.892 346.863 545.656 349.34 545.656 352.76 L 545.656 352.76 L 545.656 437.81 L 545.656 437.81 C 545.656 441.23 544.892 443.707 543.366 445.24 L 543.366 445.24 L 543.366 445.24 C 541.832 446.767 539.356 447.53 535.936 447.53 Z M 785.677 447.53 L 785.677 447.53 L 700.627 447.53 L 700.627 447.53 C 678.127 447.53 661.433 443.03 650.547 434.03 L 650.547 434.03 L 650.547 434.03 C 639.653 425.03 634.207 411.17 634.207 392.45 L 634.207 392.45 L 634.207 308.21 L 634.207 308.21 C 634.207 289.49 639.653 275.63 650.547 266.63 L 650.547 266.63 L 650.547 266.63 C 661.433 257.63 678.127 253.13 700.627 253.13 L 700.627 253.13 L 768.127 253.13 L 768.127 253.13 C 771.547 253.13 774.023 253.893 775.557 255.42 L 775.557 255.42 L 775.557 255.42 C 777.083 256.953 777.847 259.43 777.847 262.85 L 777.847 262.85 L 777.847 295.52 L 777.847 295.52 C 777.847 298.94 777.083 301.413 775.557 302.94 L 775.557 302.94 L 775.557 302.94 C 774.023 304.473 771.547 305.24 768.127 305.24 L 768.127 305.24 L 711.967 305.24 L 711.967 305.24 C 706.387 305.24 702.247 306.363 699.547 308.61 L 699.547 308.61 L 699.547 308.61 C 696.847 310.863 695.497 314.24 695.497 318.74 L 695.497 318.74 L 695.497 383.27 L 695.497 383.27 C 695.497 387.77 696.533 391.1 698.607 393.26 L 698.607 393.26 L 698.607 393.26 C 700.673 395.42 703.777 396.5 707.917 396.5 L 707.917 396.5 L 734.107 396.5 L 734.107 354.38 L 734.107 354.38 C 734.107 350.96 734.873 348.483 736.407 346.95 L 736.407 346.95 L 736.407 346.95 C 737.933 345.423 740.407 344.66 743.827 344.66 L 743.827 344.66 L 785.677 344.66 L 785.677 344.66 C 789.097 344.66 791.573 345.423 793.107 346.95 L 793.107 346.95 L 793.107 346.95 C 794.633 348.483 795.397 350.96 795.397 354.38 L 795.397 354.38 L 795.397 437.81 L 795.397 437.81 C 795.397 441.23 794.633 443.707 793.107 445.24 L 793.107 445.24 L 793.107 445.24 C 791.573 446.767 789.097 447.53 785.677 447.53 Z M 898.8 309.83 L 898.8 309.83 L 886.11 350.87 L 928.5 350.87 L 915.81 309.83 L 915.81 309.83 C 915.09 308.21 914.326 307.04 913.52 306.32 L 913.52 306.32 L 913.52 306.32 C 912.706 305.6 911.76 305.24 910.68 305.24 L 910.68 305.24 L 903.93 305.24 L 903.93 305.24 C 902.85 305.24 901.906 305.6 901.1 306.32 L 901.1 306.32 L 901.1 306.32 C 900.286 307.04 899.52 308.21 898.8 309.83 Z M 883.41 400.01 L 883.41 437.81 L 883.41 437.81 C 883.41 441.23 882.646 443.707 881.12 445.24 L 881.12 445.24 L 881.12 445.24 C 879.586 446.767 877.11 447.53 873.69 447.53 L 873.69 447.53 L 834 447.53 L 834 447.53 C 830.58 447.53 828.106 446.767 826.58 445.24 L 826.58 445.24 L 826.58 445.24 C 825.046 443.707 824.28 441.23 824.28 437.81 L 824.28 437.81 L 824.28 366.53 L 824.28 366.53 C 824.28 361.13 825.133 354.92 826.84 347.9 L 826.84 347.9 L 826.84 347.9 C 828.553 340.88 831.21 332.69 834.81 323.33 L 834.81 323.33 L 858.3 262.04 L 858.3 262.04 C 859.38 258.98 861.046 256.73 863.3 255.29 L 863.3 255.29 L 863.3 255.29 C 865.546 253.85 868.47 253.13 872.07 253.13 L 872.07 253.13 L 944.7 253.13 L 944.7 253.13 C 948.12 253.13 950.953 253.85 953.2 255.29 L 953.2 255.29 L 953.2 255.29 C 955.453 256.73 957.12 258.98 958.2 262.04 L 958.2 262.04 L 981.69 323.33 L 981.69 323.33 C 985.29 332.69 987.946 340.88 989.66 347.9 L 989.66 347.9 L 989.66 347.9 C 991.366 354.92 992.22 361.13 992.22 366.53 L 992.22 366.53 L 992.22 437.81 L 992.22 437.81 C 992.22 441.23 991.456 443.707 989.93 445.24 L 989.93 445.24 L 989.93 445.24 C 988.396 446.767 985.92 447.53 982.5 447.53 L 982.5 447.53 L 941.73 447.53 L 941.73 447.53 C 938.13 447.53 935.476 446.767 933.77 445.24 L 933.77 445.24 L 933.77 445.24 C 932.056 443.707 931.2 441.23 931.2 437.81 L 931.2 437.81 L 931.2 400.01 L 883.41 400.01 Z M 1075.372 447.53 L 1075.372 447.53 L 1035.142 447.53 L 1035.142 447.53 C 1031.722 447.53 1029.249 446.767 1027.722 445.24 L 1027.722 445.24 L 1027.722 445.24 C 1026.189 443.707 1025.422 441.23 1025.422 437.81 L 1025.422 437.81 L 1025.422 262.85 L 1025.422 262.85 C 1025.422 259.43 1026.189 256.953 1027.722 255.42 L 1027.722 255.42 L 1027.722 255.42 C 1029.249 253.893 1031.722 253.13 1035.142 253.13 L 1035.142 253.13 L 1078.612 253.13 L 1078.612 253.13 C 1081.492 253.13 1083.879 253.76 1085.772 255.02 L 1085.772 255.02 L 1085.772 255.02 C 1087.659 256.28 1089.412 258.35 1091.032 261.23 L 1091.032 261.23 L 1115.332 305.24 L 1115.332 305.24 C 1116.232 306.86 1116.999 308.03 1117.632 308.75 L 1117.632 308.75 L 1117.632 308.75 C 1118.259 309.47 1119.112 309.83 1120.192 309.83 L 1120.192 309.83 L 1122.622 309.83 L 1122.622 309.83 C 1123.702 309.83 1124.559 309.47 1125.192 308.75 L 1125.192 308.75 L 1125.192 308.75 C 1125.819 308.03 1126.582 306.86 1127.482 305.24 L 1127.482 305.24 L 1151.512 261.23 L 1151.512 261.23 C 1153.132 258.35 1154.889 256.28 1156.782 255.02 L 1156.782 255.02 L 1156.782 255.02 C 1158.669 253.76 1161.052 253.13 1163.932 253.13 L 1163.932 253.13 L 1207.672 253.13 L 1207.672 253.13 C 1211.092 253.13 1213.569 253.893 1215.102 255.42 L 1215.102 255.42 L 1215.102 255.42 C 1216.629 256.953 1217.392 259.43 1217.392 262.85 L 1217.392 262.85 L 1217.392 437.81 L 1217.392 437.81 C 1217.392 441.23 1216.629 443.707 1215.102 445.24 L 1215.102 445.24 L 1215.102 445.24 C 1213.569 446.767 1211.092 447.53 1207.672 447.53 L 1207.672 447.53 L 1166.092 447.53 L 1166.092 447.53 C 1162.672 447.53 1160.199 446.767 1158.672 445.24 L 1158.672 445.24 L 1158.672 445.24 C 1157.139 443.707 1156.372 441.23 1156.372 437.81 L 1156.372 437.81 L 1156.372 342.77 L 1140.442 372.2 L 1140.442 372.2 C 1138.822 375.26 1136.889 377.463 1134.642 378.81 L 1134.642 378.81 L 1134.642 378.81 C 1132.389 380.163 1129.552 380.84 1126.132 380.84 L 1126.132 380.84 L 1115.332 380.84 L 1115.332 380.84 C 1111.912 380.84 1109.079 380.163 1106.832 378.81 L 1106.832 378.81 L 1106.832 378.81 C 1104.579 377.463 1102.642 375.26 1101.022 372.2 L 1101.022 372.2 L 1085.092 342.77 L 1085.092 437.81 L 1085.092 437.81 C 1085.092 441.23 1084.329 443.707 1082.802 445.24 L 1082.802 445.24 L 1082.802 445.24 C 1081.269 446.767 1078.792 447.53 1075.372 447.53 Z M 1389.644 447.53 L 1389.644 447.53 L 1264.364 447.53 L 1264.364 447.53 C 1260.944 447.53 1258.471 446.767 1256.944 445.24 L 1256.944 445.24 L 1256.944 445.24 C 1255.411 443.707 1254.644 441.23 1254.644 437.81 L 1254.644 437.81 L 1254.644 262.85 L 1254.644 262.85 C 1254.644 259.43 1255.411 256.953 1256.944 255.42 L 1256.944 255.42 L 1256.944 255.42 C 1258.471 253.893 1260.944 253.13 1264.364 253.13 L 1264.364 253.13 L 1389.644 253.13 L 1389.644 253.13 C 1393.064 253.13 1395.54 253.893 1397.074 255.42 L 1397.074 255.42 L 1397.074 255.42 C 1398.601 256.953 1399.364 259.43 1399.364 262.85 L 1399.364 262.85 L 1399.364 294.44 L 1399.364 294.44 C 1399.364 297.86 1398.601 300.333 1397.074 301.86 L 1397.074 301.86 L 1397.074 301.86 C 1395.54 303.393 1393.064 304.16 1389.644 304.16 L 1389.644 304.16 L 1315.124 304.16 L 1315.124 324.95 L 1367.774 324.95 L 1367.774 324.95 C 1371.194 324.95 1373.67 325.713 1375.204 327.24 L 1375.204 327.24 L 1375.204 327.24 C 1376.731 328.773 1377.494 331.25 1377.494 334.67 L 1377.494 334.67 L 1377.494 363.56 L 1377.494 363.56 C 1377.494 366.98 1376.731 369.453 1375.204 370.98 L 1375.204 370.98 L 1375.204 370.98 C 1373.67 372.513 1371.194 373.28 1367.774 373.28 L 1367.774 373.28 L 1315.124 373.28 L 1315.124 396.5 L 1389.644 396.5 L 1389.644 396.5 C 1393.064 396.5 1395.54 397.263 1397.074 398.79 L 1397.074 398.79 L 1397.074 398.79 C 1398.601 400.323 1399.364 402.8 1399.364 406.22 L 1399.364 406.22 L 1399.364 437.81 L 1399.364 437.81 C 1399.364 441.23 1398.601 443.707 1397.074 445.24 L 1397.074 445.24 L 1397.074 445.24 C 1395.54 446.767 1393.064 447.53 1389.644 447.53 Z M 1521.397 447.53 L 1521.397 447.53 L 1436.077 447.53 L 1436.077 447.53 C 1432.657 447.53 1430.184 446.767 1428.657 445.24 L 1428.657 445.24 L 1428.657 445.24 C 1427.124 443.707 1426.357 441.23 1426.357 437.81 L 1426.357 437.81 L 1426.357 406.22 L 1426.357 406.22 C 1426.357 402.8 1427.124 400.323 1428.657 398.79 L 1428.657 398.79 L 1428.657 398.79 C 1430.184 397.263 1432.657 396.5 1436.077 396.5 L 1436.077 396.5 L 1508.707 396.5 L 1508.707 396.5 C 1511.047 396.5 1512.804 395.733 1513.977 394.2 L 1513.977 394.2 L 1513.977 394.2 C 1515.144 392.673 1515.727 390.83 1515.727 388.67 L 1515.727 388.67 L 1515.727 388.67 C 1515.727 385.61 1515.144 383.36 1513.977 381.92 L 1513.977 381.92 L 1513.977 381.92 C 1512.804 380.48 1511.047 379.67 1508.707 379.49 L 1508.707 379.49 L 1468.207 373.82 L 1468.207 373.82 C 1455.607 372.02 1445.484 367.88 1437.837 361.4 L 1437.837 361.4 L 1437.837 361.4 C 1430.184 354.92 1426.357 344.12 1426.357 329 L 1426.357 329 L 1426.357 300.65 L 1426.357 300.65 C 1426.357 285.35 1431.307 273.603 1441.207 265.41 L 1441.207 265.41 L 1441.207 265.41 C 1451.107 257.223 1464.787 253.13 1482.247 253.13 L 1482.247 253.13 L 1557.847 253.13 L 1557.847 253.13 C 1561.267 253.13 1563.744 253.893 1565.277 255.42 L 1565.277 255.42 L 1565.277 255.42 C 1566.804 256.953 1567.567 259.43 1567.567 262.85 L 1567.567 262.85 L 1567.567 294.98 L 1567.567 294.98 C 1567.567 298.4 1566.804 300.873 1565.277 302.4 L 1565.277 302.4 L 1565.277 302.4 C 1563.744 303.933 1561.267 304.7 1557.847 304.7 L 1557.847 304.7 L 1494.937 304.7 L 1494.937 304.7 C 1492.597 304.7 1490.797 305.467 1489.537 307 L 1489.537 307 L 1489.537 307 C 1488.277 308.527 1487.647 310.46 1487.647 312.8 L 1487.647 312.8 L 1487.647 312.8 C 1487.647 315.14 1488.277 317.12 1489.537 318.74 L 1489.537 318.74 L 1489.537 318.74 C 1490.797 320.36 1492.597 321.26 1494.937 321.44 L 1494.937 321.44 L 1535.167 326.84 L 1535.167 326.84 C 1547.767 328.64 1557.937 332.78 1565.677 339.26 L 1565.677 339.26 L 1565.677 339.26 C 1573.417 345.74 1577.287 356.54 1577.287 371.66 L 1577.287 371.66 L 1577.287 400.01 L 1577.287 400.01 C 1577.287 415.31 1572.294 427.053 1562.307 435.24 L 1562.307 435.24 L 1562.307 435.24 C 1552.314 443.433 1538.677 447.53 1521.397 447.53 Z" style="white-space: pre; fill: rgb(238, 238, 238);"/>
  <g transform="matrix(0.719488, 0, 0, 0.719488, 1.479346, -2.709701)">
    <g id="g236">
      <path d="m 1873.1,447.11 c -0,-0.005 -36,-44.438 -56.767,-70.271 -6.948,-8.647 -12.102,-15.091 -13.915,-17.459 -2.52,-3.319 -4.314,-5.711 -5.493,-6.885 -1.24,-1.194 -1.428,-1.258 -2.363,-1.588 -0.648,-0.195 -1.811,-0.406 -3.803,-0.406 h -85.001 c -2.765,0 -5.47,-1.118 -7.423,-3.074 -1.955,-1.955 -3.076,-4.66 -3.076,-7.425 v -12.501 h -73.999 c -2.767,0 -5.47,-1.121 -7.425,-3.074 -1.955,-1.955 -3.076,-4.66 -3.076,-7.425 v -57.001 c 0,-2.765 1.121,-5.47 3.076,-7.425 1.955,-1.955 4.658,-3.074 7.425,-3.074 l 74.999,-0.002 v -1.999 h -77 c -2.765,0 -5.47,-1.119 -7.425,-3.074 -1.953,-1.955 -3.074,-4.66 -3.074,-7.425 v -54 c 0,-2.765 1.121,-5.47 3.074,-7.425 1.955,-1.956 4.66,-3.074 7.425,-3.074 l 74.998,-0.002 v -1.999 h -90 v 169.5 c 0,2.765 -1.118,5.467 -3.074,7.423 -1.955,1.955 -4.658,3.076 -7.423,3.076 h -64.501 c -2.765,0 -5.47,-1.118 -7.425,-3.074 -1.953,-1.955 -3.074,-4.66 -3.074,-7.425 l -0,-189.5 h -4.5 v 189.5 c 0,2.765 -1.118,5.467 -3.074,7.423 -1.955,1.955 -4.658,3.076 -7.423,3.076 h -157.5 c -2.767,0 -5.47,-1.118 -7.425,-3.074 -1.955,-1.955 -3.076,-4.66 -3.076,-7.425 v -135.5 c 0,-2.765 1.121,-5.47 3.076,-7.425 1.955,-1.956 4.658,-3.076 7.425,-3.076 h 81.998 v -99.5 h -101.5 v 246.5 c 0,2.765 -1.121,5.47 -3.076,7.426 -1.953,1.953 -4.658,3.074 -7.423,3.074 h -122.5 c -2.767,0 -5.47,-1.119 -7.425,-3.074 -1.956,-1.956 -3.076,-4.661 -3.076,-7.426 v -36 c 0,-2.765 1.12,-5.47 3.076,-7.425 1.955,-1.955 4.658,-3.074 7.425,-3.074 l 47.499,-0.002 V 169 h -124 v 125.5 h 45.502 c 2.765,0 5.47,1.119 7.425,3.074 1.956,1.955 3.074,4.66 3.074,7.425 v 36 c 0,2.765 -1.121,5.47 -3.076,7.426 -1.956,1.953 -4.658,3.074 -7.423,3.074 h -111.5 c -3.131,-0.015 -6.659,-0.019 -10.691,-0.915 -4.014,-0.871 -8.395,-2.879 -12.111,-6.086 -0.648,-0.564 -0.848,-0.787 -1.191,-1.128 -0.312,-0.321 -0.642,-0.668 -1.022,-1.073 -0.752,-0.805 -1.694,-1.829 -2.824,-3.076 -2.258,-2.49 -5.264,-5.846 -8.773,-9.793 -7.02,-7.889 -16.051,-18.124 -24.98,-28.272 -17.86,-20.297 -35.305,-40.239 -35.308,-40.243 -2.712,-3.098 -3.36,-7.504 -1.659,-11.252 1.7,-3.75 5.444,-6.161 9.562,-6.161 h 68.999 V 170 h -87.999 v 170 c 0,2.765 -1.121,5.467 -3.076,7.423 -1.953,1.955 -4.658,3.076 -7.423,3.076 h -64 c -2.767,0 -5.47,-1.121 -7.425,-3.076 -1.956,-1.956 -3.076,-4.658 -3.076,-7.423 V 107.96 c 0,-2.765 1.121,-5.47 3.076,-7.425 1.956,-1.953 4.658,-3.074 7.425,-3.074 h 85.497 v -4.5 h -195.42 v 4.5 h 84.001 c 2.765,0 5.47,1.121 7.423,3.074 1.955,1.956 3.076,4.661 3.076,7.425 v 232 c 0,2.765 -1.121,5.467 -3.076,7.423 -1.953,1.958 -4.658,3.076 -7.423,3.076 H 778.34 c -2.765,0 -5.467,-1.118 -7.422,-3.074 -1.956,-1.955 -3.077,-4.66 -3.077,-7.425 v -13.503 h -76 c -2.765,0 -5.469,-1.118 -7.422,-3.073 -1.956,-1.953 -3.077,-4.658 -3.077,-7.423 V 258.96 c 0,-2.768 1.121,-5.47 3.074,-7.425 1.956,-1.956 4.66,-3.074 7.425,-3.074 l 76,-0.003 v -2.498 h -76.5 c -2.765,0 -5.47,-1.121 -7.425,-3.074 -1.955,-1.956 -3.074,-4.661 -3.074,-7.426 v -53.5 c 0,-2.765 1.119,-5.47 3.074,-7.425 1.956,-1.956 4.661,-3.076 7.425,-3.076 h 77 v -3.001 h -91.5 v 171.5 c 0,2.765 -1.121,5.467 -3.076,7.423 -1.956,1.958 -4.658,3.076 -7.423,3.076 h -67 c -1.116,-0.005 -2.322,-0.027 -3.769,-0.247 -1.435,-0.209 -3.058,-0.686 -4.372,-1.282 -2.675,-1.247 -3.996,-2.313 -6.185,-3.734 -1.142,-0.783 -1.568,-1.258 -1.983,-1.666 -0.39,-0.403 -0.665,-0.729 -0.929,-1.046 -0.513,-0.628 -0.951,-1.222 -1.435,-1.897 -0.951,-1.335 -2.036,-2.962 -3.314,-4.942 -2.549,-3.95 -5.839,-9.267 -9.653,-15.548 -7.623,-12.553 -17.31,-28.923 -26.856,-45.199 -19.089,-32.545 -37.595,-64.685 -37.604,-64.696 -1.873,-3.253 -1.868,-7.249 0.009,-10.497 1.877,-3.246 5.339,-5.243 9.089,-5.243 l 81.5,-0.002 v -100 h -99.58 l -1.438,245.56 c -0.034,5.735 -4.702,10.403 -10.437,10.439 -0.03,0 -82.435,0.5 -86.062,0.5 -6.281,0.014 -11.354,-2.072 -14.664,-4.182 -3.172,-2.012 -4.93,-4.003 -5.549,-4.748 l -0.001,0.001 -76.876,-92.877 v 0.002 c -3.698,-4.468 -3.074,-11.089 1.394,-14.784 4.468,-3.697 11.086,-3.074 14.784,1.395 l 76.744,92.714 c 0.099,0.093 0.351,0.313 0.708,0.536 0.752,0.452 1.74,0.931 3.461,0.944 1.632,0 23.213,-0.126 44.249,-0.25 11.746,-0.07 23.342,-0.14 31.311,-0.188 l 1.44,-245.62 c 0.032,-5.768 4.731,-10.438 10.499,-10.438 h 120.5 c 2.765,0 5.469,1.119 7.422,3.074 1.956,1.956 3.077,4.661 3.077,7.425 v 121 c 0,2.765 -1.121,5.47 -3.077,7.425 -1.953,1.953 -4.658,3.074 -7.422,3.074 h -73.809 c 3.11,5.373 6.855,11.833 10.976,18.918 11.49,19.761 25.895,44.396 37.511,63.808 7.721,12.91 14.289,23.618 17.663,28.632 0.464,0.697 0.882,1.293 1.182,1.709 0.615,0.409 1.095,0.723 1.425,0.934 0.017,10e-4 0.034,10e-4 0.052,10e-4 2.599,-0.002 38.303,-0.003 56.499,-0.002 v -171.5 c 0,-2.765 1.121,-5.47 3.077,-7.423 1.956,-1.956 4.658,-3.077 7.425,-3.077 h 112.5 c 2.765,0 5.467,1.121 7.423,3.077 1.955,1.953 3.076,4.658 3.076,7.423 v 24.001 c 0,2.765 -1.121,5.47 -3.076,7.423 -1.956,1.955 -4.658,3.076 -7.423,3.076 h -77.002 v 32.5 h 76.5 c 2.765,0 5.47,1.121 7.425,3.076 1.956,1.955 3.077,4.658 3.077,7.425 v 23.5 c 0,2.765 -1.121,5.467 -3.077,7.423 -1.956,1.958 -4.661,3.076 -7.425,3.076 l -76,-0.002 v 36.002 h 76 c 2.765,0 5.47,1.121 7.425,3.076 1.956,1.956 3.077,4.658 3.077,7.426 v 13.497 h 43.498 v -211 h -83.998 c -2.765,0 -5.47,-1.119 -7.425,-3.074 -1.956,-1.956 -3.077,-4.661 -3.077,-7.425 V 82.445 c 0,-2.767 1.121,-5.47 3.077,-7.425 1.956,-1.956 4.661,-3.077 7.425,-3.077 h 216.5 c 2.765,0 5.47,1.121 7.425,3.077 1.956,1.955 3.074,4.658 3.074,7.425 v 25.499 c 0,2.765 -1.118,5.47 -3.074,7.425 -1.955,1.955 -4.66,3.076 -7.425,3.076 h -85.5 v 211 h 43.001 v -170 c 0,-2.765 1.121,-5.47 3.076,-7.425 1.956,-1.956 4.661,-3.076 7.425,-3.076 h 109 c 2.765,0 5.47,1.121 7.425,3.076 1.955,1.956 3.074,4.661 3.074,7.425 v 94.5 c 0,2.765 -1.121,5.468 -3.076,7.423 -1.953,1.955 -4.658,3.076 -7.423,3.076 h -56.342 c 4.75,5.417 10.236,11.667 15.898,18.108 16.278,18.516 34.146,38.746 39.771,44.816 0.504,0.547 0.932,0.995 1.141,1.211 1.172,0.931 1.792,1.164 2.972,1.467 1.218,0.291 3.188,0.41 6.059,0.398 4.831,-0.002 74.167,-0.002 101,-0.001 v -15 h -45.502 c -2.765,0 -5.47,-1.121 -7.423,-3.074 -1.956,-1.956 -3.077,-4.661 -3.077,-7.426 v -146.5 c 0,-2.767 1.121,-5.47 3.077,-7.425 1.953,-1.956 4.658,-3.076 7.423,-3.076 h 145 c 2.765,0 5.47,1.121 7.423,3.076 1.956,1.956 3.077,4.658 3.077,7.425 v 146.5 c 0,2.765 -1.121,5.47 -3.077,7.426 -1.955,1.953 -4.658,3.074 -7.423,3.074 h -47.503 v 14.999 h 101.5 v -246.5 c 0,-2.765 1.119,-5.47 3.074,-7.425 1.956,-1.956 4.661,-3.074 7.426,-3.074 h 122.5 c 2.765,0 5.47,1.119 7.425,3.074 1.956,1.956 3.074,4.661 3.074,7.425 v 120.5 c 0,2.765 -1.118,5.47 -3.074,7.423 -1.955,1.955 -4.66,3.076 -7.425,3.076 h -82.002 v 114.5 h 136.5 v -189.5 c 0,-2.765 1.121,-5.47 3.076,-7.423 1.955,-1.956 4.658,-3.077 7.425,-3.077 h 25.499 c 2.765,0 5.47,1.121 7.425,3.077 1.956,1.955 3.074,4.658 3.074,7.423 v 189.5 h 43.501 v -169.5 c 0,-2.765 1.121,-5.47 3.076,-7.425 1.956,-1.955 4.658,-3.074 7.425,-3.074 h 111 c 2.765,0 5.47,1.119 7.425,3.074 1.956,1.956 3.074,4.661 3.074,7.425 v 23 c 0,2.765 -1.118,5.47 -3.074,7.425 -1.955,1.953 -4.66,3.074 -7.425,3.074 h -75.001 v 33.001 h 77.002 c 2.765,0 5.47,1.119 7.426,3.074 1.953,1.956 3.073,4.661 3.073,7.426 v 22.999 c 0,2.765 -1.12,5.47 -3.076,7.426 -1.955,1.953 -4.658,3.074 -7.423,3.074 h -75.003 v 36 h 74.001 c 2.765,0 5.47,1.12 7.426,3.076 1.955,1.955 3.074,4.658 3.074,7.425 v 12.499 c 21.961,-10e-4 71.016,-10e-4 74.501,-10e-4 3.425,0.003 6.657,0.351 9.761,1.268 3.093,0.901 5.967,2.431 8.28,4.234 4.663,3.705 7.15,7.597 10.3,11.62 1.059,1.39 4.34,5.514 8.773,11.043 4.449,5.552 10.125,12.605 16.223,20.166 12.196,15.123 26.074,32.282 35.224,43.588 6.1,7.537 10.089,12.459 10.1,12.473 3.649,4.507 2.955,11.118 -1.55,14.769 -1.945,1.575 -4.282,2.341 -6.604,2.341 -3.2,0 -6.2,-1.32 -8.3,-3.89 z" id="path238" style="fill:#fee600"/>
      <path d="m 1881.3,456.5 c -4.638,0.008 -9.288,-2.034 -12.439,-5.928 l 10e-4,-0.002 c -0.194,-0.238 -36.054,-44.505 -56.78,-70.286 -6.963,-8.667 -12.089,-15.072 -14.009,-17.579 -2.411,-3.199 -4.271,-5.596 -4.935,-6.256 -0.133,-0.127 -0.245,-0.232 -0.335,-0.315 -0.081,-0.015 -0.188,-0.031 -0.322,-0.048 -0.353,-0.044 -0.898,-0.087 -1.686,-0.085 h -85.002 c -4.248,-0.009 -8.301,-1.684 -11.312,-4.686 -3,-3.012 -4.677,-7.062 -4.688,-11.313 v -7 h -68.498 c -4.253,-0.012 -8.301,-1.69 -11.314,-4.686 -0.063,-0.063 -0.125,-0.128 -0.188,-0.192 v 11.878 c -0.01,4.247 -1.686,8.3 -4.686,11.312 -3.012,2.997 -7.06,4.679 -11.312,4.688 h -64.501 c -4.248,-0.009 -8.301,-1.684 -11.316,-4.688 -0.519,-0.521 -0.997,-1.074 -1.435,-1.652 -0.438,0.579 -0.918,1.131 -1.437,1.652 -3.012,2.997 -7.06,4.679 -11.312,4.688 h -157.5 c -4.248,-0.009 -8.301,-1.684 -11.314,-4.686 -1.523,-1.53 -2.706,-3.328 -3.503,-5.285 -0.776,2.344 -2.091,4.497 -3.87,6.285 -3.012,2.997 -7.06,4.676 -11.312,4.686 h -122.5 c -4.249,-0.01 -8.302,-1.686 -11.313,-4.686 -2.05,-2.06 -3.482,-4.603 -4.188,-7.362 -0.705,2.761 -2.139,5.304 -4.19,7.367 -3.009,2.99 -7.057,4.671 -11.309,4.681 h -111.53 c -3.114,-0.019 -7.164,-0.002 -11.831,-1.041 -4.904,-1.071 -10.051,-3.438 -14.557,-7.312 -0.76,-0.654 -1.236,-1.156 -1.452,-1.369 l -0.039,-0.039 -0.037,-0.039 c -0.337,-0.347 -0.688,-0.716 -1.091,-1.147 -0.778,-0.83 -1.739,-1.873 -2.884,-3.137 -2.277,-2.512 -5.291,-5.876 -8.807,-9.832 -7.031,-7.901 -16.067,-18.142 -25.001,-28.295 -17.866,-20.304 -35.312,-40.248 -35.317,-40.252 -0.54,-0.618 -1.026,-1.27 -1.458,-1.949 v 77.413 c -0.009,4.252 -1.69,8.3 -4.686,11.312 -3.011,2.999 -7.062,4.679 -11.311,4.688 h -64.001 c -4.252,-0.009 -8.303,-1.69 -11.314,-4.688 -0.62,-0.623 -1.183,-1.29 -1.687,-1.993 -0.502,0.702 -1.064,1.367 -1.682,1.988 -3.016,3.009 -7.07,4.684 -11.316,4.692 h -64.74 c -4.248,-0.009 -8.3,-1.686 -11.312,-4.686 -2.998,-3.012 -4.679,-7.062 -4.688,-11.313 v -8.002 h -70.499 c -3.447,-0.008 -6.764,-1.111 -9.5,-3.129 v 11.131 c -0.009,4.252 -1.69,8.3 -4.686,11.309 -3.014,3.005 -7.066,4.682 -11.313,4.69 h -67.024 c -1.172,-0.005 -2.731,-0.03 -4.539,-0.305 -2.023,-0.303 -3.991,-0.884 -5.901,-1.739 -3.181,-1.481 -4.949,-2.876 -6.857,-4.107 l -0.06,-0.036 -0.057,-0.042 c -1.434,-0.956 -2.479,-2.024 -2.727,-2.279 l -0.05,-0.048 -0.048,-0.051 c -0.521,-0.537 -0.922,-1.014 -1.231,-1.388 -0.619,-0.759 -1.14,-1.466 -1.656,-2.186 -1.029,-1.447 -2.153,-3.133 -3.456,-5.153 -2.599,-4.025 -5.906,-9.369 -9.733,-15.674 -7.649,-12.598 -17.346,-28.982 -26.9,-45.272 -17.089,-29.136 -33.719,-57.958 -37.024,-63.69 l -0.738,126.06 c -0.066,8.758 -7.131,15.83 -15.919,15.907 h -0.046 c -0.039,0 -0.098,0 -0.176,0.002 -0.158,0 -0.39,0.003 -0.693,0.003 -0.605,0.004 -1.495,0.009 -2.626,0.016 -2.264,0.014 -5.5,0.034 -9.392,0.058 -7.786,0.046 -18.203,0.11 -28.732,0.172 -21.072,0.124 -42.539,0.25 -44.413,0.25 h -0.062 c -7.495,-0.009 -13.52,-2.477 -17.547,-5.036 -0.919,-0.583 -1.746,-1.169 -2.483,-1.738 l -0.507,0.506 -70.992,-85.766 -9.736,-11.761 c -2.46,-2.971 -3.681,-6.617 -3.676,-10.199 -0.004,-2.942 0.816,-5.892 2.413,-8.46 v -0.12 l 0.043,0.052 c 0.884,-1.404 2.001,-2.693 3.345,-3.802 2.968,-2.461 6.614,-3.681 10.197,-3.676 4.58,-0.008 9.176,1.985 12.332,5.8 l 76.291,92.168 c 0.047,0.004 0.149,0.009 0.384,0.034 1.571,0 23.194,-0.127 44.216,-0.25 9.292,-0.057 18.491,-0.111 25.875,-0.156 l 1.409,-240.19 c 0.06,-8.802 7.199,-15.898 15.999,-15.907 h 120.5 c 4.25,0.011 8.302,1.686 11.311,4.686 3,3.014 4.679,7.064 4.688,11.316 v 121 c -0.009,4.252 -1.688,8.302 -4.688,11.316 -3.011,2.998 -7.059,4.674 -11.311,4.686 h -64.264 c 1.931,3.33 4.006,6.904 6.187,10.653 11.483,19.749 25.882,44.374 37.475,63.749 7.692,12.861 14.277,23.591 17.522,28.407 0.042,0.063 0.085,0.127 0.127,0.189 5.819,-0.002 22.178,-0.004 37.027,-0.004 4.185,0 8.25,0 11.926,10e-4 v -165.95 c 0.009,-4.252 1.688,-8.302 4.688,-11.312 3.009,-3 7.06,-4.679 11.314,-4.688 h 112.5 c 4.252,0.009 8.302,1.69 11.311,4.686 3,3.011 4.679,7.062 4.688,11.313 v 24.001 c -0.009,4.252 -1.688,8.302 -4.688,11.312 -3.009,2.998 -7.059,4.679 -11.311,4.688 H 707.06 v 21.499 h 70.999 c 4.252,0.009 8.302,1.688 11.313,4.688 3,3.009 4.679,7.06 4.688,11.313 l 0.002,23.502 c -0.012,4.249 -1.693,8.3 -4.686,11.307 -3.016,3.007 -7.071,4.681 -11.318,4.689 h -70.5 v 25.003 h 70.499 c 4.252,0.01 8.302,1.688 11.316,4.688 2.995,3.009 4.679,7.06 4.688,11.313 v 8 h 32.496 v -200 h -78.496 c -4.25,-0.012 -8.3,-1.686 -11.316,-4.686 -2.998,-3.014 -4.679,-7.062 -4.688,-11.314 V 82.545 c 0.009,-4.254 1.69,-8.305 4.688,-11.313 3.013,-3 7.062,-4.679 11.316,-4.688 h 216.5 c 4.253,0.009 8.303,1.688 11.314,4.686 2.999,3.014 4.676,7.066 4.686,11.316 v 25.499 c -0.01,4.248 -1.684,8.3 -4.686,11.314 -3.014,3 -7.062,4.676 -11.314,4.688 h -80.002 v 200 h 32.001 v -164.49 c 0.011,-4.252 1.688,-8.302 4.688,-11.316 3.014,-3 7.064,-4.676 11.316,-4.686 l 109,-0.002 c 4.25,0.011 8.3,1.688 11.313,4.688 3,3.016 4.675,7.066 4.686,11.316 v 94.497 c -0.011,4.253 -1.69,8.303 -4.686,11.312 -3.014,3 -7.063,4.679 -11.313,4.688 h -44.201 c 2.55,2.903 5.198,5.919 7.887,8.977 16.256,18.489 34.173,38.773 39.686,44.723 0.298,0.322 0.57,0.611 0.773,0.825 0.069,0.05 0.116,0.081 0.142,0.097 l 0.01,0.009 c 0,-0.002 0,0 0.053,0.017 0.066,0.022 0.218,0.066 0.461,0.128 0.448,0.094 2.034,0.239 4.312,0.228 0.063,0 0.237,-0.005 0.499,-10e-4 3.367,-0.002 28.007,-0.004 53.264,-0.004 15.365,0 30.956,0 42.117,10e-4 v -3.999 h -40 c -4.254,-0.009 -8.302,-1.688 -11.313,-4.686 -2.998,-3.011 -4.679,-7.062 -4.688,-11.313 v -146.52 c 0.01,-4.254 1.689,-8.305 4.686,-11.314 3.014,-3.002 7.063,-4.679 11.315,-4.688 h 145 c 4.252,0.009 8.302,1.686 11.312,4.686 2.999,3.012 4.679,7.062 4.689,11.316 v 146.5 c -0.011,4.252 -1.69,8.303 -4.689,11.316 -3.012,2.995 -7.06,4.674 -11.312,4.683 h -42.003 v 4 h 90.503 v -241 c 0.01,-4.25 1.686,-8.3 4.686,-11.316 3.016,-3 7.065,-4.674 11.315,-4.684 l 122.5,-0.002 c 4.247,0.011 8.3,1.686 11.311,4.686 3.005,3.016 4.679,7.066 4.686,11.316 l 0,120.5 c -0.01,4.245 -1.684,8.3 -4.686,11.311 -3.014,2.998 -7.062,4.676 -11.313,4.686 h -76.504 v 103.5 h 125.5 v -184 c 0.01,-4.252 1.688,-8.302 4.686,-11.314 3.012,-2.998 7.062,-4.679 11.316,-4.688 h 25.499 c 4.252,0.009 8.302,1.69 11.311,4.688 3.003,3.014 4.679,7.064 4.688,11.314 v 184 h 32.5 v -164 c 0.01,-4.252 1.688,-8.3 4.688,-11.314 3.011,-3 7.063,-4.676 11.313,-4.686 h 111 c 4.247,0.012 8.298,1.686 11.312,4.686 3.004,3.014 4.676,7.066 4.686,11.314 l 0,23.001 c -0.012,4.248 -1.684,8.3 -4.688,11.316 -3.014,2.995 -7.06,4.672 -11.312,4.683 h -69.503 v 22.001 h 71.503 c 4.25,0.009 8.3,1.683 11.318,4.688 2.995,3.013 4.669,7.062 4.681,11.311 v 22.999 c -0.01,4.25 -1.688,8.3 -4.69,11.316 -3.009,2.995 -7.057,4.674 -11.309,4.683 h -69.504 v 25.001 h 68.502 c 4.249,0.01 8.302,1.687 11.315,4.686 2.998,3.014 4.674,7.064 4.686,11.316 v 6.997 h 69.004 c 3.791,0.003 7.572,0.388 11.295,1.486 3.818,1.119 7.257,2.949 10.165,5.209 5.417,4.313 8.274,8.82 11.251,12.596 0.964,1.264 4.275,5.428 8.69,10.935 4.444,5.544 10.119,12.596 16.212,20.153 12.194,15.118 26.07,32.275 35.219,43.58 6.055,7.481 10.016,12.368 10.105,12.479 0,0.007 0,0 -0,-0.005 -0,-0.004 -0.01,-0.009 -0,-0.002 2.39,2.947 3.568,6.539 3.566,10.063 0.01,4.64 -2.042,9.282 -5.929,12.44 -2.944,2.385 -6.527,3.566 -10.046,3.565 h -0.3 z M 1746.6,345 h 44.188 c 2.379,0.002 4.048,0.24 5.388,0.64 l 0.128,0.039 0.115,0.039 c 0.392,0.14 1.282,0.426 2.227,1.041 0.911,0.601 1.443,1.128 2.122,1.772 l 0.066,0.064 c 1.75,1.779 3.44,4.117 5.979,7.438 1.721,2.248 6.903,8.729 13.835,17.357 20.756,25.817 56.754,70.255 56.754,70.255 l -4.273,3.464 4.273,-3.464 c 0.997,1.229 2.412,1.847 3.892,1.854 1.119,-0.005 2.202,-0.355 3.135,-1.11 1.234,-1.004 1.852,-2.424 1.858,-3.896 -0.01,-1.121 -0.355,-2.199 -1.163,-3.204 -0.031,-0.036 -0.077,-0.093 -0.135,-0.167 -0.124,-0.151 -0.303,-0.374 -0.539,-0.663 -0.471,-0.582 -1.161,-1.434 -2.042,-2.522 -1.764,-2.174 -4.284,-5.289 -7.334,-9.06 -9.151,-11.307 -23.031,-28.466 -35.229,-43.594 -6.102,-7.563 -11.779,-14.621 -16.233,-20.178 -4.452,-5.553 -7.701,-9.635 -8.814,-11.094 -3.364,-4.332 -5.48,-7.607 -9.35,-10.674 -1.76,-1.378 -4.069,-2.607 -6.456,-3.296 -2.466,-0.729 -5.146,-1.041 -8.202,-1.043 -3.485,0 -52.541,0 -74.501,0.002 h -5.502 v -17.999 c 0.01,-1.284 -0.553,-2.64 -1.463,-3.536 -0.899,-0.913 -2.257,-1.476 -3.536,-1.466 h -79.501 v -47 h 80.503 c 1.277,0.009 2.635,-0.553 3.534,-1.463 0.91,-0.899 1.475,-2.257 1.466,-3.537 V 237 c 0.01,-1.279 -0.556,-2.642 -1.461,-3.536 -0.899,-0.91 -2.26,-1.473 -3.539,-1.463 h -82.503 v -44.002 h 80.503 c 1.275,0.011 2.64,-0.553 3.536,-1.463 0.908,-0.895 1.471,-2.252 1.461,-3.534 v -23.001 c 0.01,-1.28 -0.553,-2.64 -1.463,-3.537 -0.895,-0.908 -2.255,-1.473 -3.534,-1.461 h -111 c -1.284,-0.009 -2.638,0.55 -3.536,1.461 -0.911,0.899 -1.475,2.259 -1.466,3.537 v 175 h -54.502 v -195 c 0.01,-1.282 -0.551,-2.638 -1.463,-3.537 -0.897,-0.911 -2.26,-1.475 -3.534,-1.463 h -25.499 c -1.28,-0.011 -2.638,0.551 -3.539,1.466 -0.908,0.894 -1.473,2.254 -1.463,3.534 v 195 h -147.5 v -125.51 h 87.503 c 1.274,0.012 2.637,-0.553 3.538,-1.468 0.906,-0.892 1.468,-2.25 1.461,-3.529 l -0,-120.5 c 0.01,-1.282 -0.553,-2.64 -1.463,-3.539 -0.897,-0.908 -2.255,-1.47 -3.534,-1.461 h -122.5 c -1.282,-0.009 -2.642,0.553 -3.539,1.461 -0.908,0.899 -1.472,2.259 -1.463,3.539 v 252 h -112.5 v -25.999 h 53.005 c 1.277,0.009 2.638,-0.553 3.534,-1.463 0.913,-0.899 1.475,-2.26 1.465,-3.537 v -146.5 c 0.01,-1.282 -0.552,-2.635 -1.468,-3.539 -0.894,-0.911 -2.254,-1.472 -3.531,-1.463 h -145 c -1.279,-0.009 -2.638,0.553 -3.536,1.466 -0.913,0.901 -1.475,2.254 -1.464,3.537 v 146.5 c -0.011,1.277 0.553,2.638 1.466,3.537 0.895,0.908 2.257,1.472 3.534,1.463 h 51 v 26.001 h -5.5 c -11.116,-0.002 -29.523,-0.002 -47.617,-0.002 -25.59,0 -50.557,0 -53.38,0.002 h -0.066 l -0.063,-0.002 h -0.254 c -2.855,-0.014 -4.896,-0.081 -6.956,-0.546 l -0.051,-0.014 -0.039,-0.01 c -1.325,-0.254 -3.585,-1.223 -5.024,-2.486 l -0.278,-0.22 -0.254,-0.262 c -0.243,-0.252 -0.693,-0.723 -1.223,-1.298 -5.747,-6.204 -23.567,-26.384 -39.869,-44.925 -5.663,-6.442 -11.151,-12.694 -15.903,-18.113 l -8.002,-9.126 h 68.48 c 1.277,0.01 2.636,-0.555 3.532,-1.465 0.913,-0.899 1.475,-2.257 1.466,-3.535 v -94.497 c 0.01,-1.282 -0.553,-2.642 -1.464,-3.539 -0.896,-0.911 -2.257,-1.473 -3.534,-1.463 h -108.92 c -1.28,-0.009 -2.64,0.553 -3.537,1.466 -0.913,0.896 -1.475,2.257 -1.466,3.536 v 175.5 h -54 v -222.03 h 91.002 c 1.277,0.011 2.638,-0.553 3.537,-1.466 0.908,-0.894 1.473,-2.254 1.461,-3.534 V 82.463 c 0.012,-1.284 -0.551,-2.638 -1.464,-3.537 -0.896,-0.913 -2.257,-1.475 -3.534,-1.465 h -216.51 c -1.278,-0.009 -2.64,0.553 -3.539,1.465 -0.913,0.901 -1.472,2.254 -1.463,3.537 v 25.499 c -0.011,1.278 0.553,2.638 1.463,3.534 0.897,0.911 2.257,1.475 3.539,1.463 h 89.495 v 222 h -54.497 v -18.997 c 0.009,-1.282 -0.55,-2.635 -1.465,-3.536 -0.899,-0.911 -2.259,-1.475 -3.537,-1.466 h -81.5 v -47.002 l 81.5,0.002 c 1.282,0.009 2.637,-0.553 3.537,-1.463 0.915,-0.904 1.475,-2.26 1.465,-3.534 v -23.502 c 0.009,-1.279 -0.553,-2.637 -1.465,-3.536 -0.899,-0.91 -2.259,-1.475 -3.537,-1.466 h -82 v -43.497 h 82.503 c 1.277,0.009 2.635,-0.553 3.536,-1.468 0.908,-0.895 1.473,-2.255 1.463,-3.532 v -24.001 c 0.009,-1.277 -0.555,-2.638 -1.465,-3.534 -0.899,-0.913 -2.257,-1.475 -3.534,-1.466 h -112.51 c -1.28,-0.009 -2.635,0.553 -3.539,1.468 -0.911,0.895 -1.472,2.255 -1.463,3.532 v 177 l -5.504,-0.004 h -17.421 c -17.526,0 -37.175,0 -39.074,0.002 -0.016,0 -0.138,0.002 -0.365,-0.009 l -1.438,-0.083 -1.211,-0.772 c -0.372,-0.239 -0.874,-0.566 -1.511,-0.991 l -0.828,-0.553 -0.583,-0.808 c -0.342,-0.47 -0.796,-1.116 -1.287,-1.855 -3.521,-5.235 -10.07,-15.923 -17.82,-28.879 -11.637,-19.451 -26.049,-44.097 -37.544,-63.866 -4.124,-7.089 -7.871,-13.554 -10.983,-18.927 l -4.777,-8.257 h 83.347 c 1.277,0.012 2.64,-0.555 3.534,-1.463 0.913,-0.899 1.475,-2.259 1.465,-3.537 V 83.979 c 0.009,-1.277 -0.553,-2.64 -1.468,-3.539 -0.895,-0.908 -2.25,-1.47 -3.532,-1.461 h -120.5 c -2.734,-0.009 -4.993,2.236 -5,4.97 l -1.47,251.06 -5.436,0.031 c -7.97,0.049 -19.566,0.117 -31.313,0.188 -21.049,0.124 -42.587,0.25 -44.323,0.25 -2.704,0.044 -5.151,-1.007 -6.252,-1.731 l -0.037,-0.023 -0.051,-0.029 c -0.745,-0.471 -1.222,-0.881 -1.555,-1.19 l -0.25,-0.234 -76.962,-92.979 c -1.002,-1.207 -2.399,-1.806 -3.857,-1.813 -1.135,0.003 -2.234,0.365 -3.188,1.151 -1.202,0.996 -1.8,2.39 -1.81,3.854 0.004,1.112 0.353,2.19 1.103,3.127 l 76.378,92.274 0.538,0.646 c 0.399,0.475 1.697,1.986 4.275,3.623 2.562,1.636 6.64,3.331 11.648,3.323 h 0.062 c 3.578,0 85.975,-0.499 86.028,-0.499 2.708,-0.003 4.97,-2.264 4.97,-4.973 l 1.47,-251.03 h 110.54 v 111 l -86.998,0.002 c -1.792,0 -3.434,0.947 -4.33,2.5 -0.45,0.773 -0.672,1.63 -0.672,2.498 0,0.835 0.207,1.664 0.626,2.424 0.014,0.022 0.018,0.03 0.023,0.037 0.007,0.011 0.009,0.016 0.011,0.023 0.007,0.009 0.012,0.018 0.016,0.027 0.012,0.019 0.025,0.042 0.043,0.073 0.037,0.064 0.09,0.158 0.161,0.28 0.142,0.243 0.351,0.605 0.622,1.076 0.543,0.945 1.342,2.328 2.358,4.087 2.034,3.523 4.944,8.555 8.449,14.605 7.011,12.098 16.405,28.262 25.941,44.522 9.539,16.264 19.217,32.618 26.813,45.126 3.8,6.26 7.073,11.546 9.573,15.419 1.255,1.943 2.3,3.512 3.167,4.725 0.458,0.641 0.814,1.122 1.188,1.578 0.236,0.281 0.382,0.457 0.615,0.701 0.515,0.5 0.362,0.406 1.183,0.996 v 0.001 c 2.381,1.56 3.261,2.288 5.349,3.263 0.764,0.357 2.041,0.734 2.922,0.851 1.053,0.161 1.906,0.182 2.942,0.187 h 67.001 c 1.282,0.009 2.633,-0.553 3.532,-1.466 0.915,-0.901 1.477,-2.257 1.468,-3.534 v -177.02 h 102.51 v 14.001 h -82.498 c -1.28,-0.009 -2.637,0.555 -3.537,1.465 -0.91,0.897 -1.472,2.254 -1.463,3.537 v 53.499 c -0.009,1.28 0.553,2.641 1.461,3.534 0.899,0.911 2.261,1.476 3.539,1.466 h 81.998 v 13.499 l -81.498,0.003 c -1.282,-0.01 -2.64,0.55 -3.534,1.461 -0.913,0.898 -1.475,2.254 -1.465,3.539 v 56.999 c -0.009,1.277 0.553,2.638 1.468,3.536 0.892,0.906 2.25,1.468 3.532,1.459 h 81.5 v 19.004 c -0.011,1.277 0.553,2.638 1.465,3.536 0.897,0.911 2.25,1.473 3.532,1.464 h 64.503 c 1.28,0.009 2.635,-0.553 3.532,-1.466 0.913,-0.901 1.475,-2.257 1.465,-3.534 v -232 c 0.009,-1.277 -0.553,-2.637 -1.465,-3.536 -0.895,-0.908 -2.254,-1.473 -3.532,-1.463 h -89.502 v -15.5 h 206.51 v 15.5 h -90.997 c -1.28,-0.009 -2.638,0.553 -3.537,1.463 -0.911,0.899 -1.475,2.256 -1.463,3.536 v 232 c -0.009,1.277 0.55,2.633 1.463,3.534 0.901,0.913 2.257,1.475 3.537,1.466 h 64.001 c 1.277,0.009 2.635,-0.556 3.532,-1.466 0.913,-0.901 1.475,-2.257 1.465,-3.534 v -175.5 h 99 v 84.5 l -74.499,-0.003 c -1.958,0 -3.749,1.154 -4.559,2.945 -0.296,0.651 -0.443,1.346 -0.443,2.053 0.003,1.178 0.413,2.333 1.244,3.304 l 0.002,-0.001 0.007,0.009 c 0.007,0.009 0.021,0.023 0.036,0.044 0.034,0.039 0.085,0.094 0.149,0.169 0.133,0.151 0.328,0.377 0.585,0.668 0.512,0.585 1.264,1.444 2.22,2.539 1.915,2.186 4.653,5.312 7.949,9.072 6.592,7.521 15.417,17.58 24.343,27.724 8.926,10.145 17.953,20.375 24.962,28.251 3.502,3.938 6.5,7.284 8.738,9.754 1.114,1.229 2.041,2.236 2.757,3.002 0.361,0.384 0.667,0.705 0.949,0.997 0.402,0.4 0.354,0.371 0.852,0.809 2.944,2.555 6.559,4.203 9.71,4.88 3.369,0.748 6.376,0.773 9.5,0.784 h 111.5 c 1.277,0.01 2.635,-0.553 3.534,-1.463 0.912,-0.899 1.475,-2.262 1.465,-3.536 v -36.001 c 0.01,-1.282 -0.553,-2.64 -1.463,-3.536 -0.896,-0.911 -2.257,-1.473 -3.536,-1.464 h -51.002 v -136.48 h 135 v 136.5 h -53 c -1.281,-0.009 -2.637,0.553 -3.536,1.466 -0.91,0.896 -1.475,2.255 -1.466,3.534 l 0,36.001 c -0.012,1.277 0.553,2.637 1.463,3.536 0.899,0.91 2.255,1.473 3.536,1.463 h 122.5 c 1.275,0.01 2.638,-0.555 3.532,-1.463 0.913,-0.899 1.475,-2.262 1.466,-3.536 v -252 h 112.5 v 110.5 h -87.497 c -1.28,-0.009 -2.636,0.553 -3.534,1.463 -0.913,0.899 -1.476,2.261 -1.466,3.539 v 135.5 c -0.012,1.277 0.553,2.638 1.466,3.536 0.896,0.911 2.249,1.473 3.534,1.464 h 157.5 c 1.275,0.009 2.633,-0.553 3.532,-1.466 0.912,-0.899 1.472,-2.252 1.463,-3.534 v -195 h 15.502 l 0,195 c -0.01,1.277 0.555,2.64 1.466,3.536 0.894,0.911 2.252,1.473 3.534,1.464 h 64.501 c 1.275,0.009 2.633,-0.553 3.532,-1.466 0.912,-0.899 1.472,-2.252 1.463,-3.534 v -175 h 101 v 13 l -80.496,0.002 c -1.282,-0.009 -2.64,0.553 -3.534,1.461 -0.911,0.899 -1.475,2.261 -1.466,3.539 v 53.999 c -0.01,1.277 0.555,2.64 1.463,3.534 0.897,0.911 2.257,1.475 3.537,1.466 h 82.498 v 12.999 h -80.498 c -1.282,-0.009 -2.638,0.553 -3.534,1.464 -0.913,0.898 -1.478,2.259 -1.466,3.536 v 57.002 c -0.012,1.275 0.553,2.638 1.463,3.532 0.899,0.912 2.257,1.475 3.537,1.465 h 79.5 v 18.002 c -0.012,1.277 0.553,2.638 1.468,3.539 0.89,0.908 2.248,1.47 3.53,1.461 h 40.8 z m -623.8,-56 h 40.003 c 4.249,0.009 8.3,1.686 11.313,4.684 2.051,2.06 3.481,4.604 4.186,7.363 0.705,-2.761 2.138,-5.304 4.188,-7.361 3.012,-3 7.064,-4.677 11.313,-4.686 l 41.998,-0.002 v -114.49 h -113 v 114.5 -0.004 z M 958.56,257.34 c -0.01,-0.014 -0.017,-0.019 -0.019,-0.022 l -0.012,-0.014 -0.004,-0.005 -10e-4,0.001 c 0.01,0.02 0.02,0.03 0.03,0.04 z m -9.78,-11.92 c 2.908,-4.575 7.979,-7.409 13.501,-7.413 h 63.497 V 175.51 H 948.78 v 69.905 l -0.02,0.005 z m 383.52,-48.65 c 0.718,-1.299 1.618,-2.503 2.687,-3.577 3.012,-2.998 7.062,-4.678 11.314,-4.686 l 76.498,-0.002 v -88.498 h -90.5 v 96.77 z M 499.12,195.9 c 2.97,-4.296 7.878,-6.896 13.157,-6.896 l 75.999,-0.002 v -89 h -88.594 l -0.57,95.9 z M 855.78,98.683 c 0.042,-0.06 0.086,-0.119 0.129,-0.178 h -0.259 c 0.05,0.058 0.09,0.118 0.13,0.178 z" id="path240"/>
    </g>
    <g id="g242">
      <path d="m 1507.4,102.43 -35.499,-35.501 c -1.986,-1.983 -3.097,-4.694 -3.075,-7.5 0.021,-2.805 1.169,-5.5 3.182,-7.456 l 35.501,-34.5 c 4.135,-4.019 10.746,-3.948 14.793,0.159 l 34.501,35.002 c 4.026,4.083 4.026,10.656 0,14.741 l -34.501,35 c -1.968,2 -4.634,3.119 -7.439,3.13 h -0.033 c -2.9,-0.01 -5.6,-1.11 -7.5,-3.08 z m -13.2,-42.82 20.49,20.491 19.809,-20.098 -19.914,-20.203 -20.4,19.81 z" id="path244" style="fill:#fee600"/>
      <path d="m 1514.8,111 c -4.241,0.002 -8.318,-1.684 -11.318,-4.686 l 3.888,-3.89 -3.888,3.888 -35.5,-35.49 c -2.999,-3 -4.683,-7.06 -4.689,-11.296 -0,-0.013 -0,-0.051 0,-0.106 0,-0.051 0,-0.118 0.01,-0.202 0.077,-4.219 1.813,-8.238 4.844,-11.187 l 35.502,-34.5 c 3.094,-3.01 7.146,-4.531 11.147,-4.524 4.115,-0.006 8.277,1.6 11.396,4.765 l 34.501,35.002 c 3.061,3.101 4.607,7.192 4.602,11.232 0.01,4.04 -1.543,8.129 -4.602,11.232 l -34.498,34.996 c -2.99,3.043 -7.082,4.761 -11.358,4.774 h 0.1 z m 0,-11 h 0.012 c 1.353,-0.011 2.595,-0.533 3.542,-1.492 l 34.501,-34.998 c 0.966,-0.986 1.432,-2.226 1.437,-3.512 -0,-1.291 -0.471,-2.528 -1.437,-3.51 l -34.498,-35 c -0.992,-1.003 -2.252,-1.483 -3.563,-1.49 -1.272,0.004 -2.499,0.46 -3.48,1.412 l -35.502,34.5 c -0.952,0.921 -1.507,2.224 -1.516,3.552 l -10e-4,0.141 c 0.026,1.275 0.556,2.524 1.466,3.428 l 35.497,35.5 c 1,0.955 2.2,1.469 3.6,1.469 z m -24.5,-36.502 -3.945,-3.945 28.301,-27.503 27.555,27.952 -27.503,27.905 -24.5,-24.409 z m 24.4,8.796 12.115,-12.292 -12.274,-12.452 -12.468,12.116 12.7,12.628 z" id="path246"/>
    </g>
  </g>
</svg>