<?xml version="1.0" encoding="utf-8"?>
<svg viewBox="0 0 191.9499969482422 23.579999923706055" xmlns="http://www.w3.org/2000/svg">
  <path d="M 8.42 18.94 L 7.59 22.5 L 0 22.5 L 5.83 0 L 16.95 0 L 22.79 22.5 L 15.19 22.5 L 14.36 18.94 L 8.42 18.94 Z M 11.59 6.91 L 11.19 6.91 L 9.72 13.21 L 13.03 13.21 L 11.59 6.91 Z M 38.553 16.74 L 38.553 22.5 L 24.153 22.5 L 24.153 0 L 31.353 0 L 31.353 16.74 L 38.553 16.74 Z M 54.932 16.74 L 54.932 22.5 L 40.532 22.5 L 40.532 0 L 47.732 0 L 47.732 16.74 L 54.932 16.74 Z" style="white-space: pre; fill: rgb(255, 255, 255);"/>
  <text x="202.581" y="176.129" style="white-space: pre; fill: rgb(51, 51, 51); font-family: sans-serif; font-size: 24px;"> </text>
  <path d="M 75.949 13.661 C 75.847 13.303 75.625 13.035 75.28 12.855 L 72.303 11.25 L 75.28 9.646 C 75.625 9.465 75.847 9.196 75.949 8.838 C 76.049 8.48 76.002 8.143 75.809 7.823 L 75.091 6.677 C 74.897 6.357 74.608 6.151 74.222 6.057 C 73.839 5.964 73.475 6.007 73.13 6.188 L 70.151 7.782 L 70.151 4.583 C 70.151 4.221 70.009 3.91 69.726 3.646 C 69.441 3.382 69.106 3.25 68.717 3.25 L 67.283 3.25 C 66.895 3.25 66.559 3.382 66.274 3.646 C 65.991 3.91 65.849 4.221 65.849 4.583 L 65.849 7.782 L 62.87 6.188 C 62.525 6.007 62.162 5.964 61.776 6.056 C 61.393 6.151 61.103 6.357 60.908 6.677 L 60.192 7.823 C 59.998 8.143 59.951 8.48 60.051 8.838 C 60.153 9.196 60.375 9.465 60.718 9.646 L 63.698 11.25 L 60.718 12.855 C 60.375 13.035 60.153 13.303 60.051 13.661 C 59.951 14.02 59.998 14.358 60.192 14.676 L 60.908 15.823 C 61.103 16.142 61.393 16.348 61.776 16.443 C 62.162 16.536 62.525 16.494 62.87 16.312 L 65.849 14.719 L 65.849 17.916 C 65.849 18.278 65.99 18.591 66.274 18.854 C 66.559 19.119 66.895 19.25 67.283 19.25 L 68.717 19.25 C 69.106 19.25 69.441 19.119 69.726 18.854 C 70.009 18.591 70.15 18.278 70.15 17.916 L 70.15 14.719 L 73.13 16.312 C 73.475 16.494 73.839 16.536 74.222 16.443 C 74.607 16.348 74.897 16.142 75.091 15.823 L 75.809 14.677 C 76.002 14.358 76.049 14.019 75.949 13.661 Z" id="path4676" fill-rule="nonzero" style="fill: rgb(88, 128, 187);"/>
  <path d="M 93.6 16.42 L 93.6 16.42 L 93.6 15.44 L 91.76 15.44 L 91.76 9.94 L 100.44 9.94 L 100.44 21.96 L 100.44 21.96 C 97.587 23.04 94.633 23.58 91.58 23.58 L 91.58 23.58 L 91.58 23.58 C 87.48 23.58 84.66 22.583 83.12 20.59 L 83.12 20.59 L 83.12 20.59 C 82.333 19.557 81.783 18.347 81.47 16.96 L 81.47 16.96 L 81.47 16.96 C 81.157 15.567 81 13.843 81 11.79 L 81 11.79 L 81 11.79 C 81 9.737 81.163 8.02 81.49 6.64 L 81.49 6.64 L 81.49 6.64 C 81.81 5.26 82.39 4.053 83.23 3.02 L 83.23 3.02 L 83.23 3.02 C 84.817 1.007 87.877 0 92.41 0 L 92.41 0 L 92.41 0 C 93.35 0 94.57 0.097 96.07 0.29 L 96.07 0.29 L 96.07 0.29 C 97.57 0.483 98.667 0.7 99.36 0.94 L 99.36 0.94 L 98.28 6.44 L 98.28 6.44 C 96.333 6.107 94.577 5.94 93.01 5.94 L 93.01 5.94 L 93.01 5.94 C 91.437 5.94 90.33 6.06 89.69 6.3 L 89.69 6.3 L 89.69 6.3 C 89.057 6.54 88.74 7.02 88.74 7.74 L 88.74 7.74 L 88.74 17.93 L 91.12 17.93 L 91.12 17.93 C 91.98 17.93 92.61 17.84 93.01 17.66 L 93.01 17.66 L 93.01 17.66 C 93.403 17.48 93.6 17.067 93.6 16.42 Z M 109.87 19.48 L 109.04 23.04 L 101.45 23.04 L 107.28 0.54 L 118.4 0.54 L 124.24 23.04 L 116.64 23.04 L 115.81 19.48 L 109.87 19.48 Z M 113.04 7.45 L 112.64 7.45 L 111.17 13.75 L 114.48 13.75 L 113.04 7.45 Z M 132.664 12.13 L 132.224 23.04 L 124.704 23.04 L 126.074 0.54 L 135.464 0.54 L 138.274 11.99 L 138.524 11.99 L 141.334 0.54 L 150.734 0.54 L 152.104 23.04 L 144.574 23.04 L 144.144 12.13 L 143.894 12.13 L 141.154 23.04 L 135.644 23.04 L 132.874 12.13 L 132.664 12.13 Z M 169.2 9.32 L 169.2 14.54 L 162 14.54 L 162 17.28 L 170.82 17.28 L 170.82 23.04 L 154.8 23.04 L 154.8 0.54 L 170.64 0.54 L 169.74 6.3 L 162 6.3 L 162 9.32 L 169.2 9.32 Z M 172.98 22.64 L 172.98 22.64 L 173.99 16.7 L 173.99 16.7 C 176.196 17.253 178.183 17.53 179.95 17.53 L 179.95 17.53 L 179.95 17.53 C 181.71 17.53 183.13 17.46 184.21 17.32 L 184.21 17.32 L 184.21 15.52 L 180.97 15.23 L 180.97 15.23 C 178.043 14.963 176.033 14.26 174.94 13.12 L 174.94 13.12 L 174.94 13.12 C 173.846 11.98 173.3 10.293 173.3 8.06 L 173.3 8.06 L 173.3 8.06 C 173.3 4.993 173.966 2.883 175.3 1.73 L 175.3 1.73 L 175.3 1.73 C 176.633 0.577 178.896 0 182.09 0 L 182.09 0 L 182.09 0 C 185.283 0 188.163 0.3 190.73 0.9 L 190.73 0.9 L 189.83 6.66 L 189.83 6.66 C 187.596 6.3 185.806 6.12 184.46 6.12 L 184.46 6.12 L 184.46 6.12 C 183.12 6.12 181.98 6.18 181.04 6.3 L 181.04 6.3 L 181.04 8.06 L 183.64 8.32 L 183.64 8.32 C 186.78 8.627 188.95 9.377 190.15 10.57 L 190.15 10.57 L 190.15 10.57 C 191.35 11.757 191.95 13.407 191.95 15.52 L 191.95 15.52 L 191.95 15.52 C 191.95 17.027 191.746 18.303 191.34 19.35 L 191.34 19.35 L 191.34 19.35 C 190.933 20.397 190.446 21.19 189.88 21.73 L 189.88 21.73 L 189.88 21.73 C 189.32 22.27 188.523 22.683 187.49 22.97 L 187.49 22.97 L 187.49 22.97 C 186.456 23.257 185.55 23.43 184.77 23.49 L 184.77 23.49 L 184.77 23.49 C 183.99 23.55 182.953 23.58 181.66 23.58 L 181.66 23.58 L 181.66 23.58 C 178.54 23.58 175.646 23.267 172.98 22.64 Z" style="white-space: pre; fill: rgb(255, 255, 255);"/>
</svg>