<?xml version="1.0" encoding="utf-8"?>
<svg id="Layer_1" x="0px" y="0px" width="567.93px" height="69.41px" viewBox="0.001 -1 567.926 69.41" xmlns="http://www.w3.org/2000/svg">
  <path id="path5" d="M 213.3 56.3 C 208.521 62.792 203.79 64.634 201.72 65.63 C 199.652 66.628 196.519 67.409 193.779 67.409 C 186.09 67.409 180.091 64.901 175.779 59.909 C 171.465 54.892 169.31 47.861 169.31 38.744 C 169.31 27.962 172.029 18.82 177.492 11.272 C 182.952 3.75 190.192 0 199.212 0 C 206.058 0 211.657 1.922 216.04 5.789 C 220.423 9.633 222.604 15.68 222.604 23.906 L 209.36 23.906 C 209.36 19.968 208.493 17.203 206.756 15.608 C 205.024 14.039 202.537 13.242 199.279 13.242 C 193.959 13.242 189.857 15.843 186.927 21.022 C 184.021 26.226 182.542 32.131 182.542 38.764 C 182.542 43.288 183.505 46.993 185.38 49.85 C 187.278 52.735 190.112 54.163 193.888 54.163 C 197.826 54.163 200.872 53.038 203.076 50.809 C 205.256 48.607 206.873 45.746 207.904 42.253 L 195.574 42.253 L 197.57 30.253 L 221.615 30.253 L 219.576 41.878 C 219.576 41.885 218.056 49.808 213.296 56.3 Z" style="fill: rgb(153, 153, 153);"/>
  <polygon id="polygon9" points="327.63 1.666 316.87 65.84 305.29 65.84 314.41 16.104 294.3 65.84 284.81 65.84 280.43 16.127 273.51 65.84 261.79 65.84 272.5 1.666 288.93 1.666 292.62 46.855 311.08 1.547" style="fill: rgb(153, 153, 153);"/>
  <polygon id="polygon11" points="339.89 26.509 358.8 26.509 356.83 38.956 337.92 38.956 335.48 52.62 356.83 52.62 354.72 65.84 321.07 65.84 331.71 1.594 364.96 1.594 362.93 14.907 342 14.907" style="fill: rgb(153, 153, 153);"/>
  <path id="path13" d="M 239.08 1.547 L 213.21 65.84 L 225.819 65.84 L 230.436 53.299 L 246.936 53.299 L 248.014 65.84 L 260.225 65.84 L 252.912 1.548 L 239.072 1.547 Z M 234.44 42.331 L 243.817 16.76 L 245.995 42.331 L 234.435 42.331 Z" style="fill: rgb(153, 153, 153);"/>
  <path id="path5_1_" d="M 430.28 56.3 C 425.499 62.792 420.77 64.634 418.7 65.631 C 416.632 66.628 413.499 67.41 410.759 67.41 C 403.071 67.41 397.071 64.901 392.759 59.91 C 388.445 54.893 386.288 47.864 386.288 38.746 C 386.288 27.964 389.009 18.823 394.47 11.274 C 399.931 3.752 407.173 0.002 416.197 0.002 C 423.041 0.002 428.642 1.924 433.025 5.791 C 437.41 9.636 439.588 15.684 439.588 23.909 L 426.348 23.909 C 426.348 19.971 425.483 17.206 423.744 15.611 C 422.012 14.043 419.525 13.245 416.267 13.245 C 410.947 13.245 406.845 15.846 403.915 21.025 C 401.007 26.229 399.532 32.134 399.532 38.768 C 399.532 43.291 400.493 46.997 402.366 49.853 C 404.264 52.738 407.1 54.166 410.876 54.166 C 414.814 54.166 417.86 53.041 420.064 50.813 C 422.244 48.61 423.861 45.75 424.894 42.257 L 412.564 42.257 L 414.556 30.257 L 438.603 30.257 L 436.564 41.882 C 436.564 41.885 435.034 49.808 430.274 56.3 Z" style="fill: rgb(153, 153, 153);"/>
  <polygon id="polygon15" points="454.99 26.532 473.88 26.532 471.94 38.956 453.02 38.956 450.56 52.62 471.94 52.62 469.83 65.862 436.17 65.862 446.81 1.594 480.07 1.594 478.03 14.906 457.1 14.906" style="fill: rgb(153, 153, 153);"/>
  <path id="path17" d="M 496.8 1.573 L 470.925 65.865 L 483.56 65.865 L 488.154 53.325 L 504.677 53.325 L 505.753 65.865 L 517.942 65.865 L 510.628 1.573 L 496.798 1.573 Z M 492.18 42.33 L 501.535 16.758 L 503.738 42.33 L 492.181 42.33 Z" style="fill: rgb(153, 153, 153);"/>
  <path id="path19" d="M 537.49 29.836 L 540.303 14.017 L 547.053 14.017 C 549.537 14.017 551.389 14.461 552.631 15.353 C 553.873 16.267 554.483 18.071 554.483 20.791 C 554.483 23.838 553.475 26.088 551.483 27.589 C 549.465 29.089 546.913 29.838 543.819 29.838 L 537.489 29.836 Z M 529.88 1.594 L 519.239 65.862 L 531.542 65.862 L 535.669 41.37 L 541.364 41.37 L 550.88 65.862 L 564.989 65.862 L 554.44 38.745 C 558.122 36.87 561.286 33.752 563.489 30.495 C 565.786 27.142 566.932 23.228 566.932 18.752 C 566.932 12.682 565.575 8.321 562.83 5.627 C 560.111 2.933 556.242 1.596 551.275 1.596 L 529.875 1.594 Z" style="fill: rgb(153, 153, 153);"/>
  <path id="path21" d="M10.274,26.281c10.857-18.21,25.803-29.576,33.383-25.426,7.564,4.168,4.898,22.309-5.979,40.506-10.859,18.211-25.803,29.575-33.365,25.423-7.582-4.165-4.9-22.307,5.961-40.503z" fill="#D61808"/>
  <path id="path21_2_" d="M58.846,26.281c10.858-18.21,25.803-29.576,33.381-25.426,7.564,4.168,4.898,22.309-5.979,40.506-10.857,18.211-25.802,29.575-33.365,25.423-7.58-4.165-4.898-22.307,5.963-40.503z" fill="#008400"/>
  <path id="path21_3_" d="M107.42,26.281c10.85-18.211,25.8-29.576,33.38-25.427,7.564,4.168,4.898,22.309-5.979,40.506-10.859,18.211-25.801,29.575-33.365,25.424-7.586-4.165-4.903-22.307,5.96-40.503z" fill="#00F"/>
</svg>