<?xml version="1.0" encoding="utf-8"?>
<svg viewBox="0 0 216.0399932861328 23.579999923706055" xmlns="http://www.w3.org/2000/svg">
  <text x="202.581" y="176.129" style="white-space: pre; fill: rgb(51, 51, 51); font-family: sans-serif; font-size: 24px;"> </text>
  <path d="M 36.4 17.28 L 36.4 23.04 L 22 23.04 L 22 0.54 L 29.2 0.54 L 29.2 17.28 L 36.4 17.28 Z M 41.69 19.48 L 40.86 23.04 L 33.27 23.04 L 39.1 0.54 L 50.22 0.54 L 56.06 23.04 L 48.46 23.04 L 47.63 19.48 L 41.69 19.48 Z M 44.86 7.45 L 44.46 7.45 L 42.99 13.75 L 46.3 13.75 L 44.86 7.45 Z M 56.524 22.64 L 56.524 22.64 L 57.534 16.7 L 57.534 16.7 C 59.741 17.253 61.727 17.53 63.494 17.53 L 63.494 17.53 L 63.494 17.53 C 65.254 17.53 66.674 17.46 67.754 17.32 L 67.754 17.32 L 67.754 15.52 L 64.514 15.23 L 64.514 15.23 C 61.587 14.963 59.577 14.26 58.484 13.12 L 58.484 13.12 L 58.484 13.12 C 57.391 11.98 56.844 10.293 56.844 8.06 L 56.844 8.06 L 56.844 8.06 C 56.844 4.993 57.511 2.883 58.844 1.73 L 58.844 1.73 L 58.844 1.73 C 60.177 0.577 62.441 0 65.634 0 L 65.634 0 L 65.634 0 C 68.827 0 71.707 0.3 74.274 0.9 L 74.274 0.9 L 73.374 6.66 L 73.374 6.66 C 71.141 6.3 69.351 6.12 68.004 6.12 L 68.004 6.12 L 68.004 6.12 C 66.664 6.12 65.524 6.18 64.584 6.3 L 64.584 6.3 L 64.584 8.06 L 67.184 8.32 L 67.184 8.32 C 70.324 8.627 72.494 9.377 73.694 10.57 L 73.694 10.57 L 73.694 10.57 C 74.894 11.757 75.494 13.407 75.494 15.52 L 75.494 15.52 L 75.494 15.52 C 75.494 17.027 75.291 18.303 74.884 19.35 L 74.884 19.35 L 74.884 19.35 C 74.477 20.397 73.991 21.19 73.424 21.73 L 73.424 21.73 L 73.424 21.73 C 72.864 22.27 72.067 22.683 71.034 22.97 L 71.034 22.97 L 71.034 22.97 C 70.001 23.257 69.094 23.43 68.314 23.49 L 68.314 23.49 L 68.314 23.49 C 67.534 23.55 66.497 23.58 65.204 23.58 L 65.204 23.58 L 65.204 23.58 C 62.084 23.58 59.191 23.267 56.524 22.64 Z M 94.216 0.54 L 94.216 6.3 L 88.996 6.3 L 88.996 23.04 L 81.796 23.04 L 81.796 6.3 L 76.576 6.3 L 76.576 0.54 L 94.216 0.54 Z M 113.476 17.6 L 113.476 17.6 L 108.796 17.6 L 108.796 23.04 L 101.596 23.04 L 101.596 0.54 L 112.936 0.54 L 112.936 0.54 C 118.096 0.54 120.676 3.313 120.676 8.86 L 120.676 8.86 L 120.676 8.86 C 120.676 11.907 120.002 14.16 118.656 15.62 L 118.656 15.62 L 118.656 15.62 C 118.156 16.173 117.462 16.643 116.576 17.03 L 116.576 17.03 L 116.576 17.03 C 115.682 17.41 114.649 17.6 113.476 17.6 Z M 110.456 6.3 L 108.796 6.3 L 108.796 11.84 L 110.456 11.84 L 110.456 11.84 C 111.316 11.84 111.946 11.75 112.346 11.57 L 112.346 11.57 L 112.346 11.57 C 112.739 11.39 112.936 10.977 112.936 10.33 L 112.936 10.33 L 112.936 7.81 L 112.936 7.81 C 112.936 7.163 112.739 6.75 112.346 6.57 L 112.346 6.57 L 112.346 6.57 C 111.946 6.39 111.316 6.3 110.456 6.3 L 110.456 6.3 Z M 137.236 17.28 L 137.236 23.04 L 122.836 23.04 L 122.836 0.54 L 130.036 0.54 L 130.036 17.28 L 137.236 17.28 Z M 142.526 19.48 L 141.696 23.04 L 134.106 23.04 L 139.936 0.54 L 151.056 0.54 L 156.896 23.04 L 149.296 23.04 L 148.466 19.48 L 142.526 19.48 Z M 145.696 7.45 L 145.296 7.45 L 143.826 13.75 L 147.136 13.75 L 145.696 7.45 Z M 154.3 0.54 L 162.26 0.54 L 164.24 8.46 L 164.49 8.46 L 166.5 0.54 L 174.46 0.54 L 167.98 16.92 L 167.98 23.04 L 160.78 23.04 L 160.78 16.92 L 154.3 0.54 Z M 190.659 9.32 L 190.659 14.54 L 183.459 14.54 L 183.459 17.28 L 192.279 17.28 L 192.279 23.04 L 176.259 23.04 L 176.259 0.54 L 192.099 0.54 L 191.199 6.3 L 183.459 6.3 L 183.459 9.32 L 190.659 9.32 Z M 205.419 23.04 L 195.339 23.04 L 195.339 0.54 L 205.419 0.54 L 205.419 0.54 C 209.473 0.54 212.256 1.403 213.769 3.13 L 213.769 3.13 L 213.769 3.13 C 215.283 4.857 216.039 7.743 216.039 11.79 L 216.039 11.79 L 216.039 11.79 C 216.039 15.837 215.283 18.723 213.769 20.45 L 213.769 20.45 L 213.769 20.45 C 212.256 22.177 209.473 23.04 205.419 23.04 L 205.419 23.04 Z M 205.529 6.3 L 205.529 6.3 L 202.539 6.3 L 202.539 17.28 L 205.529 17.28 L 205.529 17.28 C 206.509 17.28 207.223 17.167 207.669 16.94 L 207.669 16.94 L 207.669 16.94 C 208.116 16.713 208.339 16.19 208.339 15.37 L 208.339 15.37 L 208.339 8.21 L 208.339 8.21 C 208.339 7.39 208.116 6.867 207.669 6.64 L 207.669 6.64 L 207.669 6.64 C 207.223 6.413 206.509 6.3 205.529 6.3 Z" style="white-space: pre; fill: rgb(255, 255, 255);"/>
  <g id="Group" transform="matrix(1.297621, 0, 0, 1.330823, -0.386834, 3.139727)" fill-rule="nonzero" fill="#BBA358">
    <path d="M7.38768955,0.0828612674 C4.47840652,0.0828612674 2.05102998,2.15201569 1.49639246,4.89939133 L0.430479403,4.89939133 C0.383351189,4.89939819 0.3402699,4.92602578 0.319190054,4.9681768 C0.298110207,5.01032783 0.302648611,5.06077016 0.330913843,5.0984815 L1.93642387,7.23916154 C1.95992658,7.2705029 1.99681473,7.28894853 2.03598944,7.28894853 C2.07516415,7.28894853 2.1120523,7.2705029 2.13555501,7.23916154 L3.74106502,5.0984815 C3.76933025,5.06077016 3.77386866,5.01032783 3.75278881,4.96817681 C3.73170897,4.92602579 3.68862768,4.8993982 3.64149947,4.89939133 L2.85329604,4.89939133 C3.38233657,2.88776029 5.20860885,1.40209472 7.38768955,1.40209472 C9.98079267,1.40209472 12.0797729,3.50107499 12.0797729,6.09417811 C12.0797729,8.68728123 9.98079267,10.7862615 7.38768955,10.7862615 C5.76122625,10.7862615 4.32947857,9.95942693 3.48745781,8.70345973 C3.46435422,8.66898149 3.4255835,8.64828946 3.38408018,8.64828685 L2.144081,8.64828685 C2.1007501,8.64829914 2.06054488,8.67084858 2.03794085,8.70781647 C2.01533681,8.74478436 2.01358838,8.79084822 2.03332507,8.82942322 C3.02907526,10.774459 5.05362488,12.105495 7.38768955,12.105495 C10.706092,12.105495 13.3990064,9.41258056 13.3990064,6.09417811 C13.3990064,2.77575508 10.7060916,0.0828612674 7.38768955,0.0828612674 Z" id="path4921" style="fill: rgb(91, 187, 88);"/>
    <path d="M6.98818588,2.68890476 C6.88882618,2.68890489 6.80827927,2.7694518 6.80827914,2.86881149 L6.80827914,6.7851934 C6.80828568,6.84889377 6.84197688,6.90784161 6.89685943,6.94017801 L9.68563791,8.58364503 C9.77120442,8.63405979 9.88143723,8.60560252 9.93190783,8.52006893 L10.2037969,8.05929657 C10.2541435,7.97393375 10.2259736,7.86392976 10.1407948,7.81327241 L7.70326263,6.36389456 L7.70326263,2.86881149 C7.70326249,2.7694518 7.62271558,2.68890489 7.52335589,2.68890476 L6.98818588,2.68890476 Z" id="polygon4923" style="fill: rgb(91, 187, 88);"/>
  </g>
</svg>