<?xml version="1.0" encoding="utf-8"?>
<svg viewBox="0 0 170.08999633789062 23.579999923706055" xmlns="http://www.w3.org/2000/svg">
  <text x="202.581" y="176.129" style="white-space: pre; fill: rgb(51, 51, 51); font-family: sans-serif; font-size: 24px;"> </text>
  <path d="M 13.32 8.78 L 13.32 14.15 L 7.2 14.15 L 7.2 22.5 L 0 22.5 L 0 0 L 14.76 0 L 13.86 5.76 L 7.2 5.76 L 7.2 8.78 L 13.32 8.78 Z M 22.03 18.94 L 21.2 22.5 L 13.61 22.5 L 19.44 0 L 30.56 0 L 36.4 22.5 L 28.8 22.5 L 27.97 18.94 L 22.03 18.94 Z M 25.2 6.91 L 24.8 6.91 L 23.33 13.21 L 26.64 13.21 L 25.2 6.91 Z M 45.864 14.29 L 48.964 0 L 56.554 0 L 50.974 22.5 L 40.464 22.5 L 34.884 0 L 42.484 0 L 45.544 14.29 L 45.864 14.29 Z" style="white-space: pre; fill: rgb(255, 255, 255);"/>
  <path d="M 68.031 5.146 C 68.954 3.991 70.375 3.25 71.971 3.25 C 74.749 3.25 77 5.495 77 8.266 C 77 14.051 68.019 16.469 68.019 19.24 L 68.013 19.25 C 68.013 16.166 59 13.343 59 8.266 C 59 5.495 61.252 3.25 64.031 3.25 C 65.646 3.25 67.084 4.01 68.003 5.191 L 68.031 5.146" id="Shape" fill-rule="nonzero" style="fill: rgb(187, 88, 88);"/>
  <path d="M 97.73 15.55 L 101.62 23.04 L 93.7 23.04 L 90.75 16.34 L 89.2 16.34 L 89.2 23.04 L 82 23.04 L 82 0.54 L 93.34 0.54 L 93.34 0.54 C 98.5 0.54 101.08 3.167 101.08 8.42 L 101.08 8.42 L 101.08 8.42 C 101.08 12.02 99.963 14.397 97.73 15.55 L 97.73 15.55 Z M 90.86 6.3 L 89.2 6.3 L 89.2 10.8 L 90.86 10.8 L 90.86 10.8 C 91.72 10.8 92.35 10.71 92.75 10.53 L 92.75 10.53 L 92.75 10.53 C 93.143 10.35 93.34 9.937 93.34 9.29 L 93.34 9.29 L 93.34 7.81 L 93.34 7.81 C 93.34 7.163 93.143 6.75 92.75 6.57 L 92.75 6.57 L 92.75 6.57 C 92.35 6.39 91.72 6.3 90.86 6.3 L 90.86 6.3 Z M 111.34 23.04 L 104.14 23.04 L 104.14 0.54 L 111.34 0.54 L 111.34 23.04 Z M 130.96 0.54 L 130.96 6.3 L 125.74 6.3 L 125.74 23.04 L 118.54 23.04 L 118.54 6.3 L 113.32 6.3 L 113.32 0.54 L 130.96 0.54 Z M 147.34 9.32 L 147.34 14.54 L 140.14 14.54 L 140.14 17.28 L 148.96 17.28 L 148.96 23.04 L 132.94 23.04 L 132.94 0.54 L 148.78 0.54 L 147.88 6.3 L 140.14 6.3 L 140.14 9.32 L 147.34 9.32 Z M 151.12 22.64 L 151.12 22.64 L 152.13 16.7 L 152.13 16.7 C 154.336 17.253 156.323 17.53 158.09 17.53 L 158.09 17.53 L 158.09 17.53 C 159.85 17.53 161.27 17.46 162.35 17.32 L 162.35 17.32 L 162.35 15.52 L 159.11 15.23 L 159.11 15.23 C 156.183 14.963 154.173 14.26 153.08 13.12 L 153.08 13.12 L 153.08 13.12 C 151.986 11.98 151.44 10.293 151.44 8.06 L 151.44 8.06 L 151.44 8.06 C 151.44 4.993 152.106 2.883 153.44 1.73 L 153.44 1.73 L 153.44 1.73 C 154.773 0.577 157.036 0 160.23 0 L 160.23 0 L 160.23 0 C 163.423 0 166.303 0.3 168.87 0.9 L 168.87 0.9 L 167.97 6.66 L 167.97 6.66 C 165.736 6.3 163.946 6.12 162.6 6.12 L 162.6 6.12 L 162.6 6.12 C 161.26 6.12 160.12 6.18 159.18 6.3 L 159.18 6.3 L 159.18 8.06 L 161.78 8.32 L 161.78 8.32 C 164.92 8.627 167.09 9.377 168.29 10.57 L 168.29 10.57 L 168.29 10.57 C 169.49 11.757 170.09 13.407 170.09 15.52 L 170.09 15.52 L 170.09 15.52 C 170.09 17.027 169.886 18.303 169.48 19.35 L 169.48 19.35 L 169.48 19.35 C 169.073 20.397 168.586 21.19 168.02 21.73 L 168.02 21.73 L 168.02 21.73 C 167.46 22.27 166.663 22.683 165.63 22.97 L 165.63 22.97 L 165.63 22.97 C 164.596 23.257 163.69 23.43 162.91 23.49 L 162.91 23.49 L 162.91 23.49 C 162.13 23.55 161.093 23.58 159.8 23.58 L 159.8 23.58 L 159.8 23.58 C 156.68 23.58 153.786 23.267 151.12 22.64 Z" style="white-space: pre; fill: rgb(255, 255, 255);"/>
</svg>