<?xml version="1.0" encoding="utf-8"?>
<svg id="Layer_2" width="1606.03" height="447.53" viewBox="0 0 1577.2900390625 447.5299987792969" xmlns="http://www.w3.org/2000/svg">
  <path d="M 168.525 444.2 L 168.525 444.2 L 134.115 444.2 L 134.115 444.2 C 131.302 444.2 129.268 443.57 128.015 442.31 L 128.015 442.31 L 128.015 442.31 C 126.755 441.057 126.125 439.023 126.125 436.21 L 126.125 436.21 L 126.125 292.35 L 126.125 292.35 C 126.125 289.537 126.755 287.503 128.015 286.25 L 128.015 286.25 L 128.015 286.25 C 129.268 284.99 131.302 284.36 134.115 284.36 L 134.115 284.36 L 233.125 284.36 L 233.125 284.36 C 235.938 284.36 237.975 284.99 239.235 286.25 L 239.235 286.25 L 239.235 286.25 C 240.488 287.503 241.115 289.537 241.115 292.35 L 241.115 292.35 L 241.115 318.77 L 241.115 318.77 C 241.115 321.583 240.488 323.617 239.235 324.87 L 239.235 324.87 L 239.235 324.87 C 237.975 326.13 235.938 326.76 233.125 326.76 L 233.125 326.76 L 176.515 326.76 L 176.515 349.85 L 215.145 349.85 L 215.145 349.85 C 217.958 349.85 219.995 350.48 221.255 351.74 L 221.255 351.74 L 221.255 351.74 C 222.508 352.993 223.135 355.027 223.135 357.84 L 223.135 357.84 L 223.135 384.48 L 223.135 384.48 C 223.135 387.293 222.508 389.33 221.255 390.59 L 221.255 390.59 L 221.255 390.59 C 219.995 391.843 217.958 392.47 215.145 392.47 L 215.145 392.47 L 176.515 392.47 L 176.515 436.21 L 176.515 436.21 C 176.515 439.023 175.888 441.057 174.635 442.31 L 174.635 442.31 L 174.635 442.31 C 173.375 443.57 171.338 444.2 168.525 444.2 Z M 313.483 330.98 L 313.483 330.98 L 303.053 364.72 L 337.903 364.72 L 327.473 330.98 L 327.473 330.98 C 326.88 329.647 326.25 328.683 325.583 328.09 L 325.583 328.09 L 325.583 328.09 C 324.916 327.503 324.14 327.21 323.253 327.21 L 323.253 327.21 L 317.703 327.21 L 317.703 327.21 C 316.816 327.21 316.04 327.503 315.373 328.09 L 315.373 328.09 L 315.373 328.09 C 314.706 328.683 314.076 329.647 313.483 330.98 Z M 300.833 405.13 L 300.833 436.21 L 300.833 436.21 C 300.833 439.023 300.203 441.057 298.943 442.31 L 298.943 442.31 L 298.943 442.31 C 297.683 443.57 295.646 444.2 292.833 444.2 L 292.833 444.2 L 260.203 444.2 L 260.203 444.2 C 257.39 444.2 255.356 443.57 254.103 442.31 L 254.103 442.31 L 254.103 442.31 C 252.843 441.057 252.213 439.023 252.213 436.21 L 252.213 436.21 L 252.213 377.6 L 252.213 377.6 C 252.213 373.16 252.916 368.053 254.323 362.28 L 254.323 362.28 L 254.323 362.28 C 255.73 356.507 257.913 349.773 260.873 342.08 L 260.873 342.08 L 280.183 291.69 L 280.183 291.69 C 281.07 289.17 282.44 287.32 284.293 286.14 L 284.293 286.14 L 284.293 286.14 C 286.14 284.953 288.543 284.36 291.503 284.36 L 291.503 284.36 L 351.223 284.36 L 351.223 284.36 C 354.036 284.36 356.366 284.953 358.213 286.14 L 358.213 286.14 L 358.213 286.14 C 360.066 287.32 361.436 289.17 362.323 291.69 L 362.323 291.69 L 381.633 342.08 L 381.633 342.08 C 384.593 349.773 386.776 356.507 388.183 362.28 L 388.183 362.28 L 388.183 362.28 C 389.59 368.053 390.293 373.16 390.293 377.6 L 390.293 377.6 L 390.293 436.21 L 390.293 436.21 C 390.293 439.023 389.666 441.057 388.413 442.31 L 388.413 442.31 L 388.413 442.31 C 387.153 443.57 385.116 444.2 382.303 444.2 L 382.303 444.2 L 348.783 444.2 L 348.783 444.2 C 345.823 444.2 343.64 443.57 342.233 442.31 L 342.233 442.31 L 342.233 442.31 C 340.826 441.057 340.123 439.023 340.123 436.21 L 340.123 436.21 L 340.123 405.13 L 300.833 405.13 Z M 509.942 444.2 L 509.942 444.2 L 452.223 444.2 L 452.223 444.2 C 449.41 444.2 447.08 443.683 445.233 442.65 L 445.233 442.65 L 445.233 442.65 C 443.38 441.61 441.936 439.683 440.903 436.87 L 440.903 436.87 L 419.143 382.48 L 419.143 382.48 C 417.81 379.227 416.7 376.38 415.813 373.94 L 415.813 373.94 L 415.813 373.94 C 414.926 371.493 414.186 369.16 413.593 366.94 L 413.593 366.94 L 413.593 366.94 C 413 364.72 412.593 362.39 412.373 359.95 L 412.373 359.95 L 412.373 359.95 C 412.153 357.51 412.043 354.513 412.043 350.96 L 412.043 350.96 L 412.043 292.35 L 412.043 292.35 C 412.043 289.537 412.673 287.503 413.933 286.25 L 413.933 286.25 L 413.933 286.25 C 415.186 284.99 417.22 284.36 420.033 284.36 L 420.033 284.36 L 455.333 284.36 L 455.333 284.36 C 458.146 284.36 460.293 284.99 461.773 286.25 L 461.773 286.25 L 461.773 286.25 C 463.253 287.503 463.993 289.537 463.993 292.35 L 463.993 292.35 L 463.993 353.62 L 463.993 353.62 C 463.993 355.1 464.14 356.58 464.433 358.06 L 464.433 358.06 L 464.433 358.06 C 464.726 359.54 465.17 361.097 465.763 362.73 L 465.763 362.73 L 476.203 393.81 L 476.203 393.81 C 476.643 395.29 477.16 396.287 477.753 396.8 L 477.753 396.8 L 477.753 396.8 C 478.346 397.32 479.233 397.58 480.413 397.58 L 480.413 397.58 L 482.863 397.58 L 482.863 397.58 C 484.043 397.58 484.93 397.32 485.523 396.8 L 485.523 396.8 L 485.523 396.8 C 486.116 396.287 486.633 395.29 487.073 393.81 L 487.073 393.81 L 497.513 362.5 L 497.513 362.5 C 498.106 360.873 498.55 359.32 498.843 357.84 L 498.843 357.84 L 498.843 357.84 C 499.136 356.36 499.283 354.88 499.283 353.4 L 499.283 353.4 L 499.283 292.35 L 499.283 292.35 C 499.283 289.537 499.913 287.503 501.173 286.25 L 501.173 286.25 L 501.173 286.25 C 502.433 284.99 504.47 284.36 507.283 284.36 L 507.283 284.36 L 542.133 284.36 L 542.133 284.36 C 544.946 284.36 546.983 284.99 548.243 286.25 L 548.243 286.25 L 548.243 286.25 C 549.496 287.503 550.123 289.537 550.123 292.35 L 550.123 292.35 L 550.123 350.96 L 550.123 350.96 C 550.123 354.513 550.013 357.51 549.793 359.95 L 549.793 359.95 L 549.793 359.95 C 549.573 362.39 549.166 364.72 548.573 366.94 L 548.573 366.94 L 548.573 366.94 C 547.98 369.16 547.24 371.493 546.353 373.94 L 546.353 373.94 L 546.353 373.94 C 545.466 376.38 544.356 379.227 543.023 382.48 L 543.023 382.48 L 521.263 436.87 L 521.263 436.87 C 520.23 439.683 518.786 441.61 516.932 442.65 L 516.932 442.65 L 516.932 442.65 C 515.086 443.683 512.756 444.2 509.942 444.2 Z M 712.843 326.54 L 712.843 402.24 L 712.843 402.24 C 712.843 409.047 711.843 415.227 709.843 420.78 L 709.843 420.78 L 709.843 420.78 C 707.843 426.327 704.293 431.063 699.192 434.99 L 699.192 434.99 L 699.192 434.99 C 694.086 438.91 687.056 441.98 678.103 444.2 L 678.103 444.2 L 678.103 444.2 C 669.143 446.42 657.783 447.53 644.023 447.53 L 644.023 447.53 L 644.023 447.53 C 630.255 447.53 618.859 446.42 609.833 444.2 L 609.833 444.2 L 609.833 444.2 C 600.806 441.98 593.74 438.91 588.633 434.99 L 588.633 434.99 L 588.633 434.99 C 583.526 431.063 579.973 426.327 577.973 420.78 L 577.973 420.78 L 577.973 420.78 C 575.98 415.227 574.983 409.047 574.983 402.24 L 574.983 402.24 L 574.983 326.54 L 574.983 326.54 C 574.983 319.733 575.98 313.553 577.973 308 L 577.973 308 L 577.973 308 C 579.973 302.453 583.526 297.68 588.633 293.68 L 588.633 293.68 L 588.633 293.68 C 593.74 289.687 600.806 286.58 609.833 284.36 L 609.833 284.36 L 609.833 284.36 C 618.859 282.14 630.255 281.03 644.023 281.03 L 644.023 281.03 L 644.023 281.03 C 657.783 281.03 669.143 282.14 678.103 284.36 L 678.103 284.36 L 678.103 284.36 C 687.056 286.58 694.086 289.687 699.192 293.68 L 699.192 293.68 L 699.192 293.68 C 704.293 297.68 707.843 302.453 709.843 308 L 709.843 308 L 709.843 308 C 711.843 313.553 712.843 319.733 712.843 326.54 L 712.843 326.54 Z M 625.373 334.53 L 625.373 394.25 L 625.373 394.25 C 625.373 397.21 626.483 399.69 628.703 401.69 L 628.703 401.69 L 628.703 401.69 C 630.923 403.683 636.03 404.68 644.023 404.68 L 644.023 404.68 L 644.023 404.68 C 652.015 404.68 657.123 403.683 659.343 401.69 L 659.343 401.69 L 659.343 401.69 C 661.563 399.69 662.673 397.21 662.673 394.25 L 662.673 394.25 L 662.673 334.53 L 662.673 334.53 C 662.673 331.717 661.563 329.313 659.343 327.32 L 659.343 327.32 L 659.343 327.32 C 657.123 325.32 652.015 324.32 644.023 324.32 L 644.023 324.32 L 644.023 324.32 C 636.03 324.32 630.923 325.32 628.703 327.32 L 628.703 327.32 L 628.703 327.32 C 626.483 329.313 625.373 331.717 625.373 334.53 L 625.373 334.53 Z M 807.847 324.32 L 791.197 324.32 L 791.197 352.74 L 807.847 352.74 L 807.847 352.74 C 811.692 352.74 814.283 351.74 815.617 349.74 L 815.617 349.74 L 815.617 349.74 C 816.95 347.74 817.617 345.26 817.617 342.3 L 817.617 342.3 L 817.617 334.75 L 817.617 334.75 C 817.617 331.79 816.95 329.313 815.617 327.32 L 815.617 327.32 L 815.617 327.32 C 814.283 325.32 811.692 324.32 807.847 324.32 L 807.847 324.32 Z M 783.207 444.2 L 783.207 444.2 L 749.017 444.2 L 749.017 444.2 C 746.203 444.2 744.17 443.57 742.917 442.31 L 742.917 442.31 L 742.917 442.31 C 741.657 441.057 741.027 439.023 741.027 436.21 L 741.027 436.21 L 741.027 292.35 L 741.027 292.35 C 741.027 289.537 741.657 287.503 742.917 286.25 L 742.917 286.25 L 742.917 286.25 C 744.17 284.99 746.203 284.36 749.017 284.36 L 749.017 284.36 L 822.947 284.36 L 822.947 284.36 C 839.52 284.36 850.95 287.8 857.237 294.68 L 857.237 294.68 L 857.237 294.68 C 863.53 301.567 866.677 310.483 866.677 321.43 L 866.677 321.43 L 866.677 331.65 L 866.677 331.65 C 866.677 337.863 865.75 343.153 863.897 347.52 L 863.897 347.52 L 863.897 347.52 C 862.05 351.887 858.833 355.03 854.247 356.95 L 854.247 356.95 L 854.247 356.95 C 862.24 357.843 868.713 361.1 873.667 366.72 L 873.667 366.72 L 873.667 366.72 C 878.627 372.347 881.107 379.82 881.107 389.14 L 881.107 389.14 L 881.107 436.21 L 881.107 436.21 C 881.107 439.023 880.477 441.057 879.217 442.31 L 879.217 442.31 L 879.217 442.31 C 877.963 443.57 875.93 444.2 873.117 444.2 L 873.117 444.2 L 838.707 444.2 L 838.707 444.2 C 835.893 444.2 833.857 443.57 832.597 442.31 L 832.597 442.31 L 832.597 442.31 C 831.343 441.057 830.717 439.023 830.717 436.21 L 830.717 436.21 L 830.717 402.24 L 830.717 402.24 C 830.717 398.987 830.087 396.583 828.827 395.03 L 828.827 395.03 L 828.827 395.03 C 827.567 393.477 825.383 392.7 822.276 392.7 L 822.276 392.7 L 791.197 392.7 L 791.197 436.21 L 791.197 436.21 C 791.197 439.023 790.567 441.057 789.307 442.31 L 789.307 442.31 L 789.307 442.31 C 788.053 443.57 786.02 444.2 783.207 444.2 Z M 1004.973 444.2 L 910.403 444.2 L 910.403 444.2 C 907.588 444.2 905.552 443.57 904.293 442.31 L 904.293 442.31 L 904.293 442.31 C 903.039 441.057 902.413 439.023 902.413 436.21 L 902.413 436.21 L 902.413 409.79 L 902.413 409.79 C 902.413 406.977 903.039 404.94 904.293 403.68 L 904.293 403.68 L 904.293 403.68 C 905.552 402.427 907.588 401.8 910.403 401.8 L 910.403 401.8 L 932.383 401.8 L 932.383 327.21 L 910.403 327.21 L 910.403 327.21 C 907.588 327.21 905.552 326.58 904.293 325.32 L 904.293 325.32 L 904.293 325.32 C 903.039 324.06 902.413 322.023 902.413 319.21 L 902.413 319.21 L 902.413 292.35 L 902.413 292.35 C 902.413 289.537 903.039 287.503 904.293 286.25 L 904.293 286.25 L 904.293 286.25 C 905.552 284.99 907.588 284.36 910.403 284.36 L 910.403 284.36 L 1004.973 284.36 L 1004.973 284.36 C 1007.786 284.36 1009.823 284.99 1011.083 286.25 L 1011.083 286.25 L 1011.083 286.25 C 1012.336 287.503 1012.963 289.537 1012.963 292.35 L 1012.963 292.35 L 1012.963 319.21 L 1012.963 319.21 C 1012.963 322.023 1012.336 324.06 1011.083 325.32 L 1011.083 325.32 L 1011.083 325.32 C 1009.823 326.58 1007.786 327.21 1004.973 327.21 L 1004.973 327.21 L 983.442 327.21 L 983.442 401.8 L 1004.973 401.8 L 1004.973 401.8 C 1007.786 401.8 1009.823 402.427 1011.083 403.68 L 1011.083 403.68 L 1011.083 403.68 C 1012.336 404.94 1012.963 406.977 1012.963 409.79 L 1012.963 409.79 L 1012.963 436.21 L 1012.963 436.21 C 1012.963 439.023 1012.336 441.057 1011.083 442.31 L 1011.083 442.31 L 1011.083 442.31 C 1009.823 443.57 1007.786 444.2 1004.973 444.2 L 1004.973 444.2 Z M 1115.744 444.2 L 1115.744 444.2 L 1079.774 444.2 L 1079.774 444.2 C 1076.967 444.2 1074.934 443.57 1073.674 442.31 L 1073.674 442.31 L 1073.674 442.31 C 1072.414 441.057 1071.784 439.023 1071.784 436.21 L 1071.784 436.21 L 1071.784 327.21 L 1039.154 327.21 L 1039.154 327.21 C 1036.341 327.21 1034.304 326.58 1033.044 325.32 L 1033.044 325.32 L 1033.044 325.32 C 1031.791 324.06 1031.164 322.023 1031.164 319.21 L 1031.164 319.21 L 1031.164 292.35 L 1031.164 292.35 C 1031.164 289.537 1031.791 287.503 1033.044 286.25 L 1033.044 286.25 L 1033.044 286.25 C 1034.304 284.99 1036.341 284.36 1039.154 284.36 L 1039.154 284.36 L 1156.364 284.36 L 1156.364 284.36 C 1159.177 284.36 1161.213 284.99 1162.474 286.25 L 1162.474 286.25 L 1162.474 286.25 C 1163.734 287.503 1164.364 289.537 1164.364 292.35 L 1164.364 292.35 L 1164.364 319.21 L 1164.364 319.21 C 1164.364 322.023 1163.734 324.06 1162.474 325.32 L 1162.474 325.32 L 1162.474 325.32 C 1161.213 326.58 1159.177 327.21 1156.364 327.21 L 1156.364 327.21 L 1123.734 327.21 L 1123.734 436.21 L 1123.734 436.21 C 1123.734 439.023 1123.104 441.057 1121.844 442.31 L 1121.844 442.31 L 1121.844 442.31 C 1120.591 443.57 1118.557 444.2 1115.744 444.2 Z M 1296.887 444.2 L 1296.887 444.2 L 1193.877 444.2 L 1193.877 444.2 C 1191.064 444.2 1189.031 443.57 1187.776 442.31 L 1187.776 442.31 L 1187.776 442.31 C 1186.516 441.057 1185.887 439.023 1185.887 436.21 L 1185.887 436.21 L 1185.887 292.35 L 1185.887 292.35 C 1185.887 289.537 1186.516 287.503 1187.776 286.25 L 1187.776 286.25 L 1187.776 286.25 C 1189.031 284.99 1191.064 284.36 1193.877 284.36 L 1193.877 284.36 L 1296.887 284.36 L 1296.887 284.36 C 1299.701 284.36 1301.734 284.99 1302.987 286.25 L 1302.987 286.25 L 1302.987 286.25 C 1304.247 287.503 1304.877 289.537 1304.877 292.35 L 1304.877 292.35 L 1304.877 318.33 L 1304.877 318.33 C 1304.877 321.137 1304.247 323.17 1302.987 324.43 L 1302.987 324.43 L 1302.987 324.43 C 1301.734 325.69 1299.701 326.32 1296.887 326.32 L 1296.887 326.32 L 1235.617 326.32 L 1235.617 343.41 L 1278.907 343.41 L 1278.907 343.41 C 1281.714 343.41 1283.747 344.04 1285.007 345.3 L 1285.007 345.3 L 1285.007 345.3 C 1286.267 346.56 1286.897 348.593 1286.897 351.4 L 1286.897 351.4 L 1286.897 375.16 L 1286.897 375.16 C 1286.897 377.973 1286.267 380.007 1285.007 381.26 L 1285.007 381.26 L 1285.007 381.26 C 1283.747 382.52 1281.714 383.15 1278.907 383.15 L 1278.907 383.15 L 1235.617 383.15 L 1235.617 402.24 L 1296.887 402.24 L 1296.887 402.24 C 1299.701 402.24 1301.734 402.87 1302.987 404.13 L 1302.987 404.13 L 1302.987 404.13 C 1304.247 405.39 1304.877 407.423 1304.877 410.23 L 1304.877 410.23 L 1304.877 436.21 L 1304.877 436.21 C 1304.877 439.023 1304.247 441.057 1302.987 442.31 L 1302.987 442.31 L 1302.987 442.31 C 1301.734 443.57 1299.701 444.2 1296.887 444.2 Z M 1405.216 444.2 L 1405.216 444.2 L 1335.056 444.2 L 1335.056 444.2 C 1332.249 444.2 1330.216 443.57 1328.956 442.31 L 1328.956 442.31 L 1328.956 442.31 C 1327.696 441.057 1327.066 439.023 1327.066 436.21 L 1327.066 436.21 L 1327.066 410.23 L 1327.066 410.23 C 1327.066 407.423 1327.696 405.39 1328.956 404.13 L 1328.956 404.13 L 1328.956 404.13 C 1330.216 402.87 1332.249 402.24 1335.056 402.24 L 1335.056 402.24 L 1394.776 402.24 L 1394.776 402.24 C 1396.703 402.24 1398.146 401.613 1399.106 400.36 L 1399.106 400.36 L 1399.106 400.36 C 1400.066 399.1 1400.546 397.58 1400.546 395.8 L 1400.546 395.8 L 1400.546 395.8 C 1400.546 393.287 1400.066 391.437 1399.106 390.25 L 1399.106 390.25 L 1399.106 390.25 C 1398.146 389.07 1396.703 388.407 1394.776 388.26 L 1394.776 388.26 L 1361.476 383.59 L 1361.476 383.59 C 1351.116 382.11 1342.793 378.707 1336.506 373.38 L 1336.506 373.38 L 1336.506 373.38 C 1330.213 368.053 1327.066 359.173 1327.066 346.74 L 1327.066 346.74 L 1327.066 323.43 L 1327.066 323.43 C 1327.066 310.85 1331.136 301.193 1339.276 294.46 L 1339.276 294.46 L 1339.276 294.46 C 1347.416 287.727 1358.666 284.36 1373.026 284.36 L 1373.026 284.36 L 1435.186 284.36 L 1435.186 284.36 C 1437.993 284.36 1440.026 284.99 1441.286 286.25 L 1441.286 286.25 L 1441.286 286.25 C 1442.546 287.503 1443.176 289.537 1443.176 292.35 L 1443.176 292.35 L 1443.176 318.77 L 1443.176 318.77 C 1443.176 321.583 1442.546 323.617 1441.286 324.87 L 1441.286 324.87 L 1441.286 324.87 C 1440.026 326.13 1437.993 326.76 1435.186 326.76 L 1435.186 326.76 L 1383.456 326.76 L 1383.456 326.76 C 1381.529 326.76 1380.05 327.39 1379.016 328.65 L 1379.016 328.65 L 1379.016 328.65 C 1377.983 329.91 1377.466 331.5 1377.466 333.42 L 1377.466 333.42 L 1377.466 333.42 C 1377.466 335.347 1377.983 336.977 1379.016 338.31 L 1379.016 338.31 L 1379.016 338.31 C 1380.05 339.637 1381.529 340.377 1383.456 340.53 L 1383.456 340.53 L 1416.536 344.97 L 1416.536 344.97 C 1426.896 346.45 1435.256 349.853 1441.616 355.18 L 1441.616 355.18 L 1441.616 355.18 C 1447.983 360.507 1451.166 369.387 1451.166 381.82 L 1451.166 381.82 L 1451.166 405.13 L 1451.166 405.13 C 1451.166 417.71 1447.06 427.367 1438.846 434.1 L 1438.846 434.1 L 1438.846 434.1 C 1430.633 440.833 1419.423 444.2 1405.216 444.2 Z" style="white-space: pre; fill: rgb(187, 187, 187);"/>
  <g transform="matrix(0.719488, 0, 0, 0.719488, 1.479346, -2.709701)">
    <g id="g236">
      <path d="m 1873.1,447.11 c -0,-0.005 -36,-44.438 -56.767,-70.271 -6.948,-8.647 -12.102,-15.091 -13.915,-17.459 -2.52,-3.319 -4.314,-5.711 -5.493,-6.885 -1.24,-1.194 -1.428,-1.258 -2.363,-1.588 -0.648,-0.195 -1.811,-0.406 -3.803,-0.406 h -85.001 c -2.765,0 -5.47,-1.118 -7.423,-3.074 -1.955,-1.955 -3.076,-4.66 -3.076,-7.425 v -12.501 h -73.999 c -2.767,0 -5.47,-1.121 -7.425,-3.074 -1.955,-1.955 -3.076,-4.66 -3.076,-7.425 v -57.001 c 0,-2.765 1.121,-5.47 3.076,-7.425 1.955,-1.955 4.658,-3.074 7.425,-3.074 l 74.999,-0.002 v -1.999 h -77 c -2.765,0 -5.47,-1.119 -7.425,-3.074 -1.953,-1.955 -3.074,-4.66 -3.074,-7.425 v -54 c 0,-2.765 1.121,-5.47 3.074,-7.425 1.955,-1.956 4.66,-3.074 7.425,-3.074 l 74.998,-0.002 v -1.999 h -90 v 169.5 c 0,2.765 -1.118,5.467 -3.074,7.423 -1.955,1.955 -4.658,3.076 -7.423,3.076 h -64.501 c -2.765,0 -5.47,-1.118 -7.425,-3.074 -1.953,-1.955 -3.074,-4.66 -3.074,-7.425 l -0,-189.5 h -4.5 v 189.5 c 0,2.765 -1.118,5.467 -3.074,7.423 -1.955,1.955 -4.658,3.076 -7.423,3.076 h -157.5 c -2.767,0 -5.47,-1.118 -7.425,-3.074 -1.955,-1.955 -3.076,-4.66 -3.076,-7.425 v -135.5 c 0,-2.765 1.121,-5.47 3.076,-7.425 1.955,-1.956 4.658,-3.076 7.425,-3.076 h 81.998 v -99.5 h -101.5 v 246.5 c 0,2.765 -1.121,5.47 -3.076,7.426 -1.953,1.953 -4.658,3.074 -7.423,3.074 h -122.5 c -2.767,0 -5.47,-1.119 -7.425,-3.074 -1.956,-1.956 -3.076,-4.661 -3.076,-7.426 v -36 c 0,-2.765 1.12,-5.47 3.076,-7.425 1.955,-1.955 4.658,-3.074 7.425,-3.074 l 47.499,-0.002 V 169 h -124 v 125.5 h 45.502 c 2.765,0 5.47,1.119 7.425,3.074 1.956,1.955 3.074,4.66 3.074,7.425 v 36 c 0,2.765 -1.121,5.47 -3.076,7.426 -1.956,1.953 -4.658,3.074 -7.423,3.074 h -111.5 c -3.131,-0.015 -6.659,-0.019 -10.691,-0.915 -4.014,-0.871 -8.395,-2.879 -12.111,-6.086 -0.648,-0.564 -0.848,-0.787 -1.191,-1.128 -0.312,-0.321 -0.642,-0.668 -1.022,-1.073 -0.752,-0.805 -1.694,-1.829 -2.824,-3.076 -2.258,-2.49 -5.264,-5.846 -8.773,-9.793 -7.02,-7.889 -16.051,-18.124 -24.98,-28.272 -17.86,-20.297 -35.305,-40.239 -35.308,-40.243 -2.712,-3.098 -3.36,-7.504 -1.659,-11.252 1.7,-3.75 5.444,-6.161 9.562,-6.161 h 68.999 V 170 h -87.999 v 170 c 0,2.765 -1.121,5.467 -3.076,7.423 -1.953,1.955 -4.658,3.076 -7.423,3.076 h -64 c -2.767,0 -5.47,-1.121 -7.425,-3.076 -1.956,-1.956 -3.076,-4.658 -3.076,-7.423 V 107.96 c 0,-2.765 1.121,-5.47 3.076,-7.425 1.956,-1.953 4.658,-3.074 7.425,-3.074 h 85.497 v -4.5 h -195.42 v 4.5 h 84.001 c 2.765,0 5.47,1.121 7.423,3.074 1.955,1.956 3.076,4.661 3.076,7.425 v 232 c 0,2.765 -1.121,5.467 -3.076,7.423 -1.953,1.958 -4.658,3.076 -7.423,3.076 H 778.34 c -2.765,0 -5.467,-1.118 -7.422,-3.074 -1.956,-1.955 -3.077,-4.66 -3.077,-7.425 v -13.503 h -76 c -2.765,0 -5.469,-1.118 -7.422,-3.073 -1.956,-1.953 -3.077,-4.658 -3.077,-7.423 V 258.96 c 0,-2.768 1.121,-5.47 3.074,-7.425 1.956,-1.956 4.66,-3.074 7.425,-3.074 l 76,-0.003 v -2.498 h -76.5 c -2.765,0 -5.47,-1.121 -7.425,-3.074 -1.955,-1.956 -3.074,-4.661 -3.074,-7.426 v -53.5 c 0,-2.765 1.119,-5.47 3.074,-7.425 1.956,-1.956 4.661,-3.076 7.425,-3.076 h 77 v -3.001 h -91.5 v 171.5 c 0,2.765 -1.121,5.467 -3.076,7.423 -1.956,1.958 -4.658,3.076 -7.423,3.076 h -67 c -1.116,-0.005 -2.322,-0.027 -3.769,-0.247 -1.435,-0.209 -3.058,-0.686 -4.372,-1.282 -2.675,-1.247 -3.996,-2.313 -6.185,-3.734 -1.142,-0.783 -1.568,-1.258 -1.983,-1.666 -0.39,-0.403 -0.665,-0.729 -0.929,-1.046 -0.513,-0.628 -0.951,-1.222 -1.435,-1.897 -0.951,-1.335 -2.036,-2.962 -3.314,-4.942 -2.549,-3.95 -5.839,-9.267 -9.653,-15.548 -7.623,-12.553 -17.31,-28.923 -26.856,-45.199 -19.089,-32.545 -37.595,-64.685 -37.604,-64.696 -1.873,-3.253 -1.868,-7.249 0.009,-10.497 1.877,-3.246 5.339,-5.243 9.089,-5.243 l 81.5,-0.002 v -100 h -99.58 l -1.438,245.56 c -0.034,5.735 -4.702,10.403 -10.437,10.439 -0.03,0 -82.435,0.5 -86.062,0.5 -6.281,0.014 -11.354,-2.072 -14.664,-4.182 -3.172,-2.012 -4.93,-4.003 -5.549,-4.748 l -0.001,0.001 -76.876,-92.877 v 0.002 c -3.698,-4.468 -3.074,-11.089 1.394,-14.784 4.468,-3.697 11.086,-3.074 14.784,1.395 l 76.744,92.714 c 0.099,0.093 0.351,0.313 0.708,0.536 0.752,0.452 1.74,0.931 3.461,0.944 1.632,0 23.213,-0.126 44.249,-0.25 11.746,-0.07 23.342,-0.14 31.311,-0.188 l 1.44,-245.62 c 0.032,-5.768 4.731,-10.438 10.499,-10.438 h 120.5 c 2.765,0 5.469,1.119 7.422,3.074 1.956,1.956 3.077,4.661 3.077,7.425 v 121 c 0,2.765 -1.121,5.47 -3.077,7.425 -1.953,1.953 -4.658,3.074 -7.422,3.074 h -73.809 c 3.11,5.373 6.855,11.833 10.976,18.918 11.49,19.761 25.895,44.396 37.511,63.808 7.721,12.91 14.289,23.618 17.663,28.632 0.464,0.697 0.882,1.293 1.182,1.709 0.615,0.409 1.095,0.723 1.425,0.934 0.017,10e-4 0.034,10e-4 0.052,10e-4 2.599,-0.002 38.303,-0.003 56.499,-0.002 v -171.5 c 0,-2.765 1.121,-5.47 3.077,-7.423 1.956,-1.956 4.658,-3.077 7.425,-3.077 h 112.5 c 2.765,0 5.467,1.121 7.423,3.077 1.955,1.953 3.076,4.658 3.076,7.423 v 24.001 c 0,2.765 -1.121,5.47 -3.076,7.423 -1.956,1.955 -4.658,3.076 -7.423,3.076 h -77.002 v 32.5 h 76.5 c 2.765,0 5.47,1.121 7.425,3.076 1.956,1.955 3.077,4.658 3.077,7.425 v 23.5 c 0,2.765 -1.121,5.467 -3.077,7.423 -1.956,1.958 -4.661,3.076 -7.425,3.076 l -76,-0.002 v 36.002 h 76 c 2.765,0 5.47,1.121 7.425,3.076 1.956,1.956 3.077,4.658 3.077,7.426 v 13.497 h 43.498 v -211 h -83.998 c -2.765,0 -5.47,-1.119 -7.425,-3.074 -1.956,-1.956 -3.077,-4.661 -3.077,-7.425 V 82.445 c 0,-2.767 1.121,-5.47 3.077,-7.425 1.956,-1.956 4.661,-3.077 7.425,-3.077 h 216.5 c 2.765,0 5.47,1.121 7.425,3.077 1.956,1.955 3.074,4.658 3.074,7.425 v 25.499 c 0,2.765 -1.118,5.47 -3.074,7.425 -1.955,1.955 -4.66,3.076 -7.425,3.076 h -85.5 v 211 h 43.001 v -170 c 0,-2.765 1.121,-5.47 3.076,-7.425 1.956,-1.956 4.661,-3.076 7.425,-3.076 h 109 c 2.765,0 5.47,1.121 7.425,3.076 1.955,1.956 3.074,4.661 3.074,7.425 v 94.5 c 0,2.765 -1.121,5.468 -3.076,7.423 -1.953,1.955 -4.658,3.076 -7.423,3.076 h -56.342 c 4.75,5.417 10.236,11.667 15.898,18.108 16.278,18.516 34.146,38.746 39.771,44.816 0.504,0.547 0.932,0.995 1.141,1.211 1.172,0.931 1.792,1.164 2.972,1.467 1.218,0.291 3.188,0.41 6.059,0.398 4.831,-0.002 74.167,-0.002 101,-0.001 v -15 h -45.502 c -2.765,0 -5.47,-1.121 -7.423,-3.074 -1.956,-1.956 -3.077,-4.661 -3.077,-7.426 v -146.5 c 0,-2.767 1.121,-5.47 3.077,-7.425 1.953,-1.956 4.658,-3.076 7.423,-3.076 h 145 c 2.765,0 5.47,1.121 7.423,3.076 1.956,1.956 3.077,4.658 3.077,7.425 v 146.5 c 0,2.765 -1.121,5.47 -3.077,7.426 -1.955,1.953 -4.658,3.074 -7.423,3.074 h -47.503 v 14.999 h 101.5 v -246.5 c 0,-2.765 1.119,-5.47 3.074,-7.425 1.956,-1.956 4.661,-3.074 7.426,-3.074 h 122.5 c 2.765,0 5.47,1.119 7.425,3.074 1.956,1.956 3.074,4.661 3.074,7.425 v 120.5 c 0,2.765 -1.118,5.47 -3.074,7.423 -1.955,1.955 -4.66,3.076 -7.425,3.076 h -82.002 v 114.5 h 136.5 v -189.5 c 0,-2.765 1.121,-5.47 3.076,-7.423 1.955,-1.956 4.658,-3.077 7.425,-3.077 h 25.499 c 2.765,0 5.47,1.121 7.425,3.077 1.956,1.955 3.074,4.658 3.074,7.423 v 189.5 h 43.501 v -169.5 c 0,-2.765 1.121,-5.47 3.076,-7.425 1.956,-1.955 4.658,-3.074 7.425,-3.074 h 111 c 2.765,0 5.47,1.119 7.425,3.074 1.956,1.956 3.074,4.661 3.074,7.425 v 23 c 0,2.765 -1.118,5.47 -3.074,7.425 -1.955,1.953 -4.66,3.074 -7.425,3.074 h -75.001 v 33.001 h 77.002 c 2.765,0 5.47,1.119 7.426,3.074 1.953,1.956 3.073,4.661 3.073,7.426 v 22.999 c 0,2.765 -1.12,5.47 -3.076,7.426 -1.955,1.953 -4.658,3.074 -7.423,3.074 h -75.003 v 36 h 74.001 c 2.765,0 5.47,1.12 7.426,3.076 1.955,1.955 3.074,4.658 3.074,7.425 v 12.499 c 21.961,-10e-4 71.016,-10e-4 74.501,-10e-4 3.425,0.003 6.657,0.351 9.761,1.268 3.093,0.901 5.967,2.431 8.28,4.234 4.663,3.705 7.15,7.597 10.3,11.62 1.059,1.39 4.34,5.514 8.773,11.043 4.449,5.552 10.125,12.605 16.223,20.166 12.196,15.123 26.074,32.282 35.224,43.588 6.1,7.537 10.089,12.459 10.1,12.473 3.649,4.507 2.955,11.118 -1.55,14.769 -1.945,1.575 -4.282,2.341 -6.604,2.341 -3.2,0 -6.2,-1.32 -8.3,-3.89 z" id="path238" style="fill:#fee600"/>
      <path d="m 1881.3,456.5 c -4.638,0.008 -9.288,-2.034 -12.439,-5.928 l 10e-4,-0.002 c -0.194,-0.238 -36.054,-44.505 -56.78,-70.286 -6.963,-8.667 -12.089,-15.072 -14.009,-17.579 -2.411,-3.199 -4.271,-5.596 -4.935,-6.256 -0.133,-0.127 -0.245,-0.232 -0.335,-0.315 -0.081,-0.015 -0.188,-0.031 -0.322,-0.048 -0.353,-0.044 -0.898,-0.087 -1.686,-0.085 h -85.002 c -4.248,-0.009 -8.301,-1.684 -11.312,-4.686 -3,-3.012 -4.677,-7.062 -4.688,-11.313 v -7 h -68.498 c -4.253,-0.012 -8.301,-1.69 -11.314,-4.686 -0.063,-0.063 -0.125,-0.128 -0.188,-0.192 v 11.878 c -0.01,4.247 -1.686,8.3 -4.686,11.312 -3.012,2.997 -7.06,4.679 -11.312,4.688 h -64.501 c -4.248,-0.009 -8.301,-1.684 -11.316,-4.688 -0.519,-0.521 -0.997,-1.074 -1.435,-1.652 -0.438,0.579 -0.918,1.131 -1.437,1.652 -3.012,2.997 -7.06,4.679 -11.312,4.688 h -157.5 c -4.248,-0.009 -8.301,-1.684 -11.314,-4.686 -1.523,-1.53 -2.706,-3.328 -3.503,-5.285 -0.776,2.344 -2.091,4.497 -3.87,6.285 -3.012,2.997 -7.06,4.676 -11.312,4.686 h -122.5 c -4.249,-0.01 -8.302,-1.686 -11.313,-4.686 -2.05,-2.06 -3.482,-4.603 -4.188,-7.362 -0.705,2.761 -2.139,5.304 -4.19,7.367 -3.009,2.99 -7.057,4.671 -11.309,4.681 h -111.53 c -3.114,-0.019 -7.164,-0.002 -11.831,-1.041 -4.904,-1.071 -10.051,-3.438 -14.557,-7.312 -0.76,-0.654 -1.236,-1.156 -1.452,-1.369 l -0.039,-0.039 -0.037,-0.039 c -0.337,-0.347 -0.688,-0.716 -1.091,-1.147 -0.778,-0.83 -1.739,-1.873 -2.884,-3.137 -2.277,-2.512 -5.291,-5.876 -8.807,-9.832 -7.031,-7.901 -16.067,-18.142 -25.001,-28.295 -17.866,-20.304 -35.312,-40.248 -35.317,-40.252 -0.54,-0.618 -1.026,-1.27 -1.458,-1.949 v 77.413 c -0.009,4.252 -1.69,8.3 -4.686,11.312 -3.011,2.999 -7.062,4.679 -11.311,4.688 h -64.001 c -4.252,-0.009 -8.303,-1.69 -11.314,-4.688 -0.62,-0.623 -1.183,-1.29 -1.687,-1.993 -0.502,0.702 -1.064,1.367 -1.682,1.988 -3.016,3.009 -7.07,4.684 -11.316,4.692 h -64.74 c -4.248,-0.009 -8.3,-1.686 -11.312,-4.686 -2.998,-3.012 -4.679,-7.062 -4.688,-11.313 v -8.002 h -70.499 c -3.447,-0.008 -6.764,-1.111 -9.5,-3.129 v 11.131 c -0.009,4.252 -1.69,8.3 -4.686,11.309 -3.014,3.005 -7.066,4.682 -11.313,4.69 h -67.024 c -1.172,-0.005 -2.731,-0.03 -4.539,-0.305 -2.023,-0.303 -3.991,-0.884 -5.901,-1.739 -3.181,-1.481 -4.949,-2.876 -6.857,-4.107 l -0.06,-0.036 -0.057,-0.042 c -1.434,-0.956 -2.479,-2.024 -2.727,-2.279 l -0.05,-0.048 -0.048,-0.051 c -0.521,-0.537 -0.922,-1.014 -1.231,-1.388 -0.619,-0.759 -1.14,-1.466 -1.656,-2.186 -1.029,-1.447 -2.153,-3.133 -3.456,-5.153 -2.599,-4.025 -5.906,-9.369 -9.733,-15.674 -7.649,-12.598 -17.346,-28.982 -26.9,-45.272 -17.089,-29.136 -33.719,-57.958 -37.024,-63.69 l -0.738,126.06 c -0.066,8.758 -7.131,15.83 -15.919,15.907 h -0.046 c -0.039,0 -0.098,0 -0.176,0.002 -0.158,0 -0.39,0.003 -0.693,0.003 -0.605,0.004 -1.495,0.009 -2.626,0.016 -2.264,0.014 -5.5,0.034 -9.392,0.058 -7.786,0.046 -18.203,0.11 -28.732,0.172 -21.072,0.124 -42.539,0.25 -44.413,0.25 h -0.062 c -7.495,-0.009 -13.52,-2.477 -17.547,-5.036 -0.919,-0.583 -1.746,-1.169 -2.483,-1.738 l -0.507,0.506 -70.992,-85.766 -9.736,-11.761 c -2.46,-2.971 -3.681,-6.617 -3.676,-10.199 -0.004,-2.942 0.816,-5.892 2.413,-8.46 v -0.12 l 0.043,0.052 c 0.884,-1.404 2.001,-2.693 3.345,-3.802 2.968,-2.461 6.614,-3.681 10.197,-3.676 4.58,-0.008 9.176,1.985 12.332,5.8 l 76.291,92.168 c 0.047,0.004 0.149,0.009 0.384,0.034 1.571,0 23.194,-0.127 44.216,-0.25 9.292,-0.057 18.491,-0.111 25.875,-0.156 l 1.409,-240.19 c 0.06,-8.802 7.199,-15.898 15.999,-15.907 h 120.5 c 4.25,0.011 8.302,1.686 11.311,4.686 3,3.014 4.679,7.064 4.688,11.316 v 121 c -0.009,4.252 -1.688,8.302 -4.688,11.316 -3.011,2.998 -7.059,4.674 -11.311,4.686 h -64.264 c 1.931,3.33 4.006,6.904 6.187,10.653 11.483,19.749 25.882,44.374 37.475,63.749 7.692,12.861 14.277,23.591 17.522,28.407 0.042,0.063 0.085,0.127 0.127,0.189 5.819,-0.002 22.178,-0.004 37.027,-0.004 4.185,0 8.25,0 11.926,10e-4 v -165.95 c 0.009,-4.252 1.688,-8.302 4.688,-11.312 3.009,-3 7.06,-4.679 11.314,-4.688 h 112.5 c 4.252,0.009 8.302,1.69 11.311,4.686 3,3.011 4.679,7.062 4.688,11.313 v 24.001 c -0.009,4.252 -1.688,8.302 -4.688,11.312 -3.009,2.998 -7.059,4.679 -11.311,4.688 H 707.06 v 21.499 h 70.999 c 4.252,0.009 8.302,1.688 11.313,4.688 3,3.009 4.679,7.06 4.688,11.313 l 0.002,23.502 c -0.012,4.249 -1.693,8.3 -4.686,11.307 -3.016,3.007 -7.071,4.681 -11.318,4.689 h -70.5 v 25.003 h 70.499 c 4.252,0.01 8.302,1.688 11.316,4.688 2.995,3.009 4.679,7.06 4.688,11.313 v 8 h 32.496 v -200 h -78.496 c -4.25,-0.012 -8.3,-1.686 -11.316,-4.686 -2.998,-3.014 -4.679,-7.062 -4.688,-11.314 V 82.545 c 0.009,-4.254 1.69,-8.305 4.688,-11.313 3.013,-3 7.062,-4.679 11.316,-4.688 h 216.5 c 4.253,0.009 8.303,1.688 11.314,4.686 2.999,3.014 4.676,7.066 4.686,11.316 v 25.499 c -0.01,4.248 -1.684,8.3 -4.686,11.314 -3.014,3 -7.062,4.676 -11.314,4.688 h -80.002 v 200 h 32.001 v -164.49 c 0.011,-4.252 1.688,-8.302 4.688,-11.316 3.014,-3 7.064,-4.676 11.316,-4.686 l 109,-0.002 c 4.25,0.011 8.3,1.688 11.313,4.688 3,3.016 4.675,7.066 4.686,11.316 v 94.497 c -0.011,4.253 -1.69,8.303 -4.686,11.312 -3.014,3 -7.063,4.679 -11.313,4.688 h -44.201 c 2.55,2.903 5.198,5.919 7.887,8.977 16.256,18.489 34.173,38.773 39.686,44.723 0.298,0.322 0.57,0.611 0.773,0.825 0.069,0.05 0.116,0.081 0.142,0.097 l 0.01,0.009 c 0,-0.002 0,0 0.053,0.017 0.066,0.022 0.218,0.066 0.461,0.128 0.448,0.094 2.034,0.239 4.312,0.228 0.063,0 0.237,-0.005 0.499,-10e-4 3.367,-0.002 28.007,-0.004 53.264,-0.004 15.365,0 30.956,0 42.117,10e-4 v -3.999 h -40 c -4.254,-0.009 -8.302,-1.688 -11.313,-4.686 -2.998,-3.011 -4.679,-7.062 -4.688,-11.313 v -146.52 c 0.01,-4.254 1.689,-8.305 4.686,-11.314 3.014,-3.002 7.063,-4.679 11.315,-4.688 h 145 c 4.252,0.009 8.302,1.686 11.312,4.686 2.999,3.012 4.679,7.062 4.689,11.316 v 146.5 c -0.011,4.252 -1.69,8.303 -4.689,11.316 -3.012,2.995 -7.06,4.674 -11.312,4.683 h -42.003 v 4 h 90.503 v -241 c 0.01,-4.25 1.686,-8.3 4.686,-11.316 3.016,-3 7.065,-4.674 11.315,-4.684 l 122.5,-0.002 c 4.247,0.011 8.3,1.686 11.311,4.686 3.005,3.016 4.679,7.066 4.686,11.316 l 0,120.5 c -0.01,4.245 -1.684,8.3 -4.686,11.311 -3.014,2.998 -7.062,4.676 -11.313,4.686 h -76.504 v 103.5 h 125.5 v -184 c 0.01,-4.252 1.688,-8.302 4.686,-11.314 3.012,-2.998 7.062,-4.679 11.316,-4.688 h 25.499 c 4.252,0.009 8.302,1.69 11.311,4.688 3.003,3.014 4.679,7.064 4.688,11.314 v 184 h 32.5 v -164 c 0.01,-4.252 1.688,-8.3 4.688,-11.314 3.011,-3 7.063,-4.676 11.313,-4.686 h 111 c 4.247,0.012 8.298,1.686 11.312,4.686 3.004,3.014 4.676,7.066 4.686,11.314 l 0,23.001 c -0.012,4.248 -1.684,8.3 -4.688,11.316 -3.014,2.995 -7.06,4.672 -11.312,4.683 h -69.503 v 22.001 h 71.503 c 4.25,0.009 8.3,1.683 11.318,4.688 2.995,3.013 4.669,7.062 4.681,11.311 v 22.999 c -0.01,4.25 -1.688,8.3 -4.69,11.316 -3.009,2.995 -7.057,4.674 -11.309,4.683 h -69.504 v 25.001 h 68.502 c 4.249,0.01 8.302,1.687 11.315,4.686 2.998,3.014 4.674,7.064 4.686,11.316 v 6.997 h 69.004 c 3.791,0.003 7.572,0.388 11.295,1.486 3.818,1.119 7.257,2.949 10.165,5.209 5.417,4.313 8.274,8.82 11.251,12.596 0.964,1.264 4.275,5.428 8.69,10.935 4.444,5.544 10.119,12.596 16.212,20.153 12.194,15.118 26.07,32.275 35.219,43.58 6.055,7.481 10.016,12.368 10.105,12.479 0,0.007 0,0 -0,-0.005 -0,-0.004 -0.01,-0.009 -0,-0.002 2.39,2.947 3.568,6.539 3.566,10.063 0.01,4.64 -2.042,9.282 -5.929,12.44 -2.944,2.385 -6.527,3.566 -10.046,3.565 h -0.3 z M 1746.6,345 h 44.188 c 2.379,0.002 4.048,0.24 5.388,0.64 l 0.128,0.039 0.115,0.039 c 0.392,0.14 1.282,0.426 2.227,1.041 0.911,0.601 1.443,1.128 2.122,1.772 l 0.066,0.064 c 1.75,1.779 3.44,4.117 5.979,7.438 1.721,2.248 6.903,8.729 13.835,17.357 20.756,25.817 56.754,70.255 56.754,70.255 l -4.273,3.464 4.273,-3.464 c 0.997,1.229 2.412,1.847 3.892,1.854 1.119,-0.005 2.202,-0.355 3.135,-1.11 1.234,-1.004 1.852,-2.424 1.858,-3.896 -0.01,-1.121 -0.355,-2.199 -1.163,-3.204 -0.031,-0.036 -0.077,-0.093 -0.135,-0.167 -0.124,-0.151 -0.303,-0.374 -0.539,-0.663 -0.471,-0.582 -1.161,-1.434 -2.042,-2.522 -1.764,-2.174 -4.284,-5.289 -7.334,-9.06 -9.151,-11.307 -23.031,-28.466 -35.229,-43.594 -6.102,-7.563 -11.779,-14.621 -16.233,-20.178 -4.452,-5.553 -7.701,-9.635 -8.814,-11.094 -3.364,-4.332 -5.48,-7.607 -9.35,-10.674 -1.76,-1.378 -4.069,-2.607 -6.456,-3.296 -2.466,-0.729 -5.146,-1.041 -8.202,-1.043 -3.485,0 -52.541,0 -74.501,0.002 h -5.502 v -17.999 c 0.01,-1.284 -0.553,-2.64 -1.463,-3.536 -0.899,-0.913 -2.257,-1.476 -3.536,-1.466 h -79.501 v -47 h 80.503 c 1.277,0.009 2.635,-0.553 3.534,-1.463 0.91,-0.899 1.475,-2.257 1.466,-3.537 V 237 c 0.01,-1.279 -0.556,-2.642 -1.461,-3.536 -0.899,-0.91 -2.26,-1.473 -3.539,-1.463 h -82.503 v -44.002 h 80.503 c 1.275,0.011 2.64,-0.553 3.536,-1.463 0.908,-0.895 1.471,-2.252 1.461,-3.534 v -23.001 c 0.01,-1.28 -0.553,-2.64 -1.463,-3.537 -0.895,-0.908 -2.255,-1.473 -3.534,-1.461 h -111 c -1.284,-0.009 -2.638,0.55 -3.536,1.461 -0.911,0.899 -1.475,2.259 -1.466,3.537 v 175 h -54.502 v -195 c 0.01,-1.282 -0.551,-2.638 -1.463,-3.537 -0.897,-0.911 -2.26,-1.475 -3.534,-1.463 h -25.499 c -1.28,-0.011 -2.638,0.551 -3.539,1.466 -0.908,0.894 -1.473,2.254 -1.463,3.534 v 195 h -147.5 v -125.51 h 87.503 c 1.274,0.012 2.637,-0.553 3.538,-1.468 0.906,-0.892 1.468,-2.25 1.461,-3.529 l -0,-120.5 c 0.01,-1.282 -0.553,-2.64 -1.463,-3.539 -0.897,-0.908 -2.255,-1.47 -3.534,-1.461 h -122.5 c -1.282,-0.009 -2.642,0.553 -3.539,1.461 -0.908,0.899 -1.472,2.259 -1.463,3.539 v 252 h -112.5 v -25.999 h 53.005 c 1.277,0.009 2.638,-0.553 3.534,-1.463 0.913,-0.899 1.475,-2.26 1.465,-3.537 v -146.5 c 0.01,-1.282 -0.552,-2.635 -1.468,-3.539 -0.894,-0.911 -2.254,-1.472 -3.531,-1.463 h -145 c -1.279,-0.009 -2.638,0.553 -3.536,1.466 -0.913,0.901 -1.475,2.254 -1.464,3.537 v 146.5 c -0.011,1.277 0.553,2.638 1.466,3.537 0.895,0.908 2.257,1.472 3.534,1.463 h 51 v 26.001 h -5.5 c -11.116,-0.002 -29.523,-0.002 -47.617,-0.002 -25.59,0 -50.557,0 -53.38,0.002 h -0.066 l -0.063,-0.002 h -0.254 c -2.855,-0.014 -4.896,-0.081 -6.956,-0.546 l -0.051,-0.014 -0.039,-0.01 c -1.325,-0.254 -3.585,-1.223 -5.024,-2.486 l -0.278,-0.22 -0.254,-0.262 c -0.243,-0.252 -0.693,-0.723 -1.223,-1.298 -5.747,-6.204 -23.567,-26.384 -39.869,-44.925 -5.663,-6.442 -11.151,-12.694 -15.903,-18.113 l -8.002,-9.126 h 68.48 c 1.277,0.01 2.636,-0.555 3.532,-1.465 0.913,-0.899 1.475,-2.257 1.466,-3.535 v -94.497 c 0.01,-1.282 -0.553,-2.642 -1.464,-3.539 -0.896,-0.911 -2.257,-1.473 -3.534,-1.463 h -108.92 c -1.28,-0.009 -2.64,0.553 -3.537,1.466 -0.913,0.896 -1.475,2.257 -1.466,3.536 v 175.5 h -54 v -222.03 h 91.002 c 1.277,0.011 2.638,-0.553 3.537,-1.466 0.908,-0.894 1.473,-2.254 1.461,-3.534 V 82.463 c 0.012,-1.284 -0.551,-2.638 -1.464,-3.537 -0.896,-0.913 -2.257,-1.475 -3.534,-1.465 h -216.51 c -1.278,-0.009 -2.64,0.553 -3.539,1.465 -0.913,0.901 -1.472,2.254 -1.463,3.537 v 25.499 c -0.011,1.278 0.553,2.638 1.463,3.534 0.897,0.911 2.257,1.475 3.539,1.463 h 89.495 v 222 h -54.497 v -18.997 c 0.009,-1.282 -0.55,-2.635 -1.465,-3.536 -0.899,-0.911 -2.259,-1.475 -3.537,-1.466 h -81.5 v -47.002 l 81.5,0.002 c 1.282,0.009 2.637,-0.553 3.537,-1.463 0.915,-0.904 1.475,-2.26 1.465,-3.534 v -23.502 c 0.009,-1.279 -0.553,-2.637 -1.465,-3.536 -0.899,-0.91 -2.259,-1.475 -3.537,-1.466 h -82 v -43.497 h 82.503 c 1.277,0.009 2.635,-0.553 3.536,-1.468 0.908,-0.895 1.473,-2.255 1.463,-3.532 v -24.001 c 0.009,-1.277 -0.555,-2.638 -1.465,-3.534 -0.899,-0.913 -2.257,-1.475 -3.534,-1.466 h -112.51 c -1.28,-0.009 -2.635,0.553 -3.539,1.468 -0.911,0.895 -1.472,2.255 -1.463,3.532 v 177 l -5.504,-0.004 h -17.421 c -17.526,0 -37.175,0 -39.074,0.002 -0.016,0 -0.138,0.002 -0.365,-0.009 l -1.438,-0.083 -1.211,-0.772 c -0.372,-0.239 -0.874,-0.566 -1.511,-0.991 l -0.828,-0.553 -0.583,-0.808 c -0.342,-0.47 -0.796,-1.116 -1.287,-1.855 -3.521,-5.235 -10.07,-15.923 -17.82,-28.879 -11.637,-19.451 -26.049,-44.097 -37.544,-63.866 -4.124,-7.089 -7.871,-13.554 -10.983,-18.927 l -4.777,-8.257 h 83.347 c 1.277,0.012 2.64,-0.555 3.534,-1.463 0.913,-0.899 1.475,-2.259 1.465,-3.537 V 83.979 c 0.009,-1.277 -0.553,-2.64 -1.468,-3.539 -0.895,-0.908 -2.25,-1.47 -3.532,-1.461 h -120.5 c -2.734,-0.009 -4.993,2.236 -5,4.97 l -1.47,251.06 -5.436,0.031 c -7.97,0.049 -19.566,0.117 -31.313,0.188 -21.049,0.124 -42.587,0.25 -44.323,0.25 -2.704,0.044 -5.151,-1.007 -6.252,-1.731 l -0.037,-0.023 -0.051,-0.029 c -0.745,-0.471 -1.222,-0.881 -1.555,-1.19 l -0.25,-0.234 -76.962,-92.979 c -1.002,-1.207 -2.399,-1.806 -3.857,-1.813 -1.135,0.003 -2.234,0.365 -3.188,1.151 -1.202,0.996 -1.8,2.39 -1.81,3.854 0.004,1.112 0.353,2.19 1.103,3.127 l 76.378,92.274 0.538,0.646 c 0.399,0.475 1.697,1.986 4.275,3.623 2.562,1.636 6.64,3.331 11.648,3.323 h 0.062 c 3.578,0 85.975,-0.499 86.028,-0.499 2.708,-0.003 4.97,-2.264 4.97,-4.973 l 1.47,-251.03 h 110.54 v 111 l -86.998,0.002 c -1.792,0 -3.434,0.947 -4.33,2.5 -0.45,0.773 -0.672,1.63 -0.672,2.498 0,0.835 0.207,1.664 0.626,2.424 0.014,0.022 0.018,0.03 0.023,0.037 0.007,0.011 0.009,0.016 0.011,0.023 0.007,0.009 0.012,0.018 0.016,0.027 0.012,0.019 0.025,0.042 0.043,0.073 0.037,0.064 0.09,0.158 0.161,0.28 0.142,0.243 0.351,0.605 0.622,1.076 0.543,0.945 1.342,2.328 2.358,4.087 2.034,3.523 4.944,8.555 8.449,14.605 7.011,12.098 16.405,28.262 25.941,44.522 9.539,16.264 19.217,32.618 26.813,45.126 3.8,6.26 7.073,11.546 9.573,15.419 1.255,1.943 2.3,3.512 3.167,4.725 0.458,0.641 0.814,1.122 1.188,1.578 0.236,0.281 0.382,0.457 0.615,0.701 0.515,0.5 0.362,0.406 1.183,0.996 v 0.001 c 2.381,1.56 3.261,2.288 5.349,3.263 0.764,0.357 2.041,0.734 2.922,0.851 1.053,0.161 1.906,0.182 2.942,0.187 h 67.001 c 1.282,0.009 2.633,-0.553 3.532,-1.466 0.915,-0.901 1.477,-2.257 1.468,-3.534 v -177.02 h 102.51 v 14.001 h -82.498 c -1.28,-0.009 -2.637,0.555 -3.537,1.465 -0.91,0.897 -1.472,2.254 -1.463,3.537 v 53.499 c -0.009,1.28 0.553,2.641 1.461,3.534 0.899,0.911 2.261,1.476 3.539,1.466 h 81.998 v 13.499 l -81.498,0.003 c -1.282,-0.01 -2.64,0.55 -3.534,1.461 -0.913,0.898 -1.475,2.254 -1.465,3.539 v 56.999 c -0.009,1.277 0.553,2.638 1.468,3.536 0.892,0.906 2.25,1.468 3.532,1.459 h 81.5 v 19.004 c -0.011,1.277 0.553,2.638 1.465,3.536 0.897,0.911 2.25,1.473 3.532,1.464 h 64.503 c 1.28,0.009 2.635,-0.553 3.532,-1.466 0.913,-0.901 1.475,-2.257 1.465,-3.534 v -232 c 0.009,-1.277 -0.553,-2.637 -1.465,-3.536 -0.895,-0.908 -2.254,-1.473 -3.532,-1.463 h -89.502 v -15.5 h 206.51 v 15.5 h -90.997 c -1.28,-0.009 -2.638,0.553 -3.537,1.463 -0.911,0.899 -1.475,2.256 -1.463,3.536 v 232 c -0.009,1.277 0.55,2.633 1.463,3.534 0.901,0.913 2.257,1.475 3.537,1.466 h 64.001 c 1.277,0.009 2.635,-0.556 3.532,-1.466 0.913,-0.901 1.475,-2.257 1.465,-3.534 v -175.5 h 99 v 84.5 l -74.499,-0.003 c -1.958,0 -3.749,1.154 -4.559,2.945 -0.296,0.651 -0.443,1.346 -0.443,2.053 0.003,1.178 0.413,2.333 1.244,3.304 l 0.002,-0.001 0.007,0.009 c 0.007,0.009 0.021,0.023 0.036,0.044 0.034,0.039 0.085,0.094 0.149,0.169 0.133,0.151 0.328,0.377 0.585,0.668 0.512,0.585 1.264,1.444 2.22,2.539 1.915,2.186 4.653,5.312 7.949,9.072 6.592,7.521 15.417,17.58 24.343,27.724 8.926,10.145 17.953,20.375 24.962,28.251 3.502,3.938 6.5,7.284 8.738,9.754 1.114,1.229 2.041,2.236 2.757,3.002 0.361,0.384 0.667,0.705 0.949,0.997 0.402,0.4 0.354,0.371 0.852,0.809 2.944,2.555 6.559,4.203 9.71,4.88 3.369,0.748 6.376,0.773 9.5,0.784 h 111.5 c 1.277,0.01 2.635,-0.553 3.534,-1.463 0.912,-0.899 1.475,-2.262 1.465,-3.536 v -36.001 c 0.01,-1.282 -0.553,-2.64 -1.463,-3.536 -0.896,-0.911 -2.257,-1.473 -3.536,-1.464 h -51.002 v -136.48 h 135 v 136.5 h -53 c -1.281,-0.009 -2.637,0.553 -3.536,1.466 -0.91,0.896 -1.475,2.255 -1.466,3.534 l 0,36.001 c -0.012,1.277 0.553,2.637 1.463,3.536 0.899,0.91 2.255,1.473 3.536,1.463 h 122.5 c 1.275,0.01 2.638,-0.555 3.532,-1.463 0.913,-0.899 1.475,-2.262 1.466,-3.536 v -252 h 112.5 v 110.5 h -87.497 c -1.28,-0.009 -2.636,0.553 -3.534,1.463 -0.913,0.899 -1.476,2.261 -1.466,3.539 v 135.5 c -0.012,1.277 0.553,2.638 1.466,3.536 0.896,0.911 2.249,1.473 3.534,1.464 h 157.5 c 1.275,0.009 2.633,-0.553 3.532,-1.466 0.912,-0.899 1.472,-2.252 1.463,-3.534 v -195 h 15.502 l 0,195 c -0.01,1.277 0.555,2.64 1.466,3.536 0.894,0.911 2.252,1.473 3.534,1.464 h 64.501 c 1.275,0.009 2.633,-0.553 3.532,-1.466 0.912,-0.899 1.472,-2.252 1.463,-3.534 v -175 h 101 v 13 l -80.496,0.002 c -1.282,-0.009 -2.64,0.553 -3.534,1.461 -0.911,0.899 -1.475,2.261 -1.466,3.539 v 53.999 c -0.01,1.277 0.555,2.64 1.463,3.534 0.897,0.911 2.257,1.475 3.537,1.466 h 82.498 v 12.999 h -80.498 c -1.282,-0.009 -2.638,0.553 -3.534,1.464 -0.913,0.898 -1.478,2.259 -1.466,3.536 v 57.002 c -0.012,1.275 0.553,2.638 1.463,3.532 0.899,0.912 2.257,1.475 3.537,1.465 h 79.5 v 18.002 c -0.012,1.277 0.553,2.638 1.468,3.539 0.89,0.908 2.248,1.47 3.53,1.461 h 40.8 z m -623.8,-56 h 40.003 c 4.249,0.009 8.3,1.686 11.313,4.684 2.051,2.06 3.481,4.604 4.186,7.363 0.705,-2.761 2.138,-5.304 4.188,-7.361 3.012,-3 7.064,-4.677 11.313,-4.686 l 41.998,-0.002 v -114.49 h -113 v 114.5 -0.004 z M 958.56,257.34 c -0.01,-0.014 -0.017,-0.019 -0.019,-0.022 l -0.012,-0.014 -0.004,-0.005 -10e-4,0.001 c 0.01,0.02 0.02,0.03 0.03,0.04 z m -9.78,-11.92 c 2.908,-4.575 7.979,-7.409 13.501,-7.413 h 63.497 V 175.51 H 948.78 v 69.905 l -0.02,0.005 z m 383.52,-48.65 c 0.718,-1.299 1.618,-2.503 2.687,-3.577 3.012,-2.998 7.062,-4.678 11.314,-4.686 l 76.498,-0.002 v -88.498 h -90.5 v 96.77 z M 499.12,195.9 c 2.97,-4.296 7.878,-6.896 13.157,-6.896 l 75.999,-0.002 v -89 h -88.594 l -0.57,95.9 z M 855.78,98.683 c 0.042,-0.06 0.086,-0.119 0.129,-0.178 h -0.259 c 0.05,0.058 0.09,0.118 0.13,0.178 z" id="path240"/>
    </g>
    <g id="g242">
      <path d="m 1507.4,102.43 -35.499,-35.501 c -1.986,-1.983 -3.097,-4.694 -3.075,-7.5 0.021,-2.805 1.169,-5.5 3.182,-7.456 l 35.501,-34.5 c 4.135,-4.019 10.746,-3.948 14.793,0.159 l 34.501,35.002 c 4.026,4.083 4.026,10.656 0,14.741 l -34.501,35 c -1.968,2 -4.634,3.119 -7.439,3.13 h -0.033 c -2.9,-0.01 -5.6,-1.11 -7.5,-3.08 z m -13.2,-42.82 20.49,20.491 19.809,-20.098 -19.914,-20.203 -20.4,19.81 z" id="path244" style="fill:#fee600"/>
      <path d="m 1514.8,111 c -4.241,0.002 -8.318,-1.684 -11.318,-4.686 l 3.888,-3.89 -3.888,3.888 -35.5,-35.49 c -2.999,-3 -4.683,-7.06 -4.689,-11.296 -0,-0.013 -0,-0.051 0,-0.106 0,-0.051 0,-0.118 0.01,-0.202 0.077,-4.219 1.813,-8.238 4.844,-11.187 l 35.502,-34.5 c 3.094,-3.01 7.146,-4.531 11.147,-4.524 4.115,-0.006 8.277,1.6 11.396,4.765 l 34.501,35.002 c 3.061,3.101 4.607,7.192 4.602,11.232 0.01,4.04 -1.543,8.129 -4.602,11.232 l -34.498,34.996 c -2.99,3.043 -7.082,4.761 -11.358,4.774 h 0.1 z m 0,-11 h 0.012 c 1.353,-0.011 2.595,-0.533 3.542,-1.492 l 34.501,-34.998 c 0.966,-0.986 1.432,-2.226 1.437,-3.512 -0,-1.291 -0.471,-2.528 -1.437,-3.51 l -34.498,-35 c -0.992,-1.003 -2.252,-1.483 -3.563,-1.49 -1.272,0.004 -2.499,0.46 -3.48,1.412 l -35.502,34.5 c -0.952,0.921 -1.507,2.224 -1.516,3.552 l -10e-4,0.141 c 0.026,1.275 0.556,2.524 1.466,3.428 l 35.497,35.5 c 1,0.955 2.2,1.469 3.6,1.469 z m -24.5,-36.502 -3.945,-3.945 28.301,-27.503 27.555,27.952 -27.503,27.905 -24.5,-24.409 z m 24.4,8.796 12.115,-12.292 -12.274,-12.452 -12.468,12.116 12.7,12.628 z" id="path246"/>
    </g>
  </g>
</svg>